<svg id="bouns" xmlns="http://www.w3.org/2000/svg" width="24" height="24" viewBox="0 0 24 24">
  <g id="Path_88357" data-name="Path 88357" fill="gray" opacity="0">
    <path d="M 23.5 23.5 L 0.5 23.5 L 0.5 0.5 L 23.5 0.5 L 23.5 23.5 Z" stroke="none"/>
    <path d="M 1 1 L 1 23 L 23 23 L 23 1 L 1 1 M 0 0 L 24 0 L 24 24 L 0 24 L 0 0 Z" stroke="none" fill="#808fa5"/>
  </g>
  <g id="bar-chart" transform="translate(3.4 3.4)">
    <path id="Path_88630" data-name="Path 88630" d="M3.691,451.777a.527.527,0,0,0-.527-.527H.527a.527.527,0,0,0-.527.527v4.254a.527.527,0,0,0,.527.527H3.164a.527.527,0,0,0,.527-.527Zm0,0" transform="translate(0 -438.559)" fill="gray"/>
    <path id="Path_88631" data-name="Path 88631" d="M173.164,338.75h-2.637a.527.527,0,0,0-.527.527V346.7a.527.527,0,0,0,.527.527h2.637a.527.527,0,0,0,.527-.527v-7.418A.527.527,0,0,0,173.164,338.75Zm0,0" transform="translate(-165.219 -329.223)" fill="gray"/>
    <path id="Path_88632" data-name="Path 88632" d="M341.914,301.25h-2.637a.527.527,0,0,0-.527.527v8.473a.527.527,0,0,0,.527.527h2.637a.527.527,0,0,0,.527-.527v-8.473A.527.527,0,0,0,341.914,301.25Zm0,0" transform="translate(-329.223 -292.777)" fill="gray"/>
    <path id="Path_88633" data-name="Path 88633" d="M511.914,151.25h-2.637a.527.527,0,0,0-.527.527v12.691a.527.527,0,0,0,.527.527h2.637a.527.527,0,0,0,.527-.527V151.777A.527.527,0,0,0,511.914,151.25Zm0,0" transform="translate(-494.441 -146.996)" fill="gray"/>
    <path id="Path_88634" data-name="Path 88634" d="M12.207,11.6a1.584,1.584,0,0,0,1.582-1.582,1.56,1.56,0,0,0-.065-.425l2.055-1.45A1.571,1.571,0,0,0,18.25,7.066l2.1-.443a1.578,1.578,0,0,0,2.809-1.418l2.524-2.243a1.563,1.563,0,0,0,.759.2,1.588,1.588,0,1,0-1.464-.986L22.458,4.421a1.563,1.563,0,0,0-.759-.2,1.579,1.579,0,0,0-1.561,1.372l-2.1.443a1.578,1.578,0,0,0-2.927.822,1.56,1.56,0,0,0,.065.425l-2.055,1.45a1.58,1.58,0,1,0-.911,2.871Zm0,0" transform="translate(-10.326 0)" fill="gray"/>
  </g>
</svg>
