<svg xmlns="http://www.w3.org/2000/svg" width="20" height="20" viewBox="0 0 20 20">
  <g id="chat" transform="translate(-1151 -1105)">
    <g id="Path_92051" data-name="Path 92051" transform="translate(1151 1105)" fill="gray" opacity="0">
      <path d="M 19.5 19.5 L 0.5 19.5 L 0.5 0.5 L 19.5 0.5 L 19.5 19.5 Z" stroke="none"/>
      <path d="M 1 1 L 1 19 L 19 19 L 19 1 L 1 1 M 0 0 L 20 0 L 20 20 L 0 20 L 0 0 Z" stroke="none" fill="#707070"/>
    </g>
    <g id="bubble-speech" transform="translate(1152.429 1106.429)">
      <path id="Path_92049" data-name="Path 92049" d="M11.883,88.508H2.3A2.3,2.3,0,0,0,0,90.8v6.9A2.3,2.3,0,0,0,2.3,100h.232l-.709,1.63c-.172.394-.047.593.043.676a.411.411,0,0,0,.288.106.849.849,0,0,0,.39-.113L6.919,100h4.965a2.3,2.3,0,0,0,2.3-2.3V90.8a2.3,2.3,0,0,0-2.3-2.3ZM3.3,95.123a.867.867,0,1,1,.867-.867A.868.868,0,0,1,3.3,95.123Zm3.954,0a.867.867,0,1,1,.867-.867A.868.868,0,0,1,7.254,95.123Zm3.624,0a.867.867,0,1,1,.867-.867A.868.868,0,0,1,10.879,95.123Zm0,0" transform="translate(0 -85.544)" fill="gray"/>
      <path id="Path_92050" data-name="Path 92050" d="M101.112,0H91.525a2.3,2.3,0,0,0-2.271,1.959h8.895a3.3,3.3,0,0,1,3.3,3.3V11.47A2.3,2.3,0,0,0,103.409,9.2V2.3a2.3,2.3,0,0,0-2.3-2.3Zm0,0" transform="translate(-86.266 0)" fill="gray"/>
    </g>
  </g>
</svg>
