<svg xmlns="http://www.w3.org/2000/svg" width="20" height="20" viewBox="0 0 20 20">
  <g id="history" transform="translate(-1215 -1023)">
    <g id="Rectangle_23912" data-name="Rectangle 23912" transform="translate(1215 1023)" fill="gray" stroke="#707070" stroke-width="1" opacity="0">
      <rect width="20" height="20" stroke="none"/>
      <rect x="0.5" y="0.5" width="19" height="19" fill="none"/>
    </g>
    <g id="navigation-history-interface-symbol-of-a-clock-with-an-arrow" transform="translate(1217.143 1023)">
      <path id="Path_92048" data-name="Path 92048" d="M50.755,7.4A7.4,7.4,0,0,1,65.276,5.379a1.17,1.17,0,0,0-.307.649l-.081.646-.137.732h-.757a5.835,5.835,0,1,0-8.685,5.087l-1.141,1.141A7.4,7.4,0,0,1,50.755,7.4Zm7.4-4.651a.785.785,0,0,0-.785.785V7.4a.785.785,0,0,0,.785.785H62.6a.785.785,0,0,0,0-1.57H58.945V3.539A.785.785,0,0,0,58.16,2.754Zm8.174,3.46a.393.393,0,0,0-.373-.382.4.4,0,0,0-.409.343l-.084.669-.147.782a5.886,5.886,0,0,1-.24.856L64.906,9l-.249.548a5.006,5.006,0,0,1-.368.691c-.073.121-.146.244-.215.369-.072.1-.143.2-.213.3a6.382,6.382,0,0,1-.593.751,7,7,0,0,1-.7.72c-.076.071-.151.141-.226.212l-.248.191a7.1,7.1,0,0,1-.837.59,5.869,5.869,0,0,1-.768.427c-.109.054-.217.107-.322.162-.133.048-.263.1-.39.151a4.552,4.552,0,0,1-.7.238l-.519.144-.51.087a4.491,4.491,0,0,1-.709.082l-.416.032-.059,0V12.855a.393.393,0,0,0-.67-.278L52.81,15.954a.393.393,0,0,0,0,.555l3.377,3.377a.393.393,0,0,0,.67-.278V17.694l.723-.132a7.886,7.886,0,0,0,1.149-.3l.465-.156.77-.326a6.86,6.86,0,0,0,.929-.481c.127-.075.255-.15.387-.221.014-.008.028-.017.041-.026.1-.074.206-.146.311-.219a8.013,8.013,0,0,0,.925-.712,9.25,9.25,0,0,0,.941-.9l.212-.223.027-.03.192-.243a9.013,9.013,0,0,0,.737-1.019,7.914,7.914,0,0,0,.569-1c.057-.114.115-.227.173-.338a.464.464,0,0,0,.021-.047c.052-.14.108-.277.163-.412a6.25,6.25,0,0,0,.318-.908l.181-.644.1-.566a6.752,6.752,0,0,0,.127-1.016l.038-.512Z" transform="translate(-50.755)" fill="gray"/>
    </g>
  </g>
</svg>
