<svg id="salary" xmlns="http://www.w3.org/2000/svg" width="24" height="24" viewBox="0 0 24 24">
  <g id="Rectangle_22908" data-name="Rectangle 22908" fill="gray" stroke="#808fa5" stroke-width="1" opacity="0">
    <rect width="24" height="24" stroke="none"/>
    <rect x="0.5" y="0.5" width="23" height="23" fill="none"/>
  </g>
  <g id="salary-2" data-name="salary" transform="translate(3 3)">
    <path id="Path_88620" data-name="Path 88620" d="M48,44.406l.643.488V40.853a.321.321,0,0,1,.321-.321,1.609,1.609,0,0,0,1.607-1.607.321.321,0,0,1,.321-.321H59.25a.321.321,0,0,1,.321.321,1.609,1.609,0,0,0,1.607,1.607.321.321,0,0,1,.321.321v4.041l.643-.488V37.96H48Zm0,0" transform="translate(-46.071 -36.435)" fill="gray"/>
    <path id="Path_88621" data-name="Path 88621" d="M5.238,146.487l1.075.816v-1.631Zm0,0" transform="translate(-5.028 -139.819)" fill="gray"/>
    <path id="Path_88622" data-name="Path 88622" d="M195.063.882h2.325L196.226,0Zm0,0" transform="translate(-187.226)" fill="gray"/>
    <path id="Path_88623" data-name="Path 88623" d="M18,182.07l-8.029,6.091a1.613,1.613,0,0,1-1.943,0L0,182.07v9.638a.964.964,0,0,0,.964.964H17.036a.964.964,0,0,0,.964-.964Zm0,0" transform="translate(0 -174.755)" fill="gray"/>
    <path id="Path_88624" data-name="Path 88624" d="M416,147.3l1.075-.816L416,145.672Zm0,0" transform="translate(-399.286 -139.819)" fill="gray"/>
    <path id="Path_88625" data-name="Path 88625" d="M147.214,117.961a3.214,3.214,0,1,0,3.214,3.214A3.214,3.214,0,0,0,147.214,117.961Zm0,2.893a1.283,1.283,0,0,1,.321,2.526v.367a.321.321,0,1,1-.643,0v-.367a1.286,1.286,0,0,1-.964-1.24.321.321,0,0,1,.643,0,.643.643,0,1,0,.643-.643,1.283,1.283,0,0,1-.321-2.526V118.6a.321.321,0,0,1,.643,0v.367a1.286,1.286,0,0,1,.964,1.24.321.321,0,1,1-.643,0,.643.643,0,1,0-.643.643Zm0,0" transform="translate(-138.214 -113.222)" fill="gray"/>
    <path id="Path_88626" data-name="Path 88626" d="M89.669,69.961H81.9a2.25,2.25,0,0,1-1.9,1.9V76.1l5.2,3.947a.966.966,0,0,0,1.165,0l5.2-3.947V71.864A2.25,2.25,0,0,1,89.669,69.961Zm-3.883,9A3.857,3.857,0,1,1,89.643,75.1,3.857,3.857,0,0,1,85.786,78.961Zm0,0" transform="translate(-76.786 -67.15)" fill="gray"/>
  </g>
</svg>
