<svg xmlns="http://www.w3.org/2000/svg" xmlns:xlink="http://www.w3.org/1999/xlink" width="125" height="125" viewBox="0 0 125 125">
  <defs>
    <clipPath id="clip-path">
      <path id="Rectangle_23925" data-name="Rectangle 23925" d="M0,0H125V125H0Z" fill="#fff"/>
    </clipPath>
  </defs>
  <g id="bg-1111-2" clip-path="url(#clip-path)">
    <path id="Union_76" data-name="Union 76" d="M38.054,144.176a10.98,10.98,0,1,1,7.843,3.295A10.983,10.983,0,0,1,38.054,144.176Zm8.249-.043v2.776a10.239,10.239,0,0,0,6.979-3.03h-.077a10.243,10.243,0,0,0,3.028-6.98H53.456a.33.33,0,1,1,0-.66h2.78a10.353,10.353,0,0,0-10.012-10.009v2.776a.329.329,0,1,1-.658,0v-2.776A10.354,10.354,0,0,0,35.558,136.24h2.857a.33.33,0,0,1,0,.66H35.636a10.356,10.356,0,0,0,10.01,10.01v-2.776a.329.329,0,1,1,.658,0Zm61.646,2.807v-.722h.69v.722Zm1.388-.087v-.722h.676l.062.722Zm-2.907-.182.158-.69.674.125-.094.706A5.558,5.558,0,0,1,106.43,146.671Zm4.257-.667.66-.172.2.69-.722.172Zm-5.69.288.249-.675h0l.661.22-.205.69Zm7.015-.685.627-.266.3.66-.678.282Zm-65.078.169a.323.323,0,0,1,.29-.345,8.957,8.957,0,0,0,7.529-7.527.3.3,0,0,1,.185-.256.3.3,0,0,1,.41.348,9.65,9.65,0,0,1-8.079,8.077h-.013A.323.323,0,0,1,46.933,145.777Zm-2.479.3A9.649,9.649,0,0,1,36.374,138a.326.326,0,0,1,.517-.309.323.323,0,0,1,.126.214,8.959,8.959,0,0,0,7.531,7.529H44.5a.323.323,0,0,1-.031.644Zm59.152-.406.33-.629.628.3-.3.66Zm9.669-.609.6-.363.377.612-.628.376Zm-5.215.016a1.387,1.387,0,0,1-.44.079Q106.5,144.11,105.438,143a5.046,5.046,0,0,1-1.93-2.84l-1.569-1.569a.37.37,0,0,1-.11-.25v-.906l-4.173-3.828.487-.535,2.542,2.332,4.582-4.58-3.324-3.326.5-.5,5.614,5.618h1.289a.372.372,0,0,1,.25.11l.471.455,6.542-6.543.5.5-6.747,6.871-2.6,2.572a1.709,1.709,0,0,0,2.1-.234l1.066-1.068.5.518-.455.455,3.011,3.011,5.13-5.114.5.5-5.257,5.323a1.635,1.635,0,0,1,0,.282,1.42,1.42,0,0,1-.423,1l-3.859,3.813a1.366,1.366,0,0,1-.985.419h-.024A1.424,1.424,0,0,1,108.059,145.076Zm-1.484-7.038a1.114,1.114,0,0,1,.7,1,1.13,1.13,0,0,1,1.083,1.066,4.492,4.492,0,0,1,1.821,2.981l-1.57,1.49a.722.722,0,0,0,.973,0l3.858-3.843v-.017a.748.748,0,0,0,.2-.5.766.766,0,0,0-.2-.518l-3-2.982-.094.094a2.415,2.415,0,0,1-3.4,0l-.015-.015a.343.343,0,0,1-.093-.246.336.336,0,0,1,.108-.241l2.635-2.621-.361-.346h-1.287a.37.37,0,0,1-.25-.11l-.471-.455-4.707,4.708v.784l1.427,1.429,1.445-1.412a1.113,1.113,0,0,1,1.2-.247Zm2.441,4.011-1.695,1.694a.4.4,0,0,0-.125.284.409.409,0,0,0,.409.408.389.389,0,0,0,.282-.125l1.709-1.7a.45.45,0,0,0,.109-.282.408.408,0,0,0-.4-.407A.429.429,0,0,0,109.015,142.049Zm-1.067-1.082-1.711,1.711a.461.461,0,0,0-.11.283v.016a.392.392,0,0,0,.409.374.412.412,0,0,0,.283-.108l1.694-1.694a.364.364,0,0,0,.125-.283.407.407,0,0,0-.409-.407h-.02A.373.373,0,0,0,107.949,140.967Zm-1.066-1.067-1.711,1.694a.41.41,0,0,0-.083.437.406.406,0,0,0,.365.253.394.394,0,0,0,.284-.125l1.708-1.694a.373.373,0,0,0,.111-.282.407.407,0,0,0-.392-.408h-.009A.36.36,0,0,0,106.882,139.9Zm-1.083-1.083-1.7,1.709a.4.4,0,0,0-.125.284.407.407,0,0,0,.409.391.373.373,0,0,0,.283-.11l1.695-1.691a.424.424,0,0,0,.124-.3.408.408,0,0,0-.408-.393A.442.442,0,0,0,105.8,138.818ZM101.22,135.9l.955.879,4.52-4.52-.925-.925Zm1.189,8.959.437-.563a5.229,5.229,0,0,0,.566.392l-.393.595Zm11.978-.57.533-.423.471.533-.58.471Zm-13.09-.379.5-.518a4.863,4.863,0,0,0,.5.468l-.472.55Zm14.16-.553.468-.519.533.469c-.155.189-.328.378-.5.55ZM49.31,143.8a.311.311,0,0,1-.219-.1.315.315,0,0,1-.082-.228v-3.133a.322.322,0,0,1,.643,0v.989l1.067-.22V139.54a1.048,1.048,0,0,0-.611-.957l-1.961-.894a2.385,2.385,0,0,1-4.518,0l-1.962.894a1.05,1.05,0,0,0-.611.957v1.3l1.066.423v-1a.322.322,0,0,1,.644,0v3.152a.315.315,0,0,1-.314.314.331.331,0,0,1-.331-.33v-1.49l-1.066-.438v.581a.322.322,0,1,1-.644-.018v-2.557a1.742,1.742,0,0,1,.989-1.569l2.572-1.163a.376.376,0,0,0,.22-.33v-.862a2.731,2.731,0,0,1-1.036-2.133v-1.334a2.039,2.039,0,0,1,2.041-2.038H46.58a2.039,2.039,0,0,1,2.038,2.04v1.38a2.732,2.732,0,0,1-1.035,2.135v.862a.377.377,0,0,0,.221.329l2.572,1.161v.035a1.742,1.742,0,0,1,.988,1.569v2.556a.321.321,0,1,1-.643,0v-.3l-1.067.22v1.444a.33.33,0,0,1-.329.329ZM44.8,136.477a1,1,0,0,1-.6.91,1.708,1.708,0,0,0,3.293,0,1,1,0,0,1-.6-.91v-.486a2.614,2.614,0,0,1-2.1,0Zm-1-3.056a2.1,2.1,0,0,0,2.085,2.086v.047h.032a2.1,2.1,0,0,0,2.072-2.133V132.04a1.4,1.4,0,0,0-1.4-1.4H45.214a1.406,1.406,0,0,0-1.238.768,7.738,7.738,0,0,0,2.964.643.331.331,0,0,1,.315.329.315.315,0,0,1-.314.314,8.063,8.063,0,0,1-3.138-.66Zm56.53,9.349.58-.422c.133.184.274.361.424.532l-.533.47A5.274,5.274,0,0,1,100.332,142.77Zm16.043-.417.392-.565.6.393c-.131.211-.273.415-.424.612ZM99.52,141.62l.628-.346.345.6-.6.391Zm17.585-.438c.11-.2.22-.409.314-.613l.643.3a6.2,6.2,0,0,1-.329.656Zm-18.186-1,.676-.25v0c.073.218.157.433.249.643l-.643.3A5.256,5.256,0,0,1,98.919,140.179Zm18.764-.248a1.967,1.967,0,0,0,.22-.644l.674.189a3.248,3.248,0,0,0-.219.7Zm-19.167-1.151.7-.156a3.558,3.558,0,0,1,.174.673l-.69.189A2.353,2.353,0,0,1,98.516,138.779Zm19.553-.166a5.211,5.211,0,0,0,.125-.675l.7.094a6.16,6.16,0,0,0-.124.738ZM98.281,137.26h.7l.079-.049v.691l-.7.095A2.337,2.337,0,0,1,98.281,137.26Zm-43.208.359h-.006l.047,0-.034,0A.01.01,0,0,0,55.073,137.619Zm63.209-.376v-.689l.707-.048a5.925,5.925,0,0,1,0,.737Zm-20-.684v-.737l.722.046v.691Zm-43.527-1.331a8.96,8.96,0,0,0-7.529-7.53.325.325,0,0,1,.094-.643,9.647,9.647,0,0,1,8.08,8.079h-.048v.006a.33.33,0,0,1-.283.371A.315.315,0,0,1,54.752,135.228Zm-18.1.28H36.65a.329.329,0,0,1-.276-.374,9.647,9.647,0,0,1,8.08-8.08h.005a.33.33,0,0,1,.371.284h-.048a.329.329,0,0,1-.283.361,8.959,8.959,0,0,0-7.53,7.529.311.311,0,0,1-.311.282Zm62.674-2.878V132.6a1.047,1.047,0,0,1,1.066-1.033h.034a1.05,1.05,0,0,1,1.033,1.067,1.067,1.067,0,1,1-2.133,0Zm.7,0a.364.364,0,0,0,.105.256.368.368,0,0,0,.256.105h.028a.361.361,0,0,0-.014-.722H100.4A.377.377,0,0,0,100.034,132.629ZM15.4,131.852,12.719,130.2l-2.134,1.662h-.329a.314.314,0,0,1-.141-.14l-2.447-4.909-4-2.637a.263.263,0,0,1-.141-.172.378.378,0,0,1-.051-.128.362.362,0,0,1,.287-.422l21.223-8.391a.4.4,0,0,1,.328,0h.049a.379.379,0,0,1,.124.5l-9.571,16.128a.356.356,0,0,1-.234.158h-.077a.326.326,0,0,1-.1.016A.319.319,0,0,1,15.4,131.852Zm7.025-13.591-11.3,9.9,1.9,1.24,2.449,1.567,8.83-14.872L4.733,123.943l3.135,2.084,8.282-4.706.363.642-7.954,4.5,1.93,1.271,11.469-10.025ZM10.853,130.734l1.35-1.05-1.35-.894Zm-.738-.8v-1.616l-1.208-.784Zm56.163,1.519,1.569-12.362h4.331a.4.4,0,1,1,0,.8h-3.64l-1.349,10.779H87.347L86.2,119.89H82.561a.4.4,0,1,1,0-.8h4.346l1.336,12.362ZM18.741,129.4l.627-.345.378.626c-.22.126-.441.251-.675.361Zm51.53-.019v-.032a.408.408,0,0,1-.284-.486l0-.011a.393.393,0,0,1,.485-.271h.156a1.759,1.759,0,0,0,.486,0,.4.4,0,1,1,.1.8Zm-50.312-.694.551-.423.469.565a6.407,6.407,0,0,1-.611.455Zm52.749.3h-.014a.394.394,0,0,1-.373-.266.4.4,0,0,1,.02-.3.4.4,0,0,1,.229-.2l.706-.315v.032a.408.408,0,0,1,.533.2.392.392,0,0,1-.189.518l-.769.329Zm-51.677-1.2q.263-.238.5-.5l.533.5c-.172.189-.345.361-.533.533Zm48.02.156,0-.234a.471.471,0,0,1,0-.142,2.284,2.284,0,0,1,0-.565.421.421,0,0,1,.5-.282.406.406,0,0,1,.266.5H69.8a3.55,3.55,0,0,0,0,.391v.1a.57.57,0,0,0,0,.157.406.406,0,0,1-.361.438A.423.423,0,0,1,69.052,127.943ZM112.5,127.8l.314-.644.644.363-.361.61Zm-37.673.107a.421.421,0,0,1-.344-.173.408.408,0,0,1,.125-.55l.627-.455v.143a.379.379,0,0,1,.076-.065h0a.371.371,0,0,1,.392.629,5,5,0,0,1-.675.471.349.349,0,0,1-.2,0Zm29.354-.724a2.033,2.033,0,0,1,.69-.284l.25.66-.626.266Zm7.039.064.2-.689a3.06,3.06,0,0,0,.7.235l-.251.675A5.426,5.426,0,0,0,111.223,127.247Zm-5.65-.606a5.446,5.446,0,0,1,.721-.189l.158.69a4.525,4.525,0,0,0-.66.189Zm-83.622.118.408-.565.611.408-.454.613Zm88.008.22v-.722h.079l.737.127-.141.688A1.642,1.642,0,0,0,109.959,126.979Zm-2.952-.669a5.771,5.771,0,0,1,.737-.094l.063.706-.691.094Zm1.476.583v-.706h.156l.535-.015v.721Zm-31.674-.447a.385.385,0,0,1-.329-.157.421.421,0,0,1,0-.563l.267-.174.173-.094h.045a18.1,18.1,0,0,1-4.142-8.393A7.868,7.868,0,0,1,72.7,114.3c.005-.078.011-.157.019-.235a4.252,4.252,0,0,1,4.688-3.766c.067-.006.133-.013.2-.015a4.266,4.266,0,0,1,4.5,4.016,8.352,8.352,0,0,1-.139,2.766,17.753,17.753,0,0,1-4.125,8.485.391.391,0,0,1-.188.5l-.392.235a1.23,1.23,0,0,0-.22.157.415.415,0,0,1-.236,0Zm-3.374-11.97a7.563,7.563,0,0,0,.125,2.494,17.813,17.813,0,0,0,3.8,7.843,17.409,17.409,0,0,0,3.8-7.843,7.2,7.2,0,0,0,.125-2.494,3.573,3.573,0,0,0-.031-.365,3.449,3.449,0,0,0-3.889-2.945c-.111-.014-.221-.023-.331-.027l-.128,0A3.466,3.466,0,0,0,73.436,114.476Zm-3.084,11.839a.4.4,0,0,1-.349-.2.392.392,0,0,1,.157-.532,1.862,1.862,0,0,1,.659-.22h.36l.038,0a.376.376,0,0,1,.308.435.222.222,0,0,0,0,.023.392.392,0,0,1-.45.322h-.158a.957.957,0,0,0-.36.11.436.436,0,0,1-.19,0v.063ZM22.784,125.6a6.049,6.049,0,0,0,.329-.628l.659.313c-.109.221-.219.455-.344.676Zm56.129-.083a.409.409,0,0,1-.392-.314l0-.015a.393.393,0,0,1,.318-.455,1.619,1.619,0,0,1,.816-.14l.036-.005a.379.379,0,0,1,.4.35.409.409,0,0,1-.346.455l-.752.125Zm2.377-.23a.409.409,0,0,1-.408-.393l-.015.016a.408.408,0,0,1,.392-.408h.785a.408.408,0,0,1,.423.376v.033a.371.371,0,0,1-.111.266.379.379,0,0,1-.266.11Zm2.382-.2a.395.395,0,0,1-.068-.784,1.563,1.563,0,0,0,.535-.2h-.11a.407.407,0,0,1,.518.112.412.412,0,0,1-.032.53,2.371,2.371,0,0,1-.832.345Zm-60.287-.77a2.216,2.216,0,0,0,.22-.675l.706.219c-.076.236-.156.472-.25.706Zm61.807-.845a.407.407,0,0,1-.266-.5l-.079-.064v-.2a.6.6,0,0,0,0-.284.256.256,0,0,1-.014-.04.4.4,0,0,1,.087-.4.4.4,0,0,1,.679.169,1.606,1.606,0,0,1,.1.549v.094a1.583,1.583,0,0,1,0,.392.425.425,0,0,1-.393.283Zm-61.4-.507a3.667,3.667,0,0,0,.125-.69l.722.094a6.12,6.12,0,0,1-.141.752Zm60.228-1.188a1.671,1.671,0,0,0-.627,0h-.11a.393.393,0,0,1-.392-.282.407.407,0,0,1,.283-.5,2.4,2.4,0,0,1,.941,0l.023,0v0a.4.4,0,0,1-.058.787A.49.49,0,0,1,84.02,121.782Zm-79.76-.16v-.754h.721l.016.047v.707Zm19.767-.045v-.706l.737-.047v.752ZM4.282,120.057a2.028,2.028,0,0,0,.094-.752l.643.048v.7Zm7.282-.632a.359.359,0,0,1-.345-.377,1.1,1.1,0,0,0-1.1-1.1.362.362,0,0,1-.252-.607.367.367,0,0,1,.252-.115,1.1,1.1,0,0,0,1.1-1.1v-.015a.362.362,0,0,1,.362-.361.377.377,0,0,1,.377.376,1.1,1.1,0,0,0,1.1,1.1.361.361,0,0,1,0,.721,1.1,1.1,0,0,0-1.1,1.1.378.378,0,0,1-.377.377Zm-.347-1.837a1.583,1.583,0,0,1,.361.362,2.046,2.046,0,0,1,.376-.362,2.643,2.643,0,0,1-.376-.361A1.93,1.93,0,0,1,11.217,117.589Zm-6.7,1.022a6.055,6.055,0,0,1,.187-.737l.707.219a5.284,5.284,0,0,0-.189.675Zm69.909-3.688a2.933,2.933,0,1,1,2.933,2.932A2.934,2.934,0,0,1,74.426,114.923Zm.8,0a2.133,2.133,0,1,0,2.133-2.133A2.133,2.133,0,0,0,75.227,114.921ZM4.964,117.167c.095-.234.188-.471.3-.7l.66.312-.283.643Zm31.65-1h-.043a1.564,1.564,0,0,1-1.149-.5l-.027-.026a1.678,1.678,0,0,1,.027-2.373l5.523-5.521a1.035,1.035,0,0,1,.722-.3,1,1,0,0,1,.7.3l.266.249,1.146-1.146A7.545,7.545,0,0,1,54.451,96.2h0a7.545,7.545,0,1,1-10.215,11.108l-1.144,1.146.249.267a1,1,0,0,1,.3.7,1.034,1.034,0,0,1-.3.723l-5.522,5.521a1.674,1.674,0,0,1-1.2.5Zm-.74-2.443a1.049,1.049,0,0,0-.314.752,1.065,1.065,0,0,0,1.05,1.049,1.052,1.052,0,0,0,.752-.313l4.708-4.627-1.491-1.569Zm5.522-5.523-.314.313,1.489,1.49.314-.314a.365.365,0,0,0,.11-.268.325.325,0,0,0-.11-.25l-.973-.971a.312.312,0,0,0-.251-.11h-.009A.353.353,0,0,0,41.4,108.205Zm1.034-6.448a6.9,6.9,0,1,0,6.9-6.9A6.9,6.9,0,0,0,42.431,101.758ZM5.607,115.8c.125-.22.266-.423.408-.643l.611.407a6.716,6.716,0,0,0-.376.6ZM21.8,114.749l.563-.471.393.518-.58.423Zm-15.357-.21c.156-.2.328-.392.5-.58l.533.5a6.5,6.5,0,0,0-.452.536Zm96.731-.746.313-.691a12.867,12.867,0,0,0,5.146.958,16.284,16.284,0,0,0,2.587-.2l.127.737a15.756,15.756,0,0,1-2.714.22c-.114,0-.229,0-.344,0A13.309,13.309,0,0,1,103.175,113.793Zm-82.358-.035.485-.55c.192.164.375.337.55.517l-.517.518ZM7.49,113.429c.173-.17.376-.343.563-.5l.469.563a4.993,4.993,0,0,0-.533.471Zm15.993.086a.369.369,0,0,1-.18-.33,1.1,1.1,0,0,0-1.1-1.1.369.369,0,0,1,0-.737,1.1,1.1,0,0,0,1.1-1.1.369.369,0,0,1,.738,0,1.1,1.1,0,0,0,1.1,1.1.369.369,0,0,1,0,.737,1.1,1.1,0,0,0-1.1,1.1.369.369,0,0,1-.558.33Zm-.181-1.79a1.366,1.366,0,0,1,.362.361,1.589,1.589,0,0,1,.375-.361,2.091,2.091,0,0,1-.374-.373A1.588,1.588,0,0,1,23.3,111.725Zm78.23.905.58-.471a3.377,3.377,0,0,0,.675.58l-.409.628A3.47,3.47,0,0,1,101.532,112.631Zm.338-2.742v-6.007L97.9,101.905a.347.347,0,0,1-.157-.174l-.01-.019a.362.362,0,0,1,.166-.482l10.608-5.3a.35.35,0,0,1,.347,0l10.6,5.3a.341.341,0,0,1,.159.174l-.049-.046.01.019a.361.361,0,0,1-.167.482l-1.318.66v5.506a1.131,1.131,0,0,1,.439,1.868l.752,1.724a.408.408,0,0,1,0,.14.377.377,0,0,1-.376.378h-2.275a.252.252,0,0,1-.141,0,.378.378,0,0,1-.2-.486l.674-1.711a1.217,1.217,0,0,1-.266-.423,1.144,1.144,0,0,1,.69-1.443v-5.131l-1.9.941v6.006c0,1.85-2.981,3.419-6.809,3.419S101.87,111.8,101.87,109.888Zm.711,0c0,1.285,2.431,2.65,6.055,2.65s6.054-1.364,6.054-2.65v-.267a10.787,10.787,0,0,1-12.11-.047Zm14.574,1.52H118.3l-.455-1.146h-.236Zm-14.574-3.4c0,1.269,2.431,2.65,6.055,2.65s6.054-1.379,6.054-2.65v-3.75l-5.882,2.949a.441.441,0,0,1-.345,0l-5.882-2.949Zm14.762,1.13a.376.376,0,0,0,.752,0,.369.369,0,0,0-.109-.266.376.376,0,0,0-.644.266Zm-18.464-7.579,9.758,4.88,7.75-3.829-5.978-.6a2.054,2.054,0,0,1-1.772.737c-1.084,0-1.9-.5-1.9-1.144s.817-1.13,1.9-1.13a1.981,1.981,0,0,1,1.8.8l7.216.722.738-.437-9.758-4.879Zm8.674.063c0,.094.392.378,1.13.378s1.129-.284,1.129-.378h0c0-.1-.4-.376-1.133-.376S107.553,101.528,107.553,101.621ZM19.7,112.881l.393-.612.627.439-.44.581Zm-11.038-.418.625-.409.377.627a6.7,6.7,0,0,0-.6.376Zm9.8-.243.314-.661.675.332-.362.643C18.888,112.424,18.683,112.313,18.464,112.22Zm-8.5-.464.692-.3.282.674c-.22.078-.439.189-.643.285Zm7.191-.024.2-.706.721.235-.25.691Zm-5.8-.61.737-.2.172.707-.674.188Zm4.406.322.094-.737.752.125-.157.722Zm-2.931-.687.754-.094.046.721-.69.079Zm1.519.586v-.721h.707v.721ZM45.5,106.572a.318.318,0,0,1,.392-.5,5.522,5.522,0,0,0,7.78-7.751.319.319,0,0,1,.5-.392l-.014,0a6.166,6.166,0,0,1-8.661,8.645Zm-.753-.887a.329.329,0,0,1-.25-.124,6.161,6.161,0,0,1-1.119-5.287,5.547,5.547,0,0,0,1.556,4.972.313.313,0,0,1,0,.44.279.279,0,0,1-.187,0Zm.242-2.238a.329.329,0,0,1,.439-.486.659.659,0,0,0,.471.188.7.7,0,0,0,.706-.706V100.01a.315.315,0,0,1,.328-.3h0a.317.317,0,0,1,.314.316v2.414a1.35,1.35,0,0,1-1.35,1.35A1.39,1.39,0,0,1,44.988,103.446Zm6.065.343a.332.332,0,0,1-.33-.33V100.01a.312.312,0,0,1,.329-.3H52.09a1,1,0,0,1,1,1,.985.985,0,0,1-.221.628h.08a1.314,1.314,0,0,1,.563,1.1,1.363,1.363,0,0,1-1.349,1.351Zm.391-.645h.723l0,0a.705.705,0,0,0,.707-.708.722.722,0,0,0-.706-.722h-.723Zm0-2.07h.75a.361.361,0,0,0-.026-.721H51.3Zm-3.76,1.366v-1.381a1.349,1.349,0,0,1,1.35-1.349h.014a1.349,1.349,0,0,1,1.35,1.349v1.381a1.365,1.365,0,0,1-2.714,0Zm.644-1.381v1.381a.706.706,0,1,0,1.412,0v-1.381a.706.706,0,0,0-1.412,0Zm20.046-1.123a4.189,4.189,0,0,1,2.116-7.819,4.382,4.382,0,0,1,.895.094l3.625-3.624-4.442-4.443L69.611,84a.247.247,0,0,1-.189-.094l-2.228-2.1-.908-.911a.325.325,0,0,1,0-.455l1.821-1.819a.328.328,0,0,1,.455,0l3.027,3.029a.264.264,0,0,1,.095.187l.142.957,4.437,4.442,1.3-1.3A5.478,5.478,0,0,1,84.5,78.842a.314.314,0,0,1,.2.22.3.3,0,0,1,0,.3L81.566,82.5l.564,2.133,2.1.55,3.137-3.137a.313.313,0,0,1,.518.125,5.361,5.361,0,0,1,.189,2.98A5.477,5.477,0,0,1,80.8,89.1L80.4,89.5l7.155,7.137a2.26,2.26,0,0,1-1.57,3.844,2.22,2.22,0,0,1-1.569-.66l-6.45-6.449a.329.329,0,1,1,.455-.455l6.45,6.449a1.608,1.608,0,0,0,2.274-2.275l-7.14-7.136L74.57,95.4a4.239,4.239,0,0,1-1.129,3.859,4.192,4.192,0,0,1-5.067.68Zm-.752-5.413a3.489,3.489,0,1,0,6.41.86.335.335,0,0,1,0-.314l6.591-6.557a.31.31,0,0,1,.344,0,4.886,4.886,0,0,0,1.883.376,4.78,4.78,0,0,0,3.42-1.412,4.844,4.844,0,0,0,1.285-4.5l-2.9,2.9a.3.3,0,0,1-.3,0L81.86,85.2a.267.267,0,0,1-.219-.221L81,82.579l-1.774-1.773a4.818,4.818,0,0,0-.816,5.069.31.31,0,0,1,0,.344l-6.572,6.576a.327.327,0,0,1-.315.077,3.489,3.489,0,0,0-3.9,1.651Zm.355-12.869,1.883,1.741.941.125a.371.371,0,0,1,.188.094l4.457,4.6.454-.454-4.517-4.518a.352.352,0,0,1-.094-.189l-.125-.941-1.821-1.819Zm14.747-2.465a4.772,4.772,0,0,0-3.135,1.193l1.569,1.569,2.666-2.668a5.076,5.076,0,0,0-1.1-.125ZM67.036,80.728l.455.455,1.363-1.365-.454-.454ZM47.342,95.943a6.162,6.162,0,0,0-3.965,4.33A5.547,5.547,0,0,1,47.342,95.943Zm69.827,3.5.346-.674.752.376-.328.676Zm-47.6-.362-1.82-1.819a.282.282,0,0,1-.094-.3l.674-2.5a.282.282,0,0,1,.221-.219l2.493-.675a.33.33,0,0,1,.314,0l1.82,1.817-.077.083a.323.323,0,0,1,.077.313L72.5,98.279a.281.281,0,0,1-.22.22l-2.495.675A.318.318,0,0,1,69.57,99.08Zm-.689-4.364-.563,2.133,1.568,1.571,2.134-.565.53-2.087L70.98,94.2ZM85.3,99,80.6,94.291a.33.33,0,0,1,.455-.455l4.707,4.628v.078a.327.327,0,0,1,.058.349.331.331,0,0,1-.294.2A.318.318,0,0,1,85.3,99Zm25.447-2.764.346-.676,5.678,2.84-.345.676ZM86.231,97.97l-6.45-6.449a.328.328,0,0,1,0-.455.269.269,0,0,1,.042-.042.283.283,0,0,1,.4.042l6.463,6.48v-.032a.33.33,0,0,1-.235.55A.305.305,0,0,1,86.231,97.97Zm-33.483-.631a5.553,5.553,0,0,0-5.407-1.393,6.159,6.159,0,0,1,5.8.957v-.064a.319.319,0,1,1-.392.5Zm-36.46-1.4V88.095a2.434,2.434,0,0,0,0-.832,1.067,1.067,0,0,0-1.114-.675h-.1V84.83c0-.14.235-.14.235-.14h0a5.712,5.712,0,0,0,2.337-1.679h2.023V95.938Zm-5.759,0V88.095a3.671,3.671,0,0,0,0-.832,1.1,1.1,0,0,0-1.13-.675H9.305V84.83c0-.14.236-.14.236-.14v0a5.71,5.71,0,0,0,2.4-1.678h2.009V95.938Zm-5.772-.03V88.061a3.562,3.562,0,0,0,0-.831,1.1,1.1,0,0,0-1.129-.675H3.534V84.8l.236-.109v0a5.7,5.7,0,0,0,2.4-1.678H8.24v12.9Zm17.24,0V88.064a2.434,2.434,0,0,0,0-.832,1.066,1.066,0,0,0-1.113-.675h-.094V84.8l.282-.11v0a5.656,5.656,0,0,0,2.416-1.679H25.5v12.9Zm51.954-2.253-.912-.909a.33.33,0,0,1,0-.455l4.707-4.707a.33.33,0,0,1,.6.115.331.331,0,0,1-.147.34l-4.532,4.535.455.455,4.6-4.535a.327.327,0,0,1,.455,0h-.062a.332.332,0,0,1,0,.455l-4.707,4.705a.32.32,0,0,1-.454,0Zm5.815-.287-.925-.911A.326.326,0,1,1,79.31,92l.895.909a.132.132,0,0,1,.019.02.316.316,0,0,1-.151.533.3.3,0,0,1-.069.008A.319.319,0,0,1,79.766,93.368Zm33.016-7.274h-8.409a6.714,6.714,0,0,1-6.71-6.713v-.862a8.807,8.807,0,0,1,4.581-7.659,8.636,8.636,0,0,0,3.264-3.324.49.49,0,0,0-.158-.314l-.423-.486a6.91,6.91,0,0,1-.989-1.3,4.261,4.261,0,0,1-.518-1.678,2.056,2.056,0,0,1,.454-1.679,1.167,1.167,0,0,1,1.051-.3,5.073,5.073,0,0,1,1.161.409l.393.186h.2a4.3,4.3,0,0,0,1.569.44,3.412,3.412,0,0,0,1.57-.424l.5-.251.314-.172h.108a1.8,1.8,0,0,1,1.409-.271,1.082,1.082,0,0,1,.628.66,5.248,5.248,0,0,1,.172,2.321,5.557,5.557,0,0,1-1.083,2.51l-.094.173a.4.4,0,0,0,0,.268A8.521,8.521,0,0,0,115.1,70.9l.063-.012a8.767,8.767,0,0,1,4.454,7.624v.99a6.713,6.713,0,0,1-6.71,6.589Zm-6.368-17.978A9.556,9.556,0,0,1,102.7,71.88a7.676,7.676,0,0,0-3.845,6.636l0,.878a5.6,5.6,0,0,0,5.585,5.585h8.409a5.6,5.6,0,0,0,5.585-5.585l-.013-.015v-.862a7.642,7.642,0,0,0-4.05-6.62,9.646,9.646,0,0,1-3.686-3.718,1.161,1.161,0,0,1-.125-.282l-.517.11h-2.965l-.552-.11A.922.922,0,0,1,106.414,68.117Zm-1.79-4.6a3.474,3.474,0,0,0,.376,1.24h.014a5.984,5.984,0,0,0,.863,1.08l.455.518a1.473,1.473,0,0,1,.188.345h.236l.532.094h2.745l.533-.094h.266a1.674,1.674,0,0,1,.187-.314,4.086,4.086,0,0,0,.865-1.991,3.93,3.93,0,0,0-.094-1.694,2.4,2.4,0,0,0-.455.2h-.125l-.312.158-.533.266a4.466,4.466,0,0,1-2.071.534,5.669,5.669,0,0,1-1.962-.517h-.187l-.454-.2a3.472,3.472,0,0,0-.879-.312h-.094A1.264,1.264,0,0,0,104.624,63.515ZM36.082,84.771a.322.322,0,0,1-.149-.3V74.137h-.706a.331.331,0,0,1-.238-.1A.335.335,0,0,1,34.9,73.8a.278.278,0,0,1,0-.067.3.3,0,0,1,.025-.091.236.236,0,0,1-.005-.027V73.6a.31.31,0,0,1,.1-.219.319.319,0,0,1,.228-.081h1.381V72.37a.382.382,0,0,1,.016-.077v-.059a.313.313,0,0,1,.314-.312H39.2v-.588a.266.266,0,0,1,.014-.067v-.05a.331.331,0,0,1,.329-.33h.017a.316.316,0,0,1,.218.1.31.31,0,0,1,.083.227v.706h.717a.312.312,0,0,1,.317.31v1.177h1.049a.7.7,0,0,1,0-.237L41.722,71.4a.62.62,0,0,1,.157-.518.794.794,0,0,1,.518-.235H45.52V70.52a1.049,1.049,0,0,0-.675-.973l-.43-.169-.825-.316L42.32,70.1a.326.326,0,0,1-.114.013.345.345,0,0,1-.09-.013.4.4,0,0,1-.221,0l-1.343-1.044-.643.243-.65.254A1.01,1.01,0,0,0,39,69.7a1.069,1.069,0,0,0-.4.824v.44a.313.313,0,0,1-.2.289.337.337,0,0,1-.134.038.345.345,0,0,1-.329-.331v-.438a1.661,1.661,0,0,1,1.082-1.569l1.444-.565a.377.377,0,0,0,.234-.346v-.706a2.058,2.058,0,0,1-.689-1.569V64.732a1.693,1.693,0,0,1,1.694-1.695h.711a1.725,1.725,0,0,1,1.7,1.7v1.036a2.034,2.034,0,0,1-.69,1.569v.721a.366.366,0,0,0,.064.205.382.382,0,0,0,.155.122l1.187.464.274.1a1.677,1.677,0,0,1,1.081,1.569v.108H46.5a.645.645,0,0,1,.5.237.629.629,0,0,1,.158.517l-.22,1.759a1.264,1.264,0,0,1,0,.248h1.049v-2.4a1.127,1.127,0,0,1,.5-.939c.03-.021.059-.042.091-.06l1.224-.707a.247.247,0,0,0,.108-.19v-.518a2.039,2.039,0,0,1-.895-1.695v-.689a1.77,1.77,0,0,1,.018-.25,2.023,2.023,0,0,1,.766-1.535v-.017a1.484,1.484,0,0,1,.015-.154v-.062a1.177,1.177,0,0,1,2.354,0,1.128,1.128,0,0,1,0,.221,2.024,2.024,0,0,1,.895,1.756v.692a2.04,2.04,0,0,1-.895,1.678V69.1a.22.22,0,0,0,.142.109l1.239.706a1.148,1.148,0,0,1,.58,1v2.4h2.434a.311.311,0,0,1,.312.314.522.522,0,0,1-.345.454h-.689v.58a.38.38,0,0,1-.016.072v.069a.315.315,0,0,1-.315.314.328.328,0,0,1-.329-.328v-.707H36.592V80.54h18.59V76.175a.34.34,0,1,1,.659-.138V84.29a.453.453,0,0,1-.015.069v.115a.322.322,0,0,1-.644,0V81.337H36.592V84.29a.308.308,0,0,1-.015.069v.133a.323.323,0,0,1-.323.328A.318.318,0,0,1,36.082,84.771Zm6.611-11.7a.392.392,0,0,0,.377.329H46a.361.361,0,0,0,.361-.329l.2-1.571.008-.066H42.488Zm10.164-.832V73.4h.721l-.105-2.294a.521.521,0,0,0-.25-.439l-.565-.313-1.427.987a.311.311,0,0,1-.376,0l-1.427-.987-.564.313a.517.517,0,0,0-.235.319v2.321h.722v-.931a.257.257,0,0,1,.015-.077v-.059a.321.321,0,0,1,.642,0v1.067h2.161V72.241a.346.346,0,0,1,.69,0ZM37.313,73.4h3.123v-.7H37.313ZM50.6,69.1a.717.717,0,0,1-.018.122.878.878,0,0,1-.437.7l.894.625.989-.69v0a.877.877,0,0,1-.439-.753v-.274a2.051,2.051,0,0,1-.988,0Zm-9.179-1.13a.867.867,0,0,1-.023.2H41.4a.958.958,0,0,1-.165.468l.9.711.86-.685a1.011,1.011,0,0,1-.186-.574v-.329a2.044,2.044,0,0,1-1.4,0Zm8.272-1.949a1.02,1.02,0,0,0,0,.128v.693a1.395,1.395,0,0,0,2.769.241c0-.039.006-.079.006-.121V66.7a5.616,5.616,0,0,1-2.68-.955A1.2,1.2,0,0,0,49.693,66.025Zm-8.947-.3a1.4,1.4,0,0,0,1.4,1.4h0a1.4,1.4,0,0,0,1.371-1.156c0-.039.005-.077.005-.119v-.376a7.341,7.341,0,0,1-2.776-.7Zm9.51-.587a5.087,5.087,0,0,0,2.16.787,1.409,1.409,0,0,0-1.346-1.049A1.445,1.445,0,0,0,50.256,65.142Zm-9.221-1.084a6.727,6.727,0,0,0,2.443.633,1.063,1.063,0,0,0-1.036-.924v0H41.75A1.044,1.044,0,0,0,41.035,64.058Zm9.54.117a2.287,2.287,0,0,1,.982-.007.548.548,0,0,0-.487-.322h0A.531.531,0,0,0,50.576,64.174Zm57.411,19.2V81.993a4.283,4.283,0,0,1-2.01-.642l-.125-.095.471-1.318.22.157a3.473,3.473,0,0,0,1.85.439c.848,0,1.427-.5,1.427-1.129s-.408-1.051-1.411-1.46c-1.255-.486-2.4-1.129-2.4-2.556a2.431,2.431,0,0,1,2.071-2.244v-1.4h1.272v1.335a3.542,3.542,0,0,1,1.678.518h.125l-.456,1.3-.2-.124a3.05,3.05,0,0,0-1.647-.456c-.909,0-1.239.424-1.239.974s.361.862,1.569,1.38v.11c1.584.644,2.259,1.443,2.259,2.683a2.432,2.432,0,0,1-.613,1.569,2.879,2.879,0,0,1-1.569.878v1.46ZM44.52,72.716a.328.328,0,0,1-.249-.25.322.322,0,0,1-.006-.05.326.326,0,0,1-.047-.159.315.315,0,0,1,.314-.314h.018a.324.324,0,0,1,.311.314.311.311,0,0,1-.018.1.306.306,0,0,1,.009.047.323.323,0,0,1-.321.313Zm29.795-3.609a.361.361,0,0,1-.346-.376V67.272a.361.361,0,0,1,.361-.36h1.835V52.637h-6.43L71.3,55.931h.11a.739.739,0,0,0,.724-.738h.737a1.459,1.459,0,0,1-1.239,1.444l.11.235-.675.3-.142-.329a.748.748,0,0,0-.25.55v.361H71.4a.362.362,0,0,1,.345.376v1.192a3.17,3.17,0,0,1,.392.221,3.291,3.291,0,0,1,.878,4.549h.925a.273.273,0,0,1,.157,0l.037.018a.35.35,0,0,1,.165.207.34.34,0,0,1-.03.263l-.737,1.459a.359.359,0,0,1-.328.2H67.351a.361.361,0,0,1-.33-.2l-.737-1.459a.58.58,0,0,1,0-.176.363.363,0,0,1,.268-.424h.941a1.885,1.885,0,0,1-.236-.392l-.009-.015a3.281,3.281,0,0,1,1.578-4.361V58.127a.376.376,0,0,1,.376-.376h.722V57.39a1.458,1.458,0,0,1,.675-1.225l-1.4-3.027-1.868,4.05-.674-.315,1.96-4.235h-1.57a.378.378,0,0,1-.376-.378V51.54a.363.363,0,0,1,.33-.361l6.855-.722,1.349-1.019,1.8-2.165a.391.391,0,0,1,.534,0l1.8,2.165,1.35,1.019,6.854.722a.361.361,0,0,1,.33.361v.723l-.05,0a.377.377,0,0,1-.376.376H85.892l1.945,4.235-.658.314-1.868-4.047-1.85,4.047-.676-.314,1.962-4.235H78.362V66.911H80.2a.361.361,0,0,1,.361.361v1.474a.361.361,0,0,1-.363.361Zm.393-.825h5.115v-.738H74.708Zm2.2-1.46.721.094V52.642H76.9Zm-9.3-1.382h5.414l.36-.721H67.241Zm.924-1.458H72.1l.033-.032a2.572,2.572,0,0,0-.033-3.638c-.028-.03-.055-.056-.085-.084a2.56,2.56,0,0,0-3.621.132l0,0A2.562,2.562,0,0,0,68.526,63.983Zm2.464-5.036v-.456H69.531v.456a3.255,3.255,0,0,1,1.459,0Zm-3.61-7.091,8.676.174a2.181,2.181,0,0,1-.957-1.57l-.91.69a.337.337,0,0,1-.189,0Zm11.1.047h8.672v-.047l-6.621-.832a.331.331,0,0,1-.187,0l-.909-.69A2.179,2.179,0,0,1,78.476,51.9Zm-2.669-2.055v.238a1.46,1.46,0,0,0,1.46,1.458h.016a1.46,1.46,0,0,0,1.443-1.475v-.218l-1.462-1.76ZM.157,67.882A.459.459,0,0,1,0,67.537V62.5a1.335,1.335,0,0,1,.831-1.238l1.13-.58a.5.5,0,0,0,.3-.455v-.3a2.276,2.276,0,0,1-.91-1.8v-.912a1.789,1.789,0,0,1,1.788-1.79h.888a1.788,1.788,0,0,1,1.788,1.789v.909a2.276,2.276,0,0,1-.909,1.868v.3a.5.5,0,0,0,.3.454l.69.267a1.771,1.771,0,0,1,.958-1.318l1.364-.675a.439.439,0,0,0,.266-.424v-1.05a2.743,2.743,0,0,1-.909-2.023v-.895a2.716,2.716,0,0,1,1.412-2.37,1.425,1.425,0,0,1,0-.361,1.333,1.333,0,1,1,2.65,0,1.425,1.425,0,0,1,0,.361,2.665,2.665,0,0,1,1.4,2.338v.893a2.728,2.728,0,0,1-.895,2.024v1.05a.442.442,0,0,0,.267.424l.3.156a1.726,1.726,0,0,1,1.036-1.223l1.947-.817a.91.91,0,0,0,.564-.847V54.982a3.137,3.137,0,0,1-.91-2.244V51.374a3.138,3.138,0,0,1,6.276,0v1.4a3.137,3.137,0,0,1-.895,2.211V56.21a.908.908,0,0,0,.565.847l1.945.815a1.772,1.772,0,0,1,1.1,1.663V61.1l2.6-.659-1.318-.361a.44.44,0,0,1-.3-.518.15.15,0,0,0,0-.016.423.423,0,0,1,.528-.282l2.856.785a.437.437,0,0,1,.3.3l.05-.122a.425.425,0,0,1-.109.424l-2.134,2.071a.417.417,0,0,1-.3.124.39.39,0,0,1-.3-.141.423.423,0,0,1,0-.6l.987-.958L.533,67.882H.424A.542.542,0,0,1,.29,67.9.534.534,0,0,1,.157,67.882Zm.959-5.9a.485.485,0,0,0-.3.438V67l17.257-4.346.062-3.435-1.883-1.444-.173.094-2.039.815a.925.925,0,0,0-.581.863v2.9a.423.423,0,0,1-.847,0V60l-.236-.125a2.635,2.635,0,0,1-4.094,0L7.2,60.43a.926.926,0,0,0-.516.833v3.012a.423.423,0,1,1-.847,0V61.921l-.675-.282-1.381.894a.5.5,0,0,1-.22,0,.574.574,0,0,1-.235,0l-1.364-.894Zm17.807-2.761v3.183l4.565-1.145V59.552a.908.908,0,0,0-.58-.862l-1.945-.816-.173-.094ZM2.795,61.088l.8.5.785-.5a1.288,1.288,0,0,1-.314-.785,2.419,2.419,0,0,1-.471,0,2.436,2.436,0,0,1-.486,0A1.286,1.286,0,0,1,2.795,61.088Zm6.637-2.553a1.366,1.366,0,0,1-.376.941l.022.022a1.838,1.838,0,0,0,2.6-.022v0a1.364,1.364,0,0,1-.378-.94v-.55a2.6,2.6,0,0,1-1.868,0Zm-7.216-.412a1.381,1.381,0,0,0,2.761,0v-.611a2.842,2.842,0,0,1-1.381.361,2.791,2.791,0,0,1-1.381-.361Zm14.906-1.929a1.776,1.776,0,0,1-.3.973L18.5,58.455l1.664-1.288a1.753,1.753,0,0,1-.283-.973v-.659a3.058,3.058,0,0,1-2.761,0Zm-8.582-.735.079.032a1.835,1.835,0,1,0,3.655,0V55.1a3.658,3.658,0,0,1-.6,0,7.272,7.272,0,0,1-3.138-.769ZM4.772,56.7a.942.942,0,0,0-.737-.361H3.141A.945.945,0,0,0,2.4,56.7a2.021,2.021,0,0,0,1.192.377A1.971,1.971,0,0,0,4.772,56.7Zm12.52-7.458a2.29,2.29,0,0,0-1.084,2.139v1.365a2.23,2.23,0,0,0,0,.38,2.291,2.291,0,0,0,4.566-.38V51.377a2.291,2.291,0,0,0-3.482-2.139Zm-8.439,4.37a5.987,5.987,0,0,0,3.31.675,1.837,1.837,0,0,0-1.8-1.569l.058.076h-.045A1.819,1.819,0,0,0,8.852,53.608Zm1.992-1.758v-.032a.47.47,0,0,0-.486-.454v.016a.47.47,0,0,0-.471.47,2.57,2.57,0,0,1,.471,0q.122-.012.243-.012A2.425,2.425,0,0,1,10.844,51.85ZM80.937,65.976,80.2,64.519a.334.334,0,0,1,0-.174.362.362,0,0,1,.361-.361h1.805V62.652A3.552,3.552,0,0,1,80.8,61.177a3.325,3.325,0,0,1-2.072-3.043v-.377A.375.375,0,0,1,79.1,57.4h8.788a.358.358,0,0,1,.359.361v.377a3.278,3.278,0,0,1-2.085,3.091A3.511,3.511,0,0,1,84.594,62.7v1.333h3.294a.3.3,0,0,1,.156,0l.007,0a.359.359,0,0,1,.166.483l-.737,1.457a.358.358,0,0,1-.321.2h-5.9A.359.359,0,0,1,80.937,65.976Zm.58-.548h5.476l.3-.722H81.157Zm1.6-1.459h.737v-1.13h0a1.943,1.943,0,0,1-.735,0Zm-2.2-5.116a2.65,2.65,0,1,0,5.13,0v-.722h-5.13Zm5.865,0h.046a4.305,4.305,0,0,1-.156,1.192,2.507,2.507,0,0,0,.832-1.914h-.722Zm-6.447,1.192a5.114,5.114,0,0,1-.141-1.192v-.722h-.737A2.56,2.56,0,0,0,80.342,60.046Zm.957-4.122V55.19h-.734v-.737H81.3v-.715h.737v.715h.715v.737h-.715v.734Zm0-.737h.711v-.713H81.3Zm-8.225-.319.738-.361.314.66-.723.361Zm-.946-.035V54.1h.737v.737Zm34.237-.553a.922.922,0,1,1,.344.067A.925.925,0,0,1,106.369,54.28Zm.046-.858a.283.283,0,1,0,.282-.282A.283.283,0,0,0,106.415,53.422Zm-3.806-.017a.33.33,0,0,1-.1-.233v-.11a.329.329,0,0,1,.329-.329h.016a.308.308,0,0,1,.218.1.314.314,0,0,1,.083.228v.125a.315.315,0,0,1-.314.314A.339.339,0,0,1,102.609,53.405ZM36,53.208a1.1,1.1,0,0,1-1.084-1.113V39.89a1.569,1.569,0,0,1,.581-1.193l1.475-1.13V33.99a.657.657,0,0,1,.658-.658h4.818l1.13-.895a3.81,3.81,0,0,1,4.612,0l1.13.895h4.819a.658.658,0,0,1,.659.658v3.577l1.475,1.13a1.576,1.576,0,0,1,.58,1.193V52.109a1.1,1.1,0,0,1-1.1,1.1Zm6.085-6.635a.312.312,0,0,1,0,.438l-6.526,5.068a.472.472,0,0,0,.456.47H55.761a.472.472,0,0,0,.456-.47l-6.525-5.068a.312.312,0,0,1,0-.438.327.327,0,0,1,.455,0l6.133,4.705-.141-10.762-8.015,6.275a3.78,3.78,0,0,1-4.612,0l-8.017-6.275V51.278l6.133-4.705a.328.328,0,0,1,.455,0Zm1.87-.285a3.136,3.136,0,0,0,3.829,0l2.528-1.958h-.33a.316.316,0,0,1-.314-.314.332.332,0,0,1,.329-.33h1.147l3-2.322v-7.31H37.617l0,7.294,3,2.323h8.081a.346.346,0,0,1,.328.329.33.33,0,0,1-.408.331H41.429Zm-8.379-6.527,1.4,1.1V38.446l-1.082.847v-.032A.854.854,0,0,0,35.573,39.761Zm19.22,1.054,1.394-1.1a.852.852,0,0,0-.312-.5l-1.082-.849Zm-10.827-7.8-.407.377h4.706l-.472-.377a3.14,3.14,0,0,0-3.828,0Zm59.054,19.676a.331.331,0,0,1,0-.371.325.325,0,0,1,.344-.136h.11a.328.328,0,0,1,.257.32.332.332,0,0,1-.257.322h-.11a.305.305,0,0,1-.07.008A.331.331,0,0,1,103.021,52.693Zm-1,.134a.325.325,0,0,1-.252-.221.329.329,0,0,1,.393-.421h.125a.315.315,0,0,1,.316.314h.077a.329.329,0,0,1-.329.328h-.189a.282.282,0,0,1-.141,0ZM10.416,52.79h0v0Zm103.937-.148a.33.33,0,1,1,0-.66h.079a.33.33,0,0,1,.328.314.347.347,0,0,1-.314.346Zm-1.211-.158-.025-.005a.314.314,0,0,1-.241-.373.327.327,0,0,1,.376-.265h.032a.328.328,0,0,1,.257.32.332.332,0,0,1-.257.322Zm2.337-.017h0a.318.318,0,0,1-.078-.628h.063a.335.335,0,0,1,.068-.021.33.33,0,1,1,.12.65Zm-12.638-.183a.33.33,0,0,1-.329-.329v-.111a.33.33,0,0,1,.329-.329h.016a.314.314,0,0,1,.218.1.31.31,0,0,1,.083.227v.141a.317.317,0,0,1-.317.314Zm2.716-.765a3.535,3.535,0,0,1-.958.172.7.7,0,0,1-.69-.329c-.2-.361.048-.847.753-1.49a2.973,2.973,0,0,1,.079-1.334,2.83,2.83,0,0,1,1.4-1.756,2.977,2.977,0,0,1,1.223-.361.329.329,0,0,1,.345.3v.016a.312.312,0,0,1-.3.328,2.515,2.515,0,0,0-.957.284,2.314,2.314,0,0,0-1.1,1.365,2.483,2.483,0,0,0,.408,2.07,15.215,15.215,0,0,0,3.953-2.182c-.046-.122-.1-.243-.157-.361a2.288,2.288,0,0,0-.957-.924.329.329,0,0,1,.3-.58,3.623,3.623,0,0,1,.627.455c.926-.266,1.474-.3,1.678.141s-.046.925-.75,1.567l-.031-.061a2.95,2.95,0,0,1-2.872,3.45A3,3,0,0,1,105.557,51.519Zm2.574-1.033a15.956,15.956,0,0,1-1.821.864,2.2,2.2,0,0,0,.608.28,2.255,2.255,0,0,0,1.742-.2h-.012a2.275,2.275,0,0,0,1.192-2.021A14.071,14.071,0,0,1,108.131,50.486Zm-3.587.568a1.687,1.687,0,0,0,.571,0,.958.958,0,0,1-.125-.2,1.438,1.438,0,0,1-.11-.2A1.8,1.8,0,0,0,104.545,51.053Zm5.45-3.251.125.2c.031.077.109.22.109.22h0a1.85,1.85,0,0,0,.335-.427,2.149,2.149,0,0,0-.274-.018A2.176,2.176,0,0,0,109.994,47.8Zm1.964,4.478a.328.328,0,0,1,.188-.628h.078a.32.32,0,0,1-.078.628Zm4.633-.34a.311.311,0,0,1-.268-.142l-.018-.018a.3.3,0,0,1,.018-.42l.048.079a.286.286,0,0,1,.1-.079.329.329,0,1,1,.311.58.421.421,0,0,1-.094.01A.4.4,0,0,1,116.591,51.941Zm-5.746-.1-.018-.006a.314.314,0,0,1-.153-.417.328.328,0,0,1,.423-.173v-.032a.343.343,0,0,1,.173.424.329.329,0,0,1-.3.2Zm-9.655-.283a.325.325,0,0,1-.324-.314V51.12a.314.314,0,0,1,.314-.314h.017a.308.308,0,0,1,.221.094.313.313,0,0,1,.091.221v.125a.323.323,0,0,1-.311.313Zm7.455-.134h0l0,0Zm8.44-.415a.329.329,0,0,1-.109-.438l.009-.017a.313.313,0,0,1,.43-.108l-.014-.032a.33.33,0,0,1,.139.439.345.345,0,0,1-.282.157.357.357,0,0,1-.087.011A.35.35,0,0,1,117.086,51.01Zm-16.552-.077v0a.329.329,0,1,1,0-.659h.11a.345.345,0,0,1,.328.3l.015.032a.345.345,0,0,1-.329.329Zm.841-.167a.325.325,0,0,1,0-.371.329.329,0,0,1,.344-.136h.127a.313.313,0,0,1,.312.313h.015a.33.33,0,0,1-.329.33h-.125a.343.343,0,0,1-.074.008A.327.327,0,0,1,101.375,50.766Zm-.2-.406a.313.313,0,0,1-.305-.312v-.133a.314.314,0,1,1,.627.023v.126a.313.313,0,0,1-.313.3Zm-.006,0h.006Zm16.267-.442a.328.328,0,1,1,.268-.6l-.061-.094.025,0a.3.3,0,0,1,.224.356v.094a.334.334,0,0,1-.023.072.33.33,0,0,1-.3.2A.32.32,0,0,1,117.434,49.919Zm-5.445-.5a.316.316,0,0,1-.314-.284.341.341,0,0,1-.006-.054.3.3,0,0,1,.29-.306l.021,0a.314.314,0,0,1,.339.285.33.33,0,0,1-.283.361Zm.814-.463a.326.326,0,0,1,.257-.35.345.345,0,0,1,.392.25.329.329,0,0,1-.249.376h-.158l.076.017A.324.324,0,0,1,112.8,48.961Zm1.058-.193a.343.343,0,0,1,.235-.407.317.317,0,1,1,.174.61h-.094V49A.329.329,0,0,1,113.861,48.768Zm-10.041.054h-.188a.32.32,0,1,1,.188-.611h.094a.293.293,0,0,1,.19.15.3.3,0,0,1,.014.241v-.015a.3.3,0,0,1-.292.235Zm11.465-.192a.332.332,0,0,1-.3-.2.347.347,0,0,1,.2-.423.318.318,0,0,1,.221.6l-.11.031Zm2.393-.022a2.228,2.228,0,1,1,2.235-2.244V46.4a2.227,2.227,0,0,1-2.227,2.211Zm.147-.612a1.568,1.568,0,0,0,1.569-1.57v0a.741.741,0,0,0,0-.173,2.923,2.923,0,0,1-1.05,1.35.334.334,0,0,1-.188,0,.3.3,0,0,1-.25-.142l-.015-.021a.313.313,0,0,1,.094-.433,2.631,2.631,0,0,0,1-1.711,1.566,1.566,0,0,0-2.714,1.068,1.786,1.786,0,0,0,0,.5,1.979,1.979,0,0,0,1.3-.973.343.343,0,0,1,.437-.11h0a.329.329,0,0,1,.107.454,2.688,2.688,0,0,1-1.569,1.208,1.566,1.566,0,0,0,1.146.486Zm-15.307.4.079-.032-.008,0a.313.313,0,0,1-.181-.4.325.325,0,0,1,.628.147.329.329,0,0,1-.314.293Zm-.88-.437a.242.242,0,0,1-.143,0,.33.33,0,1,1,.3-.581.22.22,0,0,1,.032.017.3.3,0,0,1,.109.407.311.311,0,0,1-.282.187Zm-1.241-.671-.079-.141a.313.313,0,0,1,0-.439l.018-.018a.3.3,0,0,1,.422.018.344.344,0,0,1,.1.465.341.341,0,0,1-.461.115Zm4.234-.1a.343.343,0,0,1-.235-.1.33.33,0,0,1,.488-.438l-.034.077.013.013a.312.312,0,0,1,.086.224.318.318,0,0,1-.1.22.3.3,0,0,1-.221,0ZM99.7,46.616a.349.349,0,0,1-.236-.095.33.33,0,0,1,.455-.455V46.05a.332.332,0,0,1,0,.455.27.27,0,0,1-.215.11Zm3.924-.438a.329.329,0,0,1,.281-.482.334.334,0,0,1,.237.089l-.062.048a.332.332,0,0,1,0,.455.637.637,0,0,1-.1.008A.585.585,0,0,1,103.624,46.177Zm-4.68-.481a.348.348,0,0,1-.283-.156.33.33,0,0,1,.125-.44l.013-.007a.314.314,0,0,1,.427.117l-.014.047,0,.007a.313.313,0,0,1-.1.432.251.251,0,0,1-.086.014A.247.247,0,0,1,98.944,45.7Zm4.212-.182a.367.367,0,0,1-.267-.125v0a.314.314,0,0,1,.081-.437.328.328,0,0,1,.454,0,.34.34,0,0,1,0,.455l-.077.11a.46.46,0,0,1-.19,0Zm16.69-.707h-.1a.311.311,0,0,1-.212-.391.332.332,0,0,1,.394-.238l-.015-.093a.331.331,0,0,1,.236.392v.094a.3.3,0,0,1-.291.235Zm-21.567-.285v-.095a.329.329,0,0,1,.643-.109l-.063.078a.3.3,0,0,1-.227.353.324.324,0,0,1-.064.007A.294.294,0,0,1,98.279,44.523Zm4.373-.033a.34.34,0,0,1-.283-.155v.03a.313.313,0,0,1-.037-.242.328.328,0,0,1,.146-.2.321.321,0,0,1,.44.112.343.343,0,0,1-.094.454.35.35,0,0,1-.086.011A.342.342,0,0,1,102.652,44.49ZM116,44a.3.3,0,0,1-.266-.157v.047a.32.32,0,1,1,.549-.33.33.33,0,0,1-.11.44A.347.347,0,0,1,116,44Zm3.934-.336a.313.313,0,0,1-.311-.266l-.048-.079a.334.334,0,0,1,.047-.291.327.327,0,0,1,.258-.139.331.331,0,0,1,.338.319V43.3a.327.327,0,0,1-.282.361Zm-21.476-.077a.313.313,0,0,1-.238-.374v-.1a.367.367,0,1,1,.312.415l-.063.063Zm3.517-.109a.326.326,0,1,1,.3-.471l.01.017a.317.317,0,0,1,.02.24.311.311,0,0,1-.155.183l-.016.032a.32.32,0,0,1-.077.01A.276.276,0,0,1,101.979,43.479Zm13.345-.512a.319.319,0,0,1-.267-.141l-.077.077a.329.329,0,0,1,.533-.376.235.235,0,0,1-.095.454A.3.3,0,0,1,115.324,42.967Zm4.189-.357a.333.333,0,0,1-.284-.173l.015.064a.321.321,0,0,1,.55-.331l.008.017a.306.306,0,0,1,.021.239.316.316,0,0,1-.154.184.262.262,0,0,1-.078.012A.254.254,0,0,1,119.513,42.61Zm-79.455-.055a.329.329,0,0,1-.33-.329v-.016a.316.316,0,0,1,.1-.218.309.309,0,0,1,.226-.083H51.745a.315.315,0,0,1,.314.314.339.339,0,0,1-.1.235.328.328,0,0,1-.233.1ZM99.6,40.867a1.568,1.568,0,1,1,1.568,1.57A1.569,1.569,0,0,1,99.6,40.867Zm.612-.032a.973.973,0,0,0,.956.957.957.957,0,1,0-.956-.957Zm-1.348,1.434a.345.345,0,0,1-.094-.455.33.33,0,0,1,.455,0v-.14a.33.33,0,0,1,.095.438.345.345,0,0,1-.283.157Zm15.838-.141a.317.317,0,1,1,.2-.55l-.017.095a.328.328,0,0,1,0,.455.273.273,0,0,1-.093.017A.283.283,0,0,1,114.707,42.128Zm3.883-.484a.292.292,0,1,1,.454,0,.327.327,0,0,1-.227.094A.323.323,0,0,1,118.589,41.644Zm-12.69,0h-.031a.908.908,0,0,1-.893-.924.925.925,0,1,1,1.849,0v.031a.909.909,0,0,1-.909.894Zm-.283-.924a.283.283,0,0,0,.565,0h0a.29.29,0,0,0-.084-.2.285.285,0,0,0-.485.2Zm8.28.518a.34.34,0,1,1,.25-.095l-.031.095a.361.361,0,0,1-.22,0Zm-73.855-.4a.314.314,0,0,1-.313-.314.329.329,0,0,1,.328-.329h.689a.329.329,0,0,1,.315.329.316.316,0,0,1-.314.314Zm11.692,0H42.116a.314.314,0,0,1-.314-.314.329.329,0,0,1,.314-.328h9.617a.328.328,0,0,1,.328.328v.017a.312.312,0,0,1-.313.3Zm65.958-.038a.328.328,0,0,1-.077-.455.315.315,0,0,1,.437,0l.016-.125h.077a.343.343,0,0,1,0,.455.327.327,0,0,1-.266.125.409.409,0,0,1-.094.011A.415.415,0,0,1,117.691,40.8Zm-7.583-.1a2.62,2.62,0,0,1-1.244-.314.313.313,0,0,1-.2-.265.316.316,0,0,1,.478-.3,2.265,2.265,0,0,0,1.02.235,2.2,2.2,0,0,0,2.009-3.09.326.326,0,1,1,.6-.265A2.872,2.872,0,0,1,113,37.868a2.839,2.839,0,0,1-2.839,2.837Zm6.679-.363a.327.327,0,1,1,.3-.581l.015-.032a.331.331,0,0,1,.153.366.327.327,0,0,1-.31.246.305.305,0,0,1-.079.011A.293.293,0,0,1,116.787,40.343Zm-3.951-.131a.28.28,0,1,1,.221.094A.311.311,0,0,1,112.836,40.211Zm2.927-.309v0a.32.32,0,1,1,.238-.595l.079-.031a.33.33,0,0,1-.11.627Zm1.338-.172h0Zm-14.085-.01a.314.314,0,0,1-.3-.221l-.079.016a.329.329,0,0,1,.189-.408h.094a.329.329,0,0,1,.482.372.333.333,0,0,1-.28.24Zm4.681-.274A2.938,2.938,0,0,1,107.305,38h0a2.854,2.854,0,0,1,4.424-2.384.342.342,0,0,1,.094.454.326.326,0,0,1-.454,0,2.213,2.213,0,0,0-3.42,1.851,2.163,2.163,0,0,0,.312,1.111.329.329,0,0,1-.125.44.289.289,0,0,1-.157,0V39.6A.348.348,0,0,1,107.7,39.447Zm6.924,0v-.017h-.007a.312.312,0,0,1-.212-.39.328.328,0,0,1,.408-.22h.01a.314.314,0,0,1,.21.39.331.331,0,0,1-.312.237Zm-5.989-.979a.926.926,0,1,1,.925.924A.925.925,0,0,1,108.632,38.47Zm.643,0a.282.282,0,1,0,.282-.284A.282.282,0,0,0,109.275,38.47Zm-5.16.9a.33.33,0,0,1-.314-.235l-.077.015v-.009a.313.313,0,0,1,.222-.384h.093a.319.319,0,0,1,.243.03.316.316,0,0,1,.121.433.317.317,0,0,1-.193.15Zm9.4-.188.014-.016a.342.342,0,0,1-.249-.392.33.33,0,1,1,.392.408Zm-13.055-.4v-.095a.33.33,0,0,1,.66,0,.313.313,0,0,1-.314.313l-.032.11A.329.329,0,0,1,100.46,38.781Zm4.786.31h-.005a.317.317,0,0,1-.309-.25h.079a.028.028,0,0,1,0-.017.328.328,0,1,1,.38.267ZM106.4,38.9a.346.346,0,0,1-.329-.284.33.33,0,0,1,.284-.361h.093l.021,0a.315.315,0,0,1,.341.286.348.348,0,0,1-.284.361Zm-5.543-1.062a.313.313,0,0,1-.187-.152.318.318,0,0,1-.025-.238v-.093l.016.046,0-.013a.322.322,0,0,1,.608.216.329.329,0,0,1-.314.234Zm-34.58-.1V27.118h1.117V24.842a2.509,2.509,0,0,1,1.819-2.4l2.071-.565v-.533a2.462,2.462,0,0,1-1.067-2.024V18.254a2.495,2.495,0,0,1,4.973,0V19.32a2.462,2.462,0,0,1-1.067,2.024v.535l1.963.56a2.511,2.511,0,0,1,1.821,2.4v2.274h1.569a2.5,2.5,0,0,1,2.038-1.067,2.435,2.435,0,0,1,2.023,1.067h4.707l0,10.624Zm13.461-9.193v1.066a1.758,1.758,0,0,0,.895,1.569l.173.11v1.459l-2.792.832a1.05,1.05,0,0,0-.754,1.02v2.478h8.5l0-2.493a1.05,1.05,0,0,0-.754-1.02l-2.792-.832V31.273l.173-.11a1.752,1.752,0,0,0,.893-1.567V28.528a1.773,1.773,0,1,0-3.546.017Zm4.253-.017V29.6a2.482,2.482,0,0,1-1.067,2.024v.593l2.291.692A1.776,1.776,0,0,1,86.467,34.6v2.433h1.067l0-9.211H83.879A2.142,2.142,0,0,1,83.989,28.528Zm-17.006,8.5h9.569V34.539a1.776,1.776,0,0,1,1.256-1.695l2.291-.691v-.533A2.477,2.477,0,0,1,79.032,29.6V28.53a2.1,2.1,0,0,1,.108-.706H66.982ZM73,23.163v3.955h2.134v-2.84h.707v2.837h1.411V24.841a1.775,1.775,0,0,0-1.3-1.711l-2.089-.562A1.559,1.559,0,0,1,73,23.163Zm-2.837,1.115v2.84h2.2V23.163a1.569,1.569,0,0,1-.864-.594l-2.087.565a1.771,1.771,0,0,0-1.364,1.709L68,27.118h1.412v-2.84Zm1.772-2.23a.894.894,0,0,0,.706.455.923.923,0,0,0,.721-.455V21.69a2.383,2.383,0,0,1-1.427,0Zm-.22-5.467a1.772,1.772,0,0,0-.832,1.672v1.065a1.87,1.87,0,0,0,0,.333v0a1.772,1.772,0,1,0,3.529-.333V18.254a1.772,1.772,0,0,0-2.7-1.672Zm-29.6,21.156a.314.314,0,0,1-.314-.314.329.329,0,0,1,.314-.328h7.561a.328.328,0,0,1,.314.328.314.314,0,0,1-.314.314Zm72.247-.514a.32.32,0,0,1-.318-.325v-.11a.322.322,0,0,1,.643,0v.125a.321.321,0,0,1-.32.31Zm1.905-.979v-.03a.912.912,0,0,1,.926-.895.925.925,0,1,1-.926.924Zm.643,0a.283.283,0,1,0,.284-.284A.282.282,0,0,0,116.912,36.247Zm-15.668.519-.046.046a.325.325,0,0,1,.429-.485.325.325,0,0,1,.069.439l-.011.011a.31.31,0,0,1-.215.086A.316.316,0,0,1,101.244,36.766Zm13.667-.186a.344.344,0,0,1-.33-.328.329.329,0,0,1,.33-.329h.108a.329.329,0,1,1,0,.658Zm-1.07-.018h-.127a.314.314,0,0,1-.314-.313.33.33,0,0,1,.329-.329h.11a.33.33,0,0,1,.329.329v.015a.3.3,0,0,1-.1.218.311.311,0,0,1-.211.081Zm-44.42-.2V28.517h6.431v7.844Zm.754-.751H75.1l.046-6.386H70.175ZM5.226,36.3A1.693,1.693,0,0,1,3.533,34.6V22.287a1.692,1.692,0,0,1,1.694-1.695H10.5l.815-2.714a.988.988,0,0,1,.957-.722h4.425a.988.988,0,0,1,.958.722l.878,2.714H23.8A1.694,1.694,0,0,1,25.5,22.286V34.6A1.7,1.7,0,0,1,23.8,36.3ZM4.177,34.6a1.05,1.05,0,0,0,1.049,1.05H23.8a1.05,1.05,0,0,0,1.05-1.05l-.111-4.987a2.049,2.049,0,0,1-1.4.565h-1.05v.707a1.02,1.02,0,0,1-2.024,0v-.707h-.7a.331.331,0,0,1-.331-.329v-.016a.316.316,0,0,1,.1-.219.309.309,0,0,1,.227-.081h.408a1.469,1.469,0,0,1,0-.377,1.365,1.365,0,0,1,2.713,0,.95.95,0,0,1,0,.377h.767a1.4,1.4,0,0,0,1.4-1.4V22.286a1.051,1.051,0,0,0-1.05-1.05H21.713v5.522a.33.33,0,1,1-.643,0V21.236H7.955v5.522a.329.329,0,1,1-.643,0V21.236H5.225a1.051,1.051,0,0,0-1.049,1.05v5.851a1.4,1.4,0,0,0,1.395,1.4h.646a.984.984,0,0,1,0-.377,1.364,1.364,0,0,1,2.713,0,1.392,1.392,0,0,1,0,.377h9.415a.329.329,0,0,1,.345.506.325.325,0,0,1-.345.137H8.693v.706a1.019,1.019,0,0,1-2.023,0v-.706h-1.1a2.041,2.041,0,0,1-1.4-.565Zm16.847-3.7a.376.376,0,0,0,.737,0v-.423a1.052,1.052,0,0,1-.375,0,.941.941,0,0,1-.362,0Zm-13.758,0A.376.376,0,0,0,8,30.9v-.423a.936.936,0,0,1-.361,0,1.057,1.057,0,0,1-.376,0Zm13.618-2.227a.711.711,0,0,0-.205.5.721.721,0,0,0,.706.722.738.738,0,0,0,.723-.724.723.723,0,0,0-.723-.707A.711.711,0,0,0,20.884,28.671Zm-13.964.5a.736.736,0,0,0,.721.722.72.72,0,0,0,.706-.722.706.706,0,0,0-.706-.707A.722.722,0,0,0,6.92,29.171Zm4.236-8.579h6.715l-.439-1.427H13.477a.314.314,0,0,1-.313-.314.33.33,0,0,1,.313-.329h3.766l-.142-.472a.345.345,0,0,0-.344-.25H12.271a.345.345,0,0,0-.345.25l-.142.472h.329a.33.33,0,0,1,.314.329.314.314,0,0,1-.314.314H11.6ZM118.12,36.246h0v0Zm-15.75-.077a.345.345,0,0,1-.347-.139l-.008-.017a.315.315,0,0,1,.133-.423h.076a.326.326,0,1,1,.3.58.254.254,0,0,1-.078.012A.248.248,0,0,1,102.37,36.168Zm4.488,0h-.112v-.017a.3.3,0,0,1-.166-.361h0a.3.3,0,0,1,.508-.124.3.3,0,0,1,.067.3.317.317,0,0,1-.293.2Zm7.486-.138a.315.315,0,0,1-.3-.328V35.59h0a.322.322,0,0,1,.643,0v.125a.313.313,0,0,1-.314.314Zm-8.693-.194-.078-.015a.332.332,0,0,1-.183-.371.329.329,0,0,1,.324-.257h.093a.328.328,0,0,1,.257.32.332.332,0,0,1-.257.322Zm-2.218-.1h0a.311.311,0,0,1-.31-.266.33.33,0,0,1,.25-.378h.1a.328.328,0,0,1,.369.284.345.345,0,0,1-.282.361Zm1.138-.046a.33.33,0,0,1,0-.644h.094a.33.33,0,0,1,0,.644Zm-5.008-.633v-.11a.332.332,0,0,1,.328-.329h.016a.319.319,0,0,1,.219.1.312.312,0,0,1,.081.227v.11a.322.322,0,1,1-.644,0Zm15.895-.25v-.11a.331.331,0,0,1,.331-.314h.032a.3.3,0,0,1,.28.314v.125a.314.314,0,0,1-.314.314A.33.33,0,0,1,115.457,34.8Zm-44.567.082v-.7h3.544v.7Zm28.344-.161a.322.322,0,0,1,0-.643h.125a.321.321,0,0,1,0,.643Zm1.2,0h-.015a.322.322,0,0,1,.015-.643h.125a.322.322,0,1,1,0,.643Zm15.895-.22a.346.346,0,0,1-.313-.329.33.33,0,0,1,.313-.33h.158a.33.33,0,0,1,0,.66Zm-1.194-.015a.322.322,0,0,1,0-.644h.126a.332.332,0,0,1,.314.33.314.314,0,0,1-.314.314Zm-15.242-.3a.329.329,0,0,1-.331-.329v-.111a.33.33,0,0,1,.66,0v.126a.314.314,0,0,1-.313.314Zm15.888-.23a.314.314,0,0,1-.3-.329v-.109a.322.322,0,0,1,.312-.313.321.321,0,0,1,.333.314v.123a.33.33,0,0,1-.329.314ZM70.89,33.471v-.7h3.544v.7Zm2.126-1.412v-.7h1.413v.7Zm-2.126,0v-.7H72.3v.7Zm0-1.43v-.707h3.544v.707ZM13.474,28.764a1.02,1.02,0,0,1,0-2.023h2.072a1.019,1.019,0,0,1,0,2.023Zm2.072-.643a.369.369,0,1,0,0-.737H13.474a.369.369,0,1,0,0,.737Zm58.166-1.728v-.706h.706v.706Zm0-1.413v-.7h.706v.7Zm7.661-4.257h-.051a2.48,2.48,0,0,1,.191-4.957h4.35a2.479,2.479,0,0,1-.05,4.958H84.133L80.995,22.5Zm-1.7-2.477a1.771,1.771,0,0,0,1.772,1.772h.737l-.22,1.067,1.93-1.067h1.868a1.773,1.773,0,1,0,0-3.546H81.448A1.772,1.772,0,0,0,79.676,18.247Zm-41.622.423A10.981,10.981,0,1,1,45.9,21.964,10.981,10.981,0,0,1,38.054,18.67Zm8.249-.05V21.4a10.245,10.245,0,0,0,6.98-3.028h-.078a10.245,10.245,0,0,0,3.028-6.98H53.456a.329.329,0,1,1,0-.658h2.78A10.355,10.355,0,0,0,46.225.721V3.5a.329.329,0,1,1-.658,0V.721A10.357,10.357,0,0,0,35.557,10.73h2.857a.33.33,0,0,1,.233.1.329.329,0,0,1-.231.563H35.636A10.356,10.356,0,0,0,45.645,21.4V18.619a.329.329,0,0,1,.658,0Zm61.646,2.831v-.722h.69v.722Zm1.388-.827h.676l.062.643-.738.078Zm-2.907.539.158-.69.674.125-.094.706A5.737,5.737,0,0,1,106.43,21.163Zm4.257-.666.66-.173.2.689-.722.173Zm-5.69.289.249-.674h0l.661.219-.205.69Zm7.015-.668.627-.266.3.66-.678.282Zm-64.75.449a.323.323,0,0,1-.039-.644,8.958,8.958,0,0,0,7.529-7.529.3.3,0,0,1,.6.093,9.653,9.653,0,0,1-8.076,8.08Zm-2.808,0a9.649,9.649,0,0,1-8.08-8.08.325.325,0,0,1,.517-.307.32.32,0,0,1,.128.214,8.958,8.958,0,0,0,7.53,7.529H44.5a.323.323,0,0,1-.031.644Zm59.152-.388.33-.63.628.3-.3.66Zm9.669-.629.6-.361.377.613-.628.376Zm-5.215.115a1.383,1.383,0,0,1-.439,0,1.11,1.11,0,0,1-1.113-1.066,1.115,1.115,0,0,1-1.068-1.083,1.112,1.112,0,0,1-1.081-1.066,1.1,1.1,0,0,1-.609-.215,1.116,1.116,0,0,1-.239-1.558l-1.568-1.57a.378.378,0,0,1-.11-.249v-.91L97.657,8.119l.486-.534,2.545,2.337,4.582-4.582-3.327-3.325.5-.5,5.615,5.615h1.29a.38.38,0,0,1,.25.11l.471.454,6.544-6.539.5.5-6.744,6.873L107.763,11.1a1.713,1.713,0,0,0,2.1-.235L110.932,9.8l.5.517-.454.455,3.011,3.012,5.131-5.114.5.5-5.255,5.318a2.1,2.1,0,0,1,0,.282,1.428,1.428,0,0,1-.424,1l-3.86,3.891a1.36,1.36,0,0,1-.986.424h-.023A1.424,1.424,0,0,1,108.059,19.665Zm-.865-6.045a1.128,1.128,0,0,1,1.083,1.066,1.13,1.13,0,0,1,1.066,1.083,1.113,1.113,0,0,1,1.009.908,1.11,1.11,0,0,1-.177.834l-1.569,1.57a.722.722,0,0,0,.973,0l3.858-3.843v-.015a.736.736,0,0,0,0-1.018l-3-2.982-.093.094a2.415,2.415,0,0,1-3.4,0,.1.1,0,0,1-.015-.014.348.348,0,0,1,.015-.489L109.58,8.2l-.359-.346h-1.287a.369.369,0,0,1-.25-.109l-.472-.457-4.706,4.707v.785l1.427,1.426,1.364-1.333a1.108,1.108,0,0,1,.747-.323h.039A1.113,1.113,0,0,1,107.194,13.62Zm1.822,2.937-1.695,1.694a.393.393,0,0,0-.125.282.408.408,0,0,0,.408.409.392.392,0,0,0,.283-.125l1.708-1.695a.453.453,0,0,0,.11-.283.408.408,0,0,0-.407-.407A.416.416,0,0,0,109.015,16.556Zm-1.067-1.08-1.711,1.711a.456.456,0,0,0-.11.282v.016a.392.392,0,0,0,.409.375.409.409,0,0,0,.283-.11l1.694-1.693a.363.363,0,0,0,.125-.283.408.408,0,0,0-.409-.408h-.015A.379.379,0,0,0,107.949,15.476Zm-1.066-1.067L105.171,16.1a.407.407,0,0,0-.113.269.415.415,0,0,0,.111.293.425.425,0,0,0,.285.128.4.4,0,0,0,.284-.125l1.71-1.694a.375.375,0,0,0,.11-.283.406.406,0,0,0-.392-.408h-.01A.36.36,0,0,0,106.882,14.409ZM105.8,13.327l-1.7,1.71a.4.4,0,0,0-.125.282.409.409,0,0,0,.409.393.378.378,0,0,0,.283-.111l1.7-1.693a.425.425,0,0,0,.125-.3.409.409,0,0,0-.407-.391h0A.442.442,0,0,0,105.8,13.327Zm-4.579-2.92.958.879L106.7,6.768l-.927-.925Zm1.189,8.96.437-.565a5.113,5.113,0,0,0,.566.392l-.393.6A7.146,7.146,0,0,1,102.409,19.367Zm11.978-.568.533-.424.471.534-.58.471Zm-13.09-.4.5-.517a4.847,4.847,0,0,0,.5.466l-.472.55ZM85.4,18.581v-.706h.706v.706Zm-1.413,0v-.706H84.7v.706Zm-1.411,0v-.706h.707v.706Zm-1.431,0v-.706h.706v.706Zm34.309-.735.468-.519.533.47c-.155.189-.328.376-.5.55Zm-73.337.123V16.4l-1.066-.438v.583a.321.321,0,0,1-.643-.018V13.97A1.742,1.742,0,0,1,41.4,12.4l2.573-1.161a.383.383,0,0,0,.22-.329v-.862a2.727,2.727,0,0,1-1.037-2.135V6.533A2.039,2.039,0,0,1,45.2,4.495h1.382A2.038,2.038,0,0,1,48.62,6.533V7.914a2.728,2.728,0,0,1-1.037,2.181v.862a.376.376,0,0,0,.221.328l2.573,1.163v-.017A1.744,1.744,0,0,1,51.365,14v2.542a.321.321,0,0,1-.643,0v-.3l-1.067.22v1.443a.329.329,0,0,1-.33.328H49.31a.307.307,0,0,1-.219-.1.316.316,0,0,1-.082-.226V14.769a.322.322,0,0,1,.643,0v.99L50.72,15.6V14.034a1.051,1.051,0,0,0-.613-.957l-1.961-.9a2.384,2.384,0,0,1-4.518,0l-1.961.9a1.048,1.048,0,0,0-.61.954v1.3l1.066.422v-.941a.31.31,0,0,1,.1-.225.321.321,0,0,1,.543.241v3.153a.316.316,0,0,1-.314.314A.331.331,0,0,1,42.121,17.969ZM44.8,10.975a1.006,1.006,0,0,1-.6.91,1.757,1.757,0,0,0,1.641,1.249v0A1.755,1.755,0,0,0,47.5,11.881a1,1,0,0,1-.6-.908v-.486a2.629,2.629,0,0,1-2.1,0Zm-1-3.063A2.1,2.1,0,0,0,45.888,10v.047h.029a2.1,2.1,0,0,0,2.071-2.134V6.53a1.4,1.4,0,0,0-1.4-1.4H45.211a1.41,1.41,0,0,0-1.238.77,7.756,7.756,0,0,0,2.965.643.328.328,0,0,1,.314.329.315.315,0,0,1-.314.314A8.055,8.055,0,0,1,43.8,6.53Zm56.53,9.43.58-.486v.063c.123.188.283.361.424.535l-.533.469A5.2,5.2,0,0,1,100.332,17.342Zm16.043-.5.393-.565.6.393a6.948,6.948,0,0,1-.423.61ZM99.52,16.111l.628-.345.345.6-.6.392Zm17.585-.419c.11-.2.22-.408.314-.613l.643.3a6.232,6.232,0,0,1-.329.658Zm-18.186-1,.676-.248c.074.217.158.432.249.643l-.642.3A5.257,5.257,0,0,1,98.919,14.689Zm18.764-.248a1.958,1.958,0,0,0,.22-.643l.674.187a3.429,3.429,0,0,0-.219.706ZM98.516,13.27l.7-.157a3.575,3.575,0,0,1,.174.675l-.69.189A2.352,2.352,0,0,1,98.516,13.27Zm19.553-.146a5.169,5.169,0,0,0,.125-.674l.7.094a6.176,6.176,0,0,0-.124.737ZM98.281,11.75h.7l.079-.047v.689l-.7.094A2.263,2.263,0,0,1,98.281,11.75Zm-43.216.36.023,0-.01,0Zm.028,0h0Zm.021,0h0Zm63.168-.353v-.69l.707-.048a5.94,5.94,0,0,1,0,.738Zm-20-.685v-.737l.722.046v.691ZM55.062,10a.315.315,0,0,1-.311-.282,8.956,8.956,0,0,0-7.529-7.531.324.324,0,0,1-.272-.368.326.326,0,0,1,.369-.275A9.651,9.651,0,0,1,55.4,9.623h-.051v.009a.327.327,0,0,1-.284.369ZM36.654,10h-.006a.33.33,0,0,1-.276-.376A9.651,9.651,0,0,1,44.45,1.544h.008a.332.332,0,0,1,.371.283h-.048a.329.329,0,0,1-.281.36,8.959,8.959,0,0,0-7.532,7.529.312.312,0,0,1-.311.283ZM99.329,7.122V7.087A1.047,1.047,0,0,1,100.4,6.055h.034a1.05,1.05,0,0,1,1.033,1.067,1.067,1.067,0,0,1-2.133,0Zm.7,0a.361.361,0,0,0,.361.361h.028a.361.361,0,1,0-.028-.721h0A.376.376,0,0,0,100.034,7.121ZM112.5,2.29l.314-.643.644.361-.361.612Zm-8.32-.617a2.029,2.029,0,0,1,.69-.282l.25.658-.626.267Zm7.039.066.2-.69c.234.062.469.157.7.235l-.251.676A5.427,5.427,0,0,0,111.223,1.739Zm-5.65-.589a5.3,5.3,0,0,1,.721-.187l.158.689a4.525,4.525,0,0,0-.66.189Zm4.387.32V.749h.079l.737.125-.141.691A1.627,1.627,0,0,0,109.959,1.471Zm-2.952-.65a6.159,6.159,0,0,1,.737-.095l.063.706-.691.095Zm1.476.585V.7h.157l.534-.015v.723Z" transform="translate(2.174 -11.06)" fill="#fff"/>
  </g>
</svg>
