<svg id="bouns" xmlns="http://www.w3.org/2000/svg" width="20" height="20" viewBox="0 0 20 20">
  <g id="Path_88357" data-name="Path 88357" fill="gray" opacity="0">
    <path d="M 19.5 19.5 L 0.5 19.5 L 0.5 0.5 L 19.5 0.5 L 19.5 19.5 Z" stroke="none"/>
    <path d="M 1 1 L 1 19 L 19 19 L 19 1 L 1 1 M 0 0 L 20 0 L 20 20 L 0 20 L 0 0 Z" stroke="none" fill="#808fa5"/>
  </g>
  <g id="bar-chart" transform="translate(2 2)">
    <path id="Path_88630" data-name="Path 88630" d="M3.281,451.719a.469.469,0,0,0-.469-.469H.469a.469.469,0,0,0-.469.469V455.5a.469.469,0,0,0,.469.469H2.813a.469.469,0,0,0,.469-.469Zm0,0" transform="translate(0 -439.969)" fill="gray"/>
    <path id="Path_88631" data-name="Path 88631" d="M172.813,338.75h-2.344a.469.469,0,0,0-.469.469v6.594a.469.469,0,0,0,.469.469h2.344a.469.469,0,0,0,.469-.469v-6.594A.469.469,0,0,0,172.813,338.75Zm0,0" transform="translate(-165.75 -330.281)" fill="gray"/>
    <path id="Path_88632" data-name="Path 88632" d="M341.563,301.25h-2.344a.469.469,0,0,0-.469.469v7.531a.469.469,0,0,0,.469.469h2.344a.469.469,0,0,0,.469-.469v-7.531A.469.469,0,0,0,341.563,301.25Zm0,0" transform="translate(-330.281 -293.719)" fill="gray"/>
    <path id="Path_88633" data-name="Path 88633" d="M511.563,151.25h-2.344a.469.469,0,0,0-.469.469V163a.469.469,0,0,0,.469.469h2.344a.469.469,0,0,0,.469-.469V151.719A.469.469,0,0,0,511.563,151.25Zm0,0" transform="translate(-496.031 -147.469)" fill="gray"/>
    <path id="Path_88634" data-name="Path 88634" d="M12.031,10.313a1.408,1.408,0,0,0,1.406-1.406,1.387,1.387,0,0,0-.058-.378l1.826-1.289a1.4,1.4,0,0,0,2.2-.959l1.87-.394a1.4,1.4,0,0,0,2.5-1.26l2.243-1.994a1.389,1.389,0,0,0,.674.18,1.412,1.412,0,1,0-1.3-.877L21.143,3.93a1.389,1.389,0,0,0-.674-.18,1.4,1.4,0,0,0-1.387,1.219l-1.87.394a1.4,1.4,0,0,0-2.6.731,1.387,1.387,0,0,0,.058.378L12.841,7.761a1.4,1.4,0,1,0-.81,2.552Zm0,0" transform="translate(-10.359)" fill="gray"/>
  </g>
</svg>
