<svg xmlns="http://www.w3.org/2000/svg" width="20" height="20" viewBox="0 0 20 20">
  <g id="education" transform="translate(-7690 135)">
    <g id="education-2" data-name="education" transform="translate(7690 -135)">
      <g id="Path_88443" data-name="Path 88443" fill="gray" opacity="0">
        <path d="M 19.5 19.5 L 0.5 19.5 L 0.5 0.5 L 19.5 0.5 L 19.5 19.5 Z" stroke="none"/>
        <path d="M 1 1 L 1 19 L 19 19 L 19 1 L 1 1 M 0 0 L 20 0 L 20 20 L 0 20 L 0 0 Z" stroke="none" fill="#707070"/>
      </g>
    </g>
    <g id="college-graduation_1_" data-name="college-graduation (1)" transform="translate(7692 -168.648)">
      <g id="Layer_5_59_" transform="translate(0 36.648)">
        <g id="Group_82879" data-name="Group 82879">
          <path id="Path_88615" data-name="Path 88615" d="M54.6,205.222a2.082,2.082,0,0,1-2.054,0L47.9,202.371s-.42-.257-.42.325v2.847c0,1.5,2.729,3.117,6.1,3.117s6.1-1.617,6.1-3.117v-3.008c0-.468-.3-.239-.3-.239Z" transform="translate(-45.578 -195.6)" fill="gray"/>
          <path id="Path_88616" data-name="Path 88616" d="M15.732,41.151a.43.43,0,0,0,0-.8L8.65,36.812a1.366,1.366,0,0,0-1.3,0L.268,40.354a.43.43,0,0,0,0,.8L7.35,45.494a1.366,1.366,0,0,0,1.3,0" transform="translate(0 -36.648)" fill="gray"/>
          <path id="Path_88617" data-name="Path 88617" d="M356.989,190.641v-4.8s0-.227-.132-.152a3.918,3.918,0,0,0-.467.289.4.4,0,0,0-.084.3v4.356a.128.128,0,0,1-.078.106.829.829,0,1,0,.836,0A.123.123,0,0,1,356.989,190.641Z" transform="translate(-341.549 -179.7)" fill="gray"/>
        </g>
      </g>
    </g>
  </g>
</svg>
