<svg xmlns="http://www.w3.org/2000/svg" xmlns:xlink="http://www.w3.org/1999/xlink" width="48" height="48" viewBox="0 0 48 48">
  <defs>
    <clipPath id="clip-path">
      <circle id="Ellipse_256" data-name="Ellipse 256" cx="24" cy="24" r="24" transform="translate(0 0)" fill="none"/>
    </clipPath>
  </defs>
  <g id="goodness-3" transform="translate(-10888 119)">
    <g id="Group_83647" data-name="Group 83647" transform="translate(185 27)">
      <circle id="Ellipse_245" data-name="Ellipse 245" cx="24" cy="24" r="24" transform="translate(10703 -146)" fill="#e8e8e8"/>
    </g>
    <g id="Group_84335" data-name="Group 84335" transform="translate(10451.904 115.052)">
      <g id="Group_84334" data-name="Group 84334" transform="translate(436.096 -234.052)" clip-path="url(#clip-path)">
        <g id="Group_84333" data-name="Group 84333" transform="translate(5.45 9.263)">
          <g id="Group_84247" data-name="Group 84247" transform="translate(25.28 0.425)">
            <g id="Group_84216" data-name="Group 84216" transform="translate(0 9.85)">
              <path id="Path_91887" data-name="Path 91887" d="M527.25-156.234h-7.781a2.245,2.245,0,0,0-2.245,2.245v11.73a1.122,1.122,0,0,0,1.122,1.123,1.123,1.123,0,0,0,1.123-1.123V-153.1a.265.265,0,0,1,.266-.265h7.25a.266.266,0,0,1,.266.265v10.841a1.122,1.122,0,0,0,1.121,1.123,1.123,1.123,0,0,0,1.124-1.123v-11.73A2.245,2.245,0,0,0,527.25-156.234Z" transform="translate(-517.224 156.234)" fill="#fcca89"/>
            </g>
            <g id="Group_84217" data-name="Group 84217" transform="translate(0 9.85)">
              <path id="Path_91888" data-name="Path 91888" d="M529.495-153.942v-.048a2.245,2.245,0,0,0-2.245-2.244h-7.781a2.245,2.245,0,0,0-2.245,2.244v9.429h2.245v-8.54a.265.265,0,0,1,.266-.265h7.25a.265.265,0,0,1,.266.265v8.54h2.245Z" transform="translate(-517.224 156.234)" fill="#416691"/>
            </g>
            <g id="Group_84224" data-name="Group 84224" transform="translate(2.754)">
              <g id="Group_84218" data-name="Group 84218" transform="translate(0.253 3.131)">
                <rect id="Rectangle_23904" data-name="Rectangle 23904" width="6.166" height="7.907" fill="#4b4e54"/>
              </g>
              <g id="Group_84219" data-name="Group 84219" transform="translate(1.104 7.927)">
                <path id="Path_91889" data-name="Path 91889" d="M529.532-158.218c0,.376-1,.68-2.234.68s-2.232-.3-2.232-.68c.391,0,.977-.316.977-.707v-1.218h2.51v1.218C528.553-158.535,529.14-158.218,529.532-158.218Z" transform="translate(-525.066 160.143)" fill="#f0bc7a"/>
              </g>
              <g id="Group_84220" data-name="Group 84220" transform="translate(0.626 0.999)">
                <path id="Path_91890" data-name="Path 91890" d="M529.513-172.28v2.121c0,.033,0,.068,0,.1a4.9,4.9,0,0,1-1.571,2.957,2.015,2.015,0,0,1-.989.523c-.024,0-.047,0-.071.006l-.073,0h0a1.055,1.055,0,0,1-.141-.01,1.971,1.971,0,0,1-.992-.52,4.907,4.907,0,0,1-1.574-2.959c0-.034,0-.068,0-.1v-2.132a1.768,1.768,0,0,1,.053-.211,2.738,2.738,0,0,1,2.657-1.724,2.986,2.986,0,0,1,1.4.338,3,3,0,0,1,.653.466A2.221,2.221,0,0,1,529.513-172.28Z" transform="translate(-524.095 174.225)" fill="#fcca89"/>
              </g>
              <g id="Group_84221" data-name="Group 84221" transform="translate(0.377 3.427)">
                <path id="Path_91891" data-name="Path 91891" d="M523.839-169.289v1.709c-.083,0-.157-.165-.2-.423a3.426,3.426,0,0,1-.045-.571,2.016,2.016,0,0,1,.045-.479C523.682-169.227,523.755-169.289,523.839-169.289Z" transform="translate(-523.59 169.289)" fill="#fcca89"/>
              </g>
              <g id="Group_84222" data-name="Group 84222" transform="translate(6.044 3.427)">
                <path id="Path_91892" data-name="Path 91892" d="M535.358-168.574a3.407,3.407,0,0,1-.044.563c-.044.259-.12.43-.205.43v-1.709c.085,0,.161.063.205.242A2.021,2.021,0,0,1,535.358-168.574Z" transform="translate(-535.109 169.289)" fill="#fcca89"/>
              </g>
              <g id="Group_84223" data-name="Group 84223">
                <path id="Path_91893" data-name="Path 91893" d="M529.464-165.135c0-.032-1.2-1.366-1.2-1.4l.806-6.294s-1.814.035-2.911.035c-1.069,0-2.912-.035-2.912-.035l.9,6.294c0,.032-1.3,1.366-1.3,1.4-.085,0,.046-7.5.008-8.007a2.478,2.478,0,0,1,.1-.906,3.3,3.3,0,0,1,3.2-2.208,3.428,3.428,0,0,1,1.683.434,3.516,3.516,0,0,1,.785.6,2.7,2.7,0,0,1,.832,2.083C529.42-172.634,529.551-165.135,529.464-165.135Z" transform="translate(-522.823 176.256)" fill="#4b4e54"/>
              </g>
            </g>
            <g id="Group_84225" data-name="Group 84225" transform="translate(4.151 9.897)">
              <path id="Path_91894" data-name="Path 91894" d="M529.632-156.126l-.093.235,0,0-.365.9-3.054-.019-.36-.883h0l-.1-.247C526.5-156.08,528.929-156.1,529.632-156.126Z" transform="translate(-525.661 156.138)" fill="#f0bc7a"/>
            </g>
            <g id="Group_84226" data-name="Group 84226" transform="translate(2.354 9.849)">
              <path id="Path_91895" data-name="Path 91895" d="M529.407-151.465l-.374,4.859.309,2.269-.095,8.184-.38,9.582H526.38l-.04-9.582-.138-4.309a.458.458,0,0,0-.459-.432.459.459,0,0,0-.457.432l-.138,4.309-.042,9.582H522.62l-.379-9.582-.1-8.17.311-2.283-.394-4.835-.055-4.667c.172-.053.06-.091.04-.112,0-.006,0-.012.045-.012l.027,0h1.393c0,.021.108.035.292.048l.1.247h0l.36.883,3.054.019.366-.9,0,0,.092-.235a1.243,1.243,0,0,0,.193-.012.137.137,0,0,0,.008-.047h1.352c.292,0-.114.044.15.127Z" transform="translate(-522.008 156.235)" fill="#fcca89"/>
            </g>
            <g id="Group_84229" data-name="Group 84229" transform="translate(2.319 37.524)">
              <g id="Group_84227" data-name="Group 84227">
                <path id="Path_91896" data-name="Path 91896" d="M523.926-99.98h-.667a1.32,1.32,0,0,0-1.321,1.321h3.308A1.322,1.322,0,0,0,523.926-99.98Z" transform="translate(-521.938 99.98)" fill="#616161"/>
              </g>
              <g id="Group_84228" data-name="Group 84228" transform="translate(0 1.321)">
                <path id="Path_91897" data-name="Path 91897" d="M523.592-97.294h-1.654v.67h3.308v-.67Z" transform="translate(-521.938 97.294)" fill="#585a5c"/>
              </g>
            </g>
            <g id="Group_84232" data-name="Group 84232" transform="translate(6.645 37.524)">
              <g id="Group_84230" data-name="Group 84230" transform="translate(0)">
                <path id="Path_91898" data-name="Path 91898" d="M532.717-99.98h-.667a1.318,1.318,0,0,0-1.319,1.321h3.307A1.322,1.322,0,0,0,532.717-99.98Z" transform="translate(-530.731 99.98)" fill="#616161"/>
              </g>
              <g id="Group_84231" data-name="Group 84231" transform="translate(0 1.321)">
                <path id="Path_91899" data-name="Path 91899" d="M532.384-97.294h-1.653v.67h3.307v-.67Z" transform="translate(-530.731 97.294)" fill="#585a5c"/>
              </g>
            </g>
            <g id="Group_84235" data-name="Group 84235" transform="translate(1.641 9.849)">
              <g id="Group_84233" data-name="Group 84233" transform="translate(0 9.629)">
                <path id="Path_91900" data-name="Path 91900" d="M529.458-126.208h-8.9l.427-6.911a13.454,13.454,0,0,1,.293-2.085c.027-.133.058-.266.091-.4l.35-1.058H528.3l.347,1.039c.035.138.066.278.1.418a13.888,13.888,0,0,1,.288,2.077Z" transform="translate(-520.56 136.661)" fill="#4677af"/>
              </g>
              <g id="Group_84234" data-name="Group 84234" transform="translate(0.588)">
                <path id="Path_91901" data-name="Path 91901" d="M528.9-146.605l.374-4.859.294-4.645c-.265-.083-.031-.125-.323-.125H527.9l-.056.047-2.178,5.288-2.232-5.335h-1.439l-.027,0a.132.132,0,0,0-.045.012c-.031.021.006.058-.165.111l.179,4.669.394,4.835-.35,1.058c-.033.133-.064.266-.092.4a7.513,7.513,0,0,0,3.73-1.4,7.522,7.522,0,0,0,3.732,1.4c-.03-.14-.062-.28-.1-.418Z" transform="translate(-521.755 156.235)" fill="#416691"/>
              </g>
            </g>
            <g id="Group_84238" data-name="Group 84238" transform="translate(5.907 15.961)">
              <g id="Group_84236" data-name="Group 84236">
                <path id="Path_91902" data-name="Path 91902" d="M529.691-143.58a.23.23,0,0,1-.23.229.229.229,0,0,1-.23-.229.23.23,0,0,1,.23-.231A.231.231,0,0,1,529.691-143.58Z" transform="translate(-529.231 143.811)" fill="#4677af"/>
              </g>
              <g id="Group_84237" data-name="Group 84237" transform="translate(0.072 0.164)">
                <path id="Path_91903" data-name="Path 91903" d="M529.626-143.345h-.183a.066.066,0,0,1-.066-.066.067.067,0,0,1,.066-.067h.183a.067.067,0,0,1,.067.067A.066.066,0,0,1,529.626-143.345Z" transform="translate(-529.377 143.478)" fill="#1656c1"/>
              </g>
            </g>
            <g id="Group_84241" data-name="Group 84241" transform="translate(5.907 17.867)">
              <g id="Group_84239" data-name="Group 84239">
                <path id="Path_91904" data-name="Path 91904" d="M529.691-139.707a.23.23,0,0,1-.23.229.229.229,0,0,1-.23-.229.23.23,0,0,1,.23-.23A.231.231,0,0,1,529.691-139.707Z" transform="translate(-529.231 139.937)" fill="#4677af"/>
              </g>
              <g id="Group_84240" data-name="Group 84240" transform="translate(0.072 0.163)">
                <path id="Path_91905" data-name="Path 91905" d="M529.626-139.473h-.183a.066.066,0,0,1-.066-.066.067.067,0,0,1,.066-.067h.183a.067.067,0,0,1,.067.067A.066.066,0,0,1,529.626-139.473Z" transform="translate(-529.377 139.606)" fill="#1656c1"/>
              </g>
            </g>
            <g id="Group_84243" data-name="Group 84243" transform="translate(3.905 11.024)">
              <g id="Group_84242" data-name="Group 84242">
                <path id="Path_91906" data-name="Path 91906" d="M529.807-153.818l-1.539,2.605-.875,1.323-.045-.088-1.7-3.251-.489-.619.7.005,3.054.018Z" transform="translate(-525.161 153.848)" fill="#ebeef2"/>
              </g>
            </g>
            <g id="Group_84246" data-name="Group 84246" transform="translate(3.055 9.723)">
              <g id="Group_84244" data-name="Group 84244" transform="translate(2.754)">
                <path id="Path_91907" data-name="Path 91907" d="M532.444-156.366l0,.011a7.505,7.505,0,0,1-1.963,4.13l-1.119,1.193-.328.4.219-.536.064-.157.045-.112.949-2.325.576-1.408.366-.9,0,0,.092-.235.073-.186Z" transform="translate(-529.032 156.492)" fill="#4677af"/>
              </g>
              <g id="Group_84245" data-name="Group 84245">
                <path id="Path_91908" data-name="Path 91908" d="M526.515-151.437v.406l-.109-.133-.995-1.057a7.516,7.516,0,0,1-1.979-4.144l1.026-.126.07.174.1.247h0l.36.883.582,1.427Z" transform="translate(-523.433 156.492)" fill="#4677af"/>
              </g>
            </g>
          </g>
          <g id="Group_84287" data-name="Group 84287">
            <g id="Group_84258" data-name="Group 84258" transform="translate(3.404)">
              <g id="Group_84251" data-name="Group 84251">
                <g id="Group_84248" data-name="Group 84248" transform="translate(1.168 8.394)">
                  <path id="Path_91909" data-name="Path 91909" d="M479.577-158.142c0,.375-.994.677-2.222.677s-2.222-.3-2.222-.677c.39,0,.973-.314.973-.7v-1.212h2.5v1.212C478.6-158.456,479.188-158.142,479.577-158.142Z" transform="translate(-475.133 160.057)" fill="#f0bc7a"/>
                </g>
                <g id="Group_84249" data-name="Group 84249">
                  <path id="Path_91910" data-name="Path 91910" d="M479.532-173.927a12.644,12.644,0,0,1-.4,2.284h-5.963a12.747,12.747,0,0,1-.4-2.284,3.213,3.213,0,0,1,3.383-3.193,3.522,3.522,0,0,1,1.726.445A3.007,3.007,0,0,1,479.532-173.927Z" transform="translate(-472.758 177.12)" fill="#4b4e54"/>
                </g>
                <g id="Group_84250" data-name="Group 84250" transform="translate(0.405 0.301)">
                  <path id="Path_91911" data-name="Path 91911" d="M479.552-173.52v2.086a4.644,4.644,0,0,1-1.735,3.043,2.306,2.306,0,0,1-1.091.521.663.663,0,0,1-.077.006l-.081,0h0a1.192,1.192,0,0,1-.155-.01,2.268,2.268,0,0,1-1.094-.518,4.646,4.646,0,0,1-1.736-3.045v-2.086a2.985,2.985,0,0,1,2.985-2.988A2.985,2.985,0,0,1,479.552-173.52Z" transform="translate(-473.582 176.508)" fill="#fcca89"/>
                </g>
              </g>
              <g id="Group_84252" data-name="Group 84252" transform="translate(0.157 3.517)">
                <path id="Path_91912" data-name="Path 91912" d="M473.574-169.26c0,.546-.111.989-.248.989-.083,0-.156-.167-.2-.421a3.443,3.443,0,0,1-.045-.568,2.027,2.027,0,0,1,.045-.477c.047-.172.121-.234.2-.234C473.463-169.971,473.574-169.808,473.574-169.26Z" transform="translate(-473.078 169.971)" fill="#fcca89"/>
              </g>
              <g id="Group_84253" data-name="Group 84253" transform="translate(6.127 3.517)">
                <path id="Path_91913" data-name="Path 91913" d="M485.708-169.26a3.4,3.4,0,0,1-.043.56c-.044.259-.122.429-.2.429-.136,0-.248-.444-.248-.989s.112-.711.248-.711c.083,0,.16.063.2.24A2.014,2.014,0,0,1,485.708-169.26Z" transform="translate(-485.213 169.971)" fill="#fcca89"/>
              </g>
              <g id="Group_84254" data-name="Group 84254" transform="translate(0.291 0.188)">
                <path id="Path_91914" data-name="Path 91914" d="M477.507-176.724a3.2,3.2,0,0,0,2.025.224c.718-.34-.337,1-.582,1.234-.916.891-1.43,1.392-5.532,1.242-.381-.219.84-2.374,2.482-2.7C476.049-176.753,477.507-176.724,477.507-176.724Z" transform="translate(-473.349 176.737)" fill="#4b4e54"/>
              </g>
              <g id="Group_84255" data-name="Group 84255" transform="translate(3.505 0.37)">
                <path id="Path_91915" data-name="Path 91915" d="M482.933-173.928a3.383,3.383,0,0,1-2.222-1.151c-.245-.237-1.3-1.574-.581-1.234a2.067,2.067,0,0,0,1.264.02A3.188,3.188,0,0,1,482.933-173.928Z" transform="translate(-479.884 176.368)" fill="#4b4e54"/>
              </g>
              <g id="Group_84256" data-name="Group 84256" transform="translate(0.38 2.563)">
                <path id="Path_91916" data-name="Path 91916" d="M473.867-170.468a.336.336,0,0,1-.336.336v-1.777h.336Z" transform="translate(-473.531 171.91)" fill="#4b4e54"/>
              </g>
              <g id="Group_84257" data-name="Group 84257" transform="translate(6.064 2.564)">
                <path id="Path_91917" data-name="Path 91917" d="M485.42-170.132a.335.335,0,0,1-.335-.335v-1.442h.335Z" transform="translate(-485.085 171.909)" fill="#4b4e54"/>
              </g>
            </g>
            <g id="Group_84259" data-name="Group 84259" transform="translate(2.562 10.308)">
              <path id="Path_91918" data-name="Path 91918" d="M478.847-156.167H477.5a.237.237,0,0,1-.046.137.462.462,0,0,1-.118.116l-.011.012c-.025.018-.062.033-.091.051a4.37,4.37,0,0,1-1.956.362c-.137,0-.27,0-.4-.012h-.048c-.038,0-.072-.007-.11-.01a3.867,3.867,0,0,1-1.334-.3c-.2-.1-.329-.222-.329-.353h-1.346a1.8,1.8,0,0,0-.666.126v29.394h3.331l.445-13.823a.458.458,0,0,1,.457-.43.455.455,0,0,1,.455.43l.443,13.823h3.336v-29.394A1.8,1.8,0,0,0,478.847-156.167Z" transform="translate(-471.045 156.167)" fill="#36404f"/>
            </g>
            <path id="Path_91919" data-name="Path 91919" d="M479.5-156.042v13.15h-8.811v-13.15a2.811,2.811,0,0,1,.837-.125h1.346l0,.005h0c0,.021,0,.04,0,.061a1.313,1.313,0,0,0,.012.183c.006.043.012.086.021.127a1.325,1.325,0,0,0,.065.219c.009.024.019.05.03.074.021.049.044.095.068.14,0,0,0,.006.006.01.021.036.041.072.065.107l.011.015a1.315,1.315,0,0,0,.095.126.088.088,0,0,0,.012.014.736.736,0,0,0,.057.065c.011.014.024.027.036.04.036.038.074.074.113.108,0,0,.005,0,.009.006.038.033.076.064.115.093a1.43,1.43,0,0,0,.131.091c.044.029.092.055.138.081a1.2,1.2,0,0,0,.142.072c.048.023.1.045.148.064s.1.036.153.053.1.03.154.043.1.024.157.032a.7.7,0,0,0,.069.012c.031,0,.061.009.092.012.051.007.1.01.16.014s.106,0,.16,0,.11,0,.163,0,.1-.007.145-.012l.016,0c.056-.007.109-.015.16-.024l.019,0,.14-.031c.051-.012.1-.028.155-.043l.151-.054c.05-.019.1-.041.147-.063s.1-.047.144-.072a1.5,1.5,0,0,0,.137-.081c.045-.029.09-.06.131-.091s.085-.067.123-.1a1.549,1.549,0,0,0,.113-.107c.036-.038.073-.078.106-.119.015-.021.033-.041.048-.062a1.69,1.69,0,0,0,.127-.2c.025-.046.048-.092.068-.139a1.183,1.183,0,0,0,.055-.15.377.377,0,0,0,.021-.071.224.224,0,0,0,.011-.043,1.038,1.038,0,0,0,.031-.182.382.382,0,0,0,.005-.062.846.846,0,0,0,0-.093c0-.021,0-.041,0-.062a.008.008,0,0,0,0,0h1.346A2.8,2.8,0,0,1,479.5-156.042Z" transform="translate(-468.305 166.475)" fill="#5f7590"/>
            <g id="Group_84260" data-name="Group 84260" transform="translate(4.575 10.313)">
              <path id="Path_91920" data-name="Path 91920" d="M479.576-156.094a.846.846,0,0,1,0,.093.463.463,0,0,1,0,.062,1.288,1.288,0,0,1-.031.182c0,.016-.007.029-.01.043a.562.562,0,0,1-.022.071,1.455,1.455,0,0,1-.055.149c-.021.047-.044.093-.068.139a1.824,1.824,0,0,1-.127.2c-.015.021-.032.041-.048.061-.032.042-.069.081-.105.12s-.074.073-.113.107-.081.069-.125.1-.086.062-.13.091-.091.057-.137.081-.094.05-.144.072-.1.045-.147.063l-.152.054c-.052.015-.1.031-.154.043l-.139.031-.02,0c-.052.008-.1.017-.16.024l-.017,0-.144.012c-.054,0-.109,0-.163,0s-.108,0-.16,0-.109-.007-.16-.014c-.032,0-.062-.008-.094-.012s-.046-.006-.068-.012c-.053-.009-.1-.021-.157-.032s-.1-.028-.154-.043-.1-.035-.152-.054a1.6,1.6,0,0,1-.148-.063,1.249,1.249,0,0,1-.143-.072c-.047-.026-.094-.052-.138-.081a1.437,1.437,0,0,1-.131-.091c-.039-.029-.077-.061-.115-.093,0,0,0,0-.009-.006-.039-.034-.077-.07-.113-.108-.012-.013-.025-.026-.036-.04a.744.744,0,0,1-.056-.065l-.013-.014a1.4,1.4,0,0,1-.094-.126l-.011-.015c-.024-.034-.044-.07-.065-.106,0,0,0-.007-.007-.01-.024-.045-.048-.092-.068-.14-.011-.024-.021-.05-.029-.074a1.252,1.252,0,0,1-.065-.219c-.009-.041-.016-.085-.021-.127a1.251,1.251,0,0,1-.012-.183c0-.021,0-.039,0-.061,0,0,0,0,.008,0h0a11.228,11.228,0,0,0,1.657.059l.551.609.56-.618c.854-.012,1.592-.036,1.657-.056h0C479.576-156.133,479.576-156.115,479.576-156.094Z" transform="translate(-475.137 156.156)" fill="#b3b3b3"/>
            </g>
            <g id="Group_84270" data-name="Group 84270" transform="translate(2.39 23.239)">
              <g id="Group_84262" data-name="Group 84262">
                <g id="Group_84261" data-name="Group 84261">
                  <rect id="Rectangle_23905" data-name="Rectangle 23905" width="8.811" height="0.688" fill="#516675"/>
                </g>
              </g>
              <g id="Group_84269" data-name="Group 84269">
                <g id="Group_84264" data-name="Group 84264">
                  <g id="Group_84263" data-name="Group 84263">
                    <rect id="Rectangle_23906" data-name="Rectangle 23906" width="0.086" height="0.688" fill="#778aa1"/>
                  </g>
                </g>
                <g id="Group_84266" data-name="Group 84266" transform="translate(0.256)">
                  <g id="Group_84265" data-name="Group 84265">
                    <path id="Path_91921" data-name="Path 91921" d="M479.515-129.193h-.169v-.688h.169Zm-.339,0h-.17v-.688h.17Zm-.338,0h-.17v-.688h.17Zm-.339,0h-.17v-.688h.17Zm-.338,0h-.17v-.688h.17Zm-.339,0h-.17v-.688h.17Zm-.339,0h-.169v-.688h.169Zm-.338,0h-.17v-.688h.17Zm-.34,0h-.168v-.688h.168Zm-.338,0H476.3v-.688h.168Zm-.338,0h-.169v-.688h.169Zm-.339,0h-.168v-.688h.168Zm-.339,0h-.168v-.688h.168Zm-.338,0h-.17v-.688h.17Zm-.338,0H474.6v-.688h.169Zm-.339,0h-.17v-.688h.17Zm-.338,0h-.17v-.688h.17Zm-.339,0h-.169v-.688h.169Zm-.338,0h-.17v-.688h.17Zm-.338,0h-.17v-.688h.17Zm-.34,0h-.169v-.688h.169Zm-.338,0h-.169v-.688h.169Zm-.339,0h-.17v-.688h.17Zm-.339,0h-.169v-.688h.169Zm-.339,0h-.169v-.688h.169Z" transform="translate(-471.215 129.881)" fill="#778aa1"/>
                  </g>
                </g>
                <g id="Group_84268" data-name="Group 84268" transform="translate(8.725)">
                  <g id="Group_84267" data-name="Group 84267">
                    <rect id="Rectangle_23907" data-name="Rectangle 23907" width="0.086" height="0.688" fill="#778aa1"/>
                  </g>
                </g>
              </g>
            </g>
            <g id="Group_84275" data-name="Group 84275" transform="translate(4.231 10.308)">
              <g id="Group_84272" data-name="Group 84272">
                <g id="Group_84271" data-name="Group 84271">
                  <path id="Path_91922" data-name="Path 91922" d="M479.564-156.167h-.339a.008.008,0,0,1,0,0c0,.021,0,.041,0,.062a.846.846,0,0,1,0,.093.444.444,0,0,1,0,.062,1.278,1.278,0,0,1-.031.182c0,.016-.007.029-.01.043a.533.533,0,0,1-.022.071,1.457,1.457,0,0,1-.055.149c-.021.047-.044.093-.068.139a1.838,1.838,0,0,1-.127.2c-.015.021-.032.041-.048.061-.032.042-.069.081-.105.12s-.074.073-.113.107-.081.069-.124.1-.086.062-.13.091-.092.057-.137.081-.094.05-.144.072-.1.045-.147.063l-.151.054c-.052.015-.1.031-.155.043l-.139.031-.02,0c-.052.008-.1.017-.16.024l-.017,0-.144.012c-.054,0-.109,0-.163,0s-.108,0-.16,0-.109-.007-.16-.014c-.032,0-.062-.008-.094-.012s-.046-.006-.068-.012c-.053-.009-.1-.021-.157-.032s-.1-.028-.154-.043-.1-.035-.152-.054a1.6,1.6,0,0,1-.148-.063,1.247,1.247,0,0,1-.143-.072c-.047-.026-.094-.052-.138-.081a1.43,1.43,0,0,1-.131-.091c-.039-.029-.077-.061-.115-.093,0,0,0,0-.009-.006-.039-.034-.077-.07-.113-.108-.012-.013-.025-.026-.036-.04a.738.738,0,0,1-.056-.065l-.013-.014a1.382,1.382,0,0,1-.093-.126l-.011-.015c-.024-.034-.044-.07-.065-.106,0,0,0-.007-.007-.01-.024-.045-.048-.091-.068-.14-.011-.024-.021-.05-.029-.074a1.24,1.24,0,0,1-.065-.219c-.009-.041-.016-.085-.021-.127a1.242,1.242,0,0,1-.012-.183c0-.021,0-.039,0-.061h0l0-.005h-.34c0,.023,0,.045,0,.067v0a1.356,1.356,0,0,0,.012.189.112.112,0,0,0,0,.026c0,.034.008.069.014.1a.011.011,0,0,0,0,.008c0,.009,0,.018.005.027a.023.023,0,0,0,0,.012.019.019,0,0,0,0,.011,1.4,1.4,0,0,0,.048.183,1.372,1.372,0,0,0,.067.177c.025.058.053.114.084.169,0,.007.009.016.012.023.018.032.038.063.059.094a.345.345,0,0,0,.029.043,1.681,1.681,0,0,0,.111.148c.013.015.024.031.038.046a.42.42,0,0,0,.035.04c.017.019.034.036.051.053.043.045.088.088.133.127s.088.074.132.108l.012.009c.048.036.1.072.15.1l.026.018c.032.021.067.041.1.061l.03.017c.053.029.107.057.163.082l.018.009c.032.015.065.029.1.043l.052.02c.057.022.116.041.173.061s.118.034.177.05.118.028.178.038.12.019.18.026.122.014.183.017.119,0,.18,0h0c.062,0,.122,0,.182-.007a.115.115,0,0,0,.026,0l.156-.015c.06-.007.122-.015.18-.028s.119-.023.178-.038.119-.031.176-.05a.362.362,0,0,0,.043-.013c.043-.014.087-.03.129-.047.059-.022.114-.046.168-.071h0c.03-.013.057-.026.085-.04s.055-.029.081-.043h0c.053-.03.107-.061.156-.093s.1-.069.151-.106.1-.076.142-.118a.391.391,0,0,0,.04-.034c.017-.015.032-.03.049-.046a.176.176,0,0,0,.024-.023.205.205,0,0,1,.022-.024c.042-.045.086-.092.124-.14s.077-.1.112-.149a1.672,1.672,0,0,0,.1-.159c.013-.022.025-.046.037-.069a.931.931,0,0,0,.047-.1,1.208,1.208,0,0,0,.065-.175h0c.009-.031.019-.06.025-.092a.592.592,0,0,0,.021-.088.005.005,0,0,0,0,0c.013-.062.022-.124.03-.187a.22.22,0,0,0,0-.026.446.446,0,0,0,.006-.069c0-.03,0-.063,0-.094v-.008C479.565-156.128,479.565-156.147,479.564-156.167Z" transform="translate(-474.438 156.167)" fill="#516675"/>
                </g>
              </g>
              <g id="Group_84274" data-name="Group 84274">
                <g id="Group_84273" data-name="Group 84273">
                  <path id="Path_91923" data-name="Path 91923" d="M477-154.293c-.055,0-.108,0-.16,0l-.02.344c.059,0,.119,0,.18,0h0Zm.324-.019-.017,0-.144.012.02.342v0l.026,0,.156-.015Zm-.738-.012c-.024,0-.046-.006-.068-.012l-.06.339c.06.01.12.019.18.026l.043-.341C476.65-154.315,476.62-154.32,476.588-154.324Zm1.057-.046-.139.031-.02,0,.062.337c.06-.01.119-.023.178-.038Zm-1.436-.041-.1.327c.059.019.118.034.177.05l.081-.333C476.311-154.382,476.259-154.4,476.209-154.411Zm1.742-.055-.151.054.1.326v0c.014,0,.029-.009.043-.015.043-.014.087-.03.129-.047Zm-2.043-.062-.145.311v0a.109.109,0,0,0,.018.007c.032.015.065.029.1.043l.052.02.124-.32A1.6,1.6,0,0,1,475.908-154.528Zm2.333-.074c-.047.026-.095.05-.144.072l.144.311h0a.674.674,0,0,0,.085-.041c.028-.014.055-.029.081-.043h0Zm-2.614-.079-.186.287v0l.026.016c.032.021.067.041.1.061a.266.266,0,0,0,.03.019v0l.165-.3C475.719-154.626,475.672-154.652,475.628-154.681Zm3.089.179-.207-.272c-.041.031-.086.062-.13.091l.186.287h0c.052-.034.1-.068.151-.106Zm-3.334-.364s0,0-.009-.006l-.225.256v0c.042.037.086.072.132.106l.012.01h0l.206-.274C475.458-154.8,475.42-154.833,475.382-154.866Zm3.611.12-.246-.237c-.036.037-.074.073-.113.107l.225.256v0c.013-.012.026-.022.038-.036s.032-.03.049-.046a.176.176,0,0,0,.024-.023l.023-.022Zm-3.769-.274a.738.738,0,0,1-.056-.065l-.013-.014-.265.216v0c.012.015.024.029.039.044a.42.42,0,0,0,.035.04c.015.019.032.036.05.055l0,0,.246-.237C475.248-154.994,475.235-155.006,475.224-155.02Zm4.005-.015-.282-.193c-.014.022-.032.043-.047.063s-.032.041-.048.061l.265.217,0,0c.039-.05.077-.1.111-.15Zm-4.179-.205c-.022-.034-.044-.07-.065-.106,0,0,0-.007-.007-.01l-.3.166h0l.014.023c.018.032.038.063.059.094a.288.288,0,0,0,.027.043h0l.282-.194Zm4.361-.124-.314-.136c-.021.047-.044.093-.068.139l.3.167h0c.012-.022.024-.044.036-.069s.034-.066.049-.1Zm-4.53-.206a.565.565,0,0,1-.027-.071l-.326.105a1.372,1.372,0,0,0,.067.177l.314-.137C474.9-155.521,474.889-155.546,474.88-155.57Zm4.31-.223a.233.233,0,0,1-.008.031c0,.016-.007.029-.01.043a.533.533,0,0,1-.022.071v0l.325.107h0c.009-.031.019-.06.025-.092a.592.592,0,0,0,.021-.088.005.005,0,0,0,0,0Zm-4.4-.123a.079.079,0,0,1,0-.025l-.34.036h0c0,.008,0,.017,0,.026,0,.034.008.069.014.1a.011.011,0,0,0,0,.008c0,.009,0,.018.005.027a.023.023,0,0,0,0,.012.044.044,0,0,0,0,.011h0l.336-.071C474.806-155.831,474.8-155.874,474.794-155.917Zm4.427-.183a.846.846,0,0,1,0,.093.444.444,0,0,1,0,.062l.342.034a.22.22,0,0,0,0-.026.446.446,0,0,0,.006-.069c0-.03,0-.063,0-.094v-.008Zm-4.441-.067h-.34c0,.023,0,.045,0,.067v0l.344,0c0-.021,0-.039,0-.061h0Z" transform="translate(-474.438 156.167)" fill="#778aa1"/>
                </g>
              </g>
            </g>
            <g id="Group_84276" data-name="Group 84276" transform="translate(1.989 37.303)">
              <path id="Path_91924" data-name="Path 91924" d="M472.4-101.294h-.847a1.675,1.675,0,0,0-1.676,1.678h4.2A1.677,1.677,0,0,0,472.4-101.294Z" transform="translate(-469.881 101.294)" fill="#4b4e54"/>
              <path id="Path_91925" data-name="Path 91925" d="M471.981-97.884h-2.1v.851h4.2v-.851Z" transform="translate(-469.881 99.562)" fill="#4b4e54"/>
            </g>
            <g id="Group_84277" data-name="Group 84277" transform="translate(7.324 37.303)">
              <path id="Path_91926" data-name="Path 91926" d="M483.246-101.294H482.4a1.676,1.676,0,0,0-1.675,1.678h4.2A1.675,1.675,0,0,0,483.246-101.294Z" transform="translate(-480.725 101.294)" fill="#4b4e54"/>
              <path id="Path_91927" data-name="Path 91927" d="M482.823-97.884h-2.1v.851h4.2v-.851Z" transform="translate(-480.725 99.562)" fill="#4b4e54"/>
            </g>
            <g id="Group_84280" data-name="Group 84280" transform="translate(10.535 10.313)">
              <g id="Group_84278" data-name="Group 84278" transform="translate(0.473 4.201)">
                <path id="Path_91928" data-name="Path 91928" d="M488.215-147.617v9.7a1.116,1.116,0,0,0,1.116,1.118,1.118,1.118,0,0,0,1.118-1.118v-9.7Z" transform="translate(-488.215 147.617)" fill="#fcca89"/>
              </g>
              <g id="Group_84279" data-name="Group 84279">
                <path id="Path_91929" data-name="Path 91929" d="M487.253-156.156,487.6-143.4h2.712l-.344-9.874a2.882,2.882,0,0,0-2.047-2.758A1.8,1.8,0,0,0,487.253-156.156Z" transform="translate(-487.253 156.156)" fill="#778aa1"/>
              </g>
            </g>
            <g id="Group_84283" data-name="Group 84283" transform="translate(0 10.313)">
              <g id="Group_84281" data-name="Group 84281" transform="translate(0.344 4.201)">
                <path id="Path_91930" data-name="Path 91930" d="M466.537-147.617v9.7a1.116,1.116,0,0,0,1.116,1.118,1.117,1.117,0,0,0,1.117-1.118v-9.7Z" transform="translate(-466.537 147.617)" fill="#fcca89"/>
              </g>
              <g id="Group_84282" data-name="Group 84282">
                <path id="Path_91931" data-name="Path 91931" d="M468.894-156.156,468.55-143.4h-2.712l.344-9.874a2.881,2.881,0,0,1,2.046-2.758A1.8,1.8,0,0,1,468.894-156.156Z" transform="translate(-465.838 156.156)" fill="#778aa1"/>
              </g>
            </g>
            <g id="Group_84286" data-name="Group 84286" transform="translate(4.573 9.606)">
              <g id="Group_84284" data-name="Group 84284">
                <path id="Path_91932" data-name="Path 91932" d="M477.355-156.213l-.437.63a.159.159,0,0,1-.111.067.162.162,0,0,1-.125-.037l-1.534-1.327h0l-.011-.01.973-.7.7.772Z" transform="translate(-475.133 157.593)" fill="#f2f2f2"/>
              </g>
              <g id="Group_84285" data-name="Group 84285" transform="translate(2.222)">
                <path id="Path_91933" data-name="Path 91933" d="M481.872-156.89l0,0h0l-1.545,1.332a.16.16,0,0,1-.125.037.159.159,0,0,1-.111-.067l-.436-.63.56-.619.689-.762Z" transform="translate(-479.65 157.593)" fill="#f2f2f2"/>
              </g>
            </g>
          </g>
          <g id="Group_84332" data-name="Group 84332" transform="translate(11.894 0.626)">
            <g id="Group_84291" data-name="Group 84291" transform="translate(3.759)">
              <g id="Group_84288" data-name="Group 84288" transform="translate(1.288 9.262)">
                <path id="Path_91934" data-name="Path 91934" d="M505.18-154.908c0,.414-1.1.747-2.454.747s-2.451-.333-2.451-.747c.429,0,1.074-.347,1.074-.776v-1.337h2.756v1.337C504.106-155.255,504.749-154.908,505.18-154.908Z" transform="translate(-500.275 157.021)" fill="#f0bc7a"/>
              </g>
              <g id="Group_84289" data-name="Group 84289">
                <path id="Path_91935" data-name="Path 91935" d="M505.129-172.325a13.772,13.772,0,0,1-.444,2.519h-6.58a13.961,13.961,0,0,1-.44-2.519,2.807,2.807,0,0,1,.11-1.025,3.736,3.736,0,0,1,3.621-2.5,3.881,3.881,0,0,1,1.905.491,4.016,4.016,0,0,1,.888.675A3.05,3.05,0,0,1,505.129-172.325Z" transform="translate(-497.657 175.848)" fill="#8c5919"/>
              </g>
              <g id="Group_84290" data-name="Group 84290" transform="translate(0.446 0.332)">
                <path id="Path_91936" data-name="Path 91936" d="M505.15-171.876v2.3a5.129,5.129,0,0,1-1.914,3.358,2.54,2.54,0,0,1-1.2.575c-.027,0-.057.005-.085.008l-.089,0h0a1.477,1.477,0,0,1-.171-.011,2.483,2.483,0,0,1-1.205-.571,5.124,5.124,0,0,1-1.917-3.36v-2.3a3.293,3.293,0,0,1,3.293-3.3A3.294,3.294,0,0,1,505.15-171.876Z" transform="translate(-498.563 175.173)" fill="#fcca89"/>
              </g>
            </g>
            <g id="Group_84292" data-name="Group 84292" transform="translate(2.828 11.372)">
              <path id="Path_91937" data-name="Path 91937" d="M505.108-152.593v32.434h-3.681l-.489-15.252a.5.5,0,0,0-.5-.474.5.5,0,0,0-.5.474l-.491,15.252h-3.676v-32.434a3.038,3.038,0,0,1,.46-.121.572.572,0,0,1,.067-.007.035.035,0,0,1,.016,0v0a.042.042,0,0,1,.017,0,.019.019,0,0,1,.016,0c.048,0,.1-.007.158-.007h1.484c0,.143.138.277.365.389a1.739,1.739,0,0,0,.169.074l0,0a4.929,4.929,0,0,0,1.3.257c.041,0,.08.009.122.012a.457.457,0,0,1,.052,0c.144.007.29.012.442.012a5.631,5.631,0,0,0,1.919-.286h0a1.881,1.881,0,0,0,.239-.112c.031-.019.072-.038.1-.057a.09.09,0,0,1,.012-.012.565.565,0,0,0,.131-.128.286.286,0,0,0,.05-.15v0h1.485c.067,0,.125,0,.177.007a.014.014,0,0,1,.014,0,.056.056,0,0,1,.02,0,.6.6,0,0,1,.066.007A3.148,3.148,0,0,1,505.108-152.593Z" transform="translate(-495.765 152.731)" fill="#585a5c"/>
            </g>
            <g id="Group_84293" data-name="Group 84293" transform="translate(2.637 11.372)">
              <path id="Path_91938" data-name="Path 91938" d="M505.1-152.593v15.647h-9.723v-15.647c.067-.021.134-.038.2-.052.024-.007.046-.012.07-.017.043-.009.086-.019.128-.024s.079-.011.118-.016a.113.113,0,0,1,.04,0,.643.643,0,0,1,.1-.007.569.569,0,0,1,.067-.007.035.035,0,0,1,.016,0v0a.042.042,0,0,1,.017,0,.019.019,0,0,1,.016,0c.052,0,.1-.007.158-.007h1.484l.534.462,0,0,1.321,1.139.594-.856.593.856,1.326-1.142h0l.532-.459v0h1.485c.06,0,.119,0,.177.007a.014.014,0,0,1,.014,0,.057.057,0,0,1,.02,0,.6.6,0,0,1,.066.007A2.719,2.719,0,0,1,505.1-152.593Z" transform="translate(-495.376 152.731)" fill="#4b4e54"/>
            </g>
            <g id="Group_84294" data-name="Group 84294" transform="translate(2.637 11.372)">
              <path id="Path_91939" data-name="Path 91939" d="M500.118-147.018l-.241.589v9.483h-4.5v-15.647c.067-.021.134-.038.2-.052.024-.007.046-.012.07-.017.043-.009.086-.019.128-.024s.079-.011.118-.016a.113.113,0,0,1,.04,0,.95.95,0,0,1,.162-.014.035.035,0,0,1,.016,0,.021.021,0,0,1,.017,0,.019.019,0,0,1,.016,0c.052,0,.1-.007.158-.007h.9l1.149,2.737-.757-.112Z" transform="translate(-495.376 152.731)" fill="#4b4e54"/>
            </g>
            <g id="Group_84295" data-name="Group 84295" transform="translate(7.139 11.372)">
              <path id="Path_91940" data-name="Path 91940" d="M509.748-152.593v15.647h-5.221v-9.483l.36-.444,2.649-3.233-.5.073-.258.038.028-.069,1.119-2.668h.9c.06,0,.119,0,.177.007a.014.014,0,0,1,.014,0,.057.057,0,0,1,.02,0A2.913,2.913,0,0,1,509.748-152.593Z" transform="translate(-504.527 152.731)" fill="#4b4e54"/>
            </g>
            <g id="Group_84296" data-name="Group 84296" transform="translate(6.698 11.373)">
              <path id="Path_91941" data-name="Path 91941" d="M508.854-152.592v15.647h-5.223v-9.485l.36-.442,2.65-3.235-.757.112,1.147-2.735h.9A3.114,3.114,0,0,1,508.854-152.592Z" transform="translate(-503.631 152.73)" fill="#b3b3b3"/>
            </g>
            <g id="Group_84297" data-name="Group 84297" transform="translate(7.139 11.372)">
              <path id="Path_91942" data-name="Path 91942" d="M509.748-152.593v15.647h-5.221v-9.483l.36-.444,2.649-3.233-.5.073-.258.038.028-.069,1.119-2.668h.9c.06,0,.119,0,.177.007a.014.014,0,0,1,.014,0,.057.057,0,0,1,.02,0A2.913,2.913,0,0,1,509.748-152.593Z" transform="translate(-504.527 152.731)" fill="#4b4e54"/>
            </g>
            <g id="Group_84298" data-name="Group 84298" transform="translate(4.459 11.373)">
              <path id="Path_91943" data-name="Path 91943" d="M504.013-149.994l.757-.112-2.651,3.235-.36.442.242-.588-2.529-3.089.757.112-1.148-2.735h.588l.377.324v0l.161.139,1.32,1.14.593-.855.594.855,1.326-1.144.156-.133v0l.376-.323v0h.588Z" transform="translate(-499.081 152.73)" fill="#4b4e54"/>
            </g>
            <g id="Group_84299" data-name="Group 84299" transform="translate(5.585 11.838)">
              <path id="Path_91944" data-name="Path 91944" d="M503.281-151.5l-.593.855-1.32-1.14a4.807,4.807,0,0,0,1.3.258c.039,0,.077.01.121.012.017,0,.037,0,.053,0C502.984-151.506,503.131-151.5,503.281-151.5Z" transform="translate(-501.368 151.785)" fill="#4b4e54"/>
            </g>
            <g id="Group_84300" data-name="Group 84300" transform="translate(7.498 11.834)">
              <path id="Path_91945" data-name="Path 91945" d="M507.178-151.793l-1.327,1.144-.594-.855A5.608,5.608,0,0,0,507.178-151.793Z" transform="translate(-505.257 151.793)" fill="#4b4e54"/>
            </g>
            <g id="Group_84301" data-name="Group 84301" transform="translate(2.196 41.159)">
              <path id="Path_91946" data-name="Path 91946" d="M497.263-92.184h-.934a1.848,1.848,0,0,0-1.85,1.851h4.634A1.85,1.85,0,0,0,497.263-92.184Z" transform="translate(-494.48 92.184)" fill="#4b4e54"/>
              <path id="Path_91947" data-name="Path 91947" d="M496.8-88.423H494.48v.939h4.634v-.939Z" transform="translate(-494.48 90.273)" fill="#4b4e54"/>
            </g>
            <g id="Group_84302" data-name="Group 84302" transform="translate(8.082 41.159)">
              <path id="Path_91948" data-name="Path 91948" d="M509.227-92.184h-.934a1.85,1.85,0,0,0-1.849,1.851h4.631A1.848,1.848,0,0,0,509.227-92.184Z" transform="translate(-506.444 92.184)" fill="#4b4e54"/>
              <path id="Path_91949" data-name="Path 91949" d="M508.759-88.423h-2.315v.939h4.631v-.939Z" transform="translate(-506.444 90.273)" fill="#4b4e54"/>
            </g>
            <g id="Group_84305" data-name="Group 84305" transform="translate(11.627 11.38)">
              <g id="Group_84303" data-name="Group 84303" transform="translate(0.52 4.634)">
                <path id="Path_91950" data-name="Path 91950" d="M514.709-143.3v10.7a1.233,1.233,0,0,0,1.232,1.234,1.234,1.234,0,0,0,1.233-1.234v-10.7Z" transform="translate(-514.709 143.297)" fill="#fcca89"/>
              </g>
              <g id="Group_84304" data-name="Group 84304">
                <path id="Path_91951" data-name="Path 91951" d="M517.023-138.645h-2.992l-.087-3.187-.291-10.824,0-.06a.057.057,0,0,1,.02,0,2.914,2.914,0,0,1,.712.128h0a3.182,3.182,0,0,1,2.255,3.045Z" transform="translate(-513.651 152.716)" fill="#585a5c"/>
              </g>
            </g>
            <g id="Group_84308" data-name="Group 84308" transform="translate(0 11.38)">
              <g id="Group_84306" data-name="Group 84306" transform="translate(0.381 4.634)">
                <path id="Path_91952" data-name="Path 91952" d="M490.79-143.3v10.7a1.232,1.232,0,0,0,1.231,1.234,1.235,1.235,0,0,0,1.234-1.234v-10.7Z" transform="translate(-490.79 143.297)" fill="#fcca89"/>
              </g>
              <g id="Group_84307" data-name="Group 84307">
                <path id="Path_91953" data-name="Path 91953" d="M493.387-152.716l-.379,14.071h-2.993l.38-10.9a3.184,3.184,0,0,1,2.257-3.045c.067-.021.134-.038.2-.052.024-.007.046-.012.07-.017.043-.009.086-.019.128-.024s.079-.011.118-.016a.113.113,0,0,1,.04,0,.95.95,0,0,1,.162-.014A.035.035,0,0,1,493.387-152.716Z" transform="translate(-490.016 152.716)" fill="#585a5c"/>
              </g>
            </g>
            <g id="Group_84309" data-name="Group 84309" transform="translate(5.047 11.235)">
              <path id="Path_91954" data-name="Path 91954" d="M502.726-147.237l-1.913-3.668-.538-1.929,1.027-.04,1.423,1.4,1.8-1.535.849.21-1.691,4.111Z" transform="translate(-500.275 153.011)" fill="#e6e6e6"/>
            </g>
            <g id="Group_84312" data-name="Group 84312" transform="translate(6.85 12.122)">
              <g id="Group_84310" data-name="Group 84310" transform="translate(0 0)">
                <rect id="Rectangle_23908" data-name="Rectangle 23908" width="0.916" height="0.916" transform="translate(0 0.648) rotate(-45.02)" fill="#4b4e54"/>
              </g>
              <g id="Group_84311" data-name="Group 84311" transform="translate(0 0)">
                <path id="Path_91955" data-name="Path 91955" d="M504.588-146.32l-.648-1.1.648-3.784.647,3.784Z" transform="translate(-503.941 151.208)" fill="#4b4e54"/>
              </g>
            </g>
            <g id="Group_84315" data-name="Group 84315" transform="translate(7.245 18.085)">
              <g id="Group_84313" data-name="Group 84313">
                <path id="Path_91956" data-name="Path 91956" d="M505.248-138.834a.253.253,0,0,1-.252.252.253.253,0,0,1-.253-.252.253.253,0,0,1,.253-.253A.252.252,0,0,1,505.248-138.834Z" transform="translate(-504.743 139.087)" fill="#585a5c"/>
              </g>
              <g id="Group_84314" data-name="Group 84314" transform="translate(0.085 0.185)">
                <path id="Path_91957" data-name="Path 91957" d="M505.184-138.577h-.2a.066.066,0,0,1-.066-.066.067.067,0,0,1,.066-.067h.2a.067.067,0,0,1,.066.067A.066.066,0,0,1,505.184-138.577Z" transform="translate(-504.916 138.71)" fill="#585a5c"/>
              </g>
            </g>
            <g id="Group_84318" data-name="Group 84318" transform="translate(7.245 20.882)">
              <g id="Group_84316" data-name="Group 84316">
                <path id="Path_91958" data-name="Path 91958" d="M505.248-133.147a.253.253,0,0,1-.252.252.253.253,0,0,1-.253-.252A.254.254,0,0,1,505-133.4.253.253,0,0,1,505.248-133.147Z" transform="translate(-504.743 133.4)" fill="#585a5c"/>
              </g>
              <g id="Group_84317" data-name="Group 84317" transform="translate(0.085 0.186)">
                <path id="Path_91959" data-name="Path 91959" d="M505.184-132.888h-.2a.067.067,0,0,1-.066-.067.067.067,0,0,1,.066-.066h.2a.066.066,0,0,1,.066.066A.067.067,0,0,1,505.184-132.888Z" transform="translate(-504.916 133.021)" fill="#585a5c"/>
              </g>
            </g>
            <g id="Group_84319" data-name="Group 84319" transform="translate(3.932 3.88)">
              <path id="Path_91960" data-name="Path 91960" d="M498.554-167.176c0,.6-.121,1.091-.273,1.091-.092,0-.173-.183-.224-.464a3.856,3.856,0,0,1-.049-.627,2.253,2.253,0,0,1,.049-.525c.051-.191.132-.259.224-.259C498.434-167.961,498.554-167.78,498.554-167.176Z" transform="translate(-498.008 167.961)" fill="#fcca89"/>
            </g>
            <g id="Group_84320" data-name="Group 84320" transform="translate(10.519 3.88)">
              <path id="Path_91961" data-name="Path 91961" d="M511.944-167.176a3.9,3.9,0,0,1-.047.618c-.05.285-.134.473-.226.473-.15,0-.273-.49-.273-1.091s.123-.785.273-.785c.092,0,.176.07.226.265A2.3,2.3,0,0,1,511.944-167.176Z" transform="translate(-511.398 167.961)" fill="#fcca89"/>
            </g>
            <g id="Group_84321" data-name="Group 84321" transform="translate(3.877)">
              <path id="Path_91962" data-name="Path 91962" d="M505.011-172.748c-.158.346-.342.488-.539.5,0,.393-1.248-.3-1.667-.619a1.9,1.9,0,0,0,.139.448c.344.722-1.151-.092-1.616-.448a1.859,1.859,0,0,0,.14.448c.342.722-1.151-.092-1.618-.448a1.978,1.978,0,0,0,.14.448c.375.792-1.458-.265-1.72-.534-.133-.137-.258-.266-.373-.4a3.736,3.736,0,0,1,3.621-2.5,3.881,3.881,0,0,1,1.905.491,4.017,4.017,0,0,1,.888.675c0,.084,0,.135,0,.135s0,.023-.01.062A3.5,3.5,0,0,1,505.011-172.748Z" transform="translate(-497.897 175.848)" fill="#8c5919"/>
            </g>
            <g id="Group_84322" data-name="Group 84322" transform="translate(4.178 2.828)">
              <path id="Path_91963" data-name="Path 91963" d="M498.878-168.509a.371.371,0,0,1-.37.371V-170.1h.37Z" transform="translate(-498.508 170.099)" fill="#8c5919"/>
            </g>
            <g id="Group_84323" data-name="Group 84323" transform="translate(10.449 2.827)">
              <path id="Path_91964" data-name="Path 91964" d="M511.627-168.139a.37.37,0,0,1-.371-.37V-170.1h.371Z" transform="translate(-511.256 170.101)" fill="#8c5919"/>
            </g>
            <g id="Group_84324" data-name="Group 84324" transform="translate(5.047 10.599)">
              <path id="Path_91965" data-name="Path 91965" d="M502.726-152.78l-.593.855-1.32-1.14-.538-.465,1.074-.774Z" transform="translate(-500.275 154.303)" fill="#f2f2f2"/>
            </g>
            <g id="Group_84325" data-name="Group 84325" transform="translate(7.498 10.599)">
              <path id="Path_91966" data-name="Path 91966" d="M507.711-153.527l-.533.459-1.326,1.144-.594-.855,1.38-1.523Z" transform="translate(-505.257 154.303)" fill="#f2f2f2"/>
            </g>
            <g id="Group_84328" data-name="Group 84328" transform="translate(7.138 11.235)">
              <g id="Group_84326" data-name="Group 84326" transform="translate(0 2.762)">
                <path id="Path_91967" data-name="Path 91967" d="M507.536-147.4l-2.651,3.235-.36.442.242-.588.119-.3,1.041-2.553.852-.127Z" transform="translate(-504.525 147.398)" fill="#585a5c"/>
              </g>
              <g id="Group_84327" data-name="Group 84327" transform="translate(1.402)">
                <path id="Path_91968" data-name="Path 91968" d="M509.719-152.873l-1.493,2.735-.852.127,1.035-2.534v0l.183-.463Z" transform="translate(-507.374 153.011)" fill="#585a5c"/>
              </g>
            </g>
            <g id="Group_84331" data-name="Group 84331" transform="translate(4.113 11.235)">
              <g id="Group_84329" data-name="Group 84329" transform="translate(0.737 2.762)">
                <path id="Path_91969" data-name="Path 91969" d="M502.523-144.608v.446l-.119-.146-2.529-3.089.757.112.851.127Z" transform="translate(-499.875 147.398)" fill="#585a5c"/>
              </g>
              <g id="Group_84330" data-name="Group 84330">
                <path id="Path_91970" data-name="Path 91970" d="M500.722-150.01l-.851-.127-1.494-2.735,1.127-.139.183.463v0Z" transform="translate(-498.377 153.011)" fill="#585a5c"/>
              </g>
            </g>
          </g>
        </g>
      </g>
    </g>
  </g>
</svg>
