<svg xmlns="http://www.w3.org/2000/svg" xmlns:xlink="http://www.w3.org/1999/xlink" width="928" height="132.5" viewBox="0 0 928 132.5">
  <defs>
    <linearGradient id="linear-gradient" y1="1" x2="1" y2="1" gradientUnits="objectBoundingBox">
      <stop offset="0" stop-color="#d3e9f8"/>
      <stop offset="0.502" stop-color="#b1d4eb"/>
      <stop offset="1" stop-color="#d7eefe"/>
    </linearGradient>
  </defs>
  <g id="goodness-5" transform="translate(-8850 1113)">
    <g id="Rectangle_23918" data-name="Rectangle 23918" transform="translate(8850 -1113)" fill="#fff" stroke="#707070" stroke-width="1" opacity="0">
      <rect width="928" height="132" stroke="none"/>
      <rect x="0.5" y="0.5" width="927" height="131" fill="none"/>
    </g>
    <g id="goodness-4" transform="translate(447 245)">
      <rect id="Rectangle_23917" data-name="Rectangle 23917" width="132" height="132" transform="translate(9199 -1358)" fill="#fff" opacity="0"/>
      <g id="Group_84215" data-name="Group 84215" transform="translate(-1696 -1021)">
        <g id="Group_84214" data-name="Group 84214" transform="translate(10917 -311)">
          <g id="Group_84032" data-name="Group 84032" transform="translate(59.916 1.007)">
            <g id="Group_84001" data-name="Group 84001" transform="translate(0 23.345)">
              <path id="Path_91769" data-name="Path 91769" d="M166.53,157.4H148.089a5.322,5.322,0,0,0-5.322,5.322v27.8a2.661,2.661,0,1,0,5.322,0V164.83a.63.63,0,0,1,.63-.63H165.9a.63.63,0,0,1,.63.63v25.694a2.66,2.66,0,1,0,5.32,0v-27.8A5.322,5.322,0,0,0,166.53,157.4Z" transform="translate(-142.767 -157.401)" fill="#fcca89"/>
            </g>
            <g id="Group_84002" data-name="Group 84002" transform="translate(0 23.345)">
              <path id="Path_91770" data-name="Path 91770" d="M171.851,162.836v-.114a5.321,5.321,0,0,0-5.32-5.32H148.089a5.322,5.322,0,0,0-5.322,5.32V185.07h5.322V164.828a.629.629,0,0,1,.63-.629H165.9a.629.629,0,0,1,.63.629V185.07h5.32Z" transform="translate(-142.767 -157.401)" fill="#416691"/>
            </g>
            <g id="Group_84009" data-name="Group 84009" transform="translate(6.529 0)">
              <g id="Group_84003" data-name="Group 84003" transform="translate(0.6 7.421)">
                <rect id="Rectangle_23894" data-name="Rectangle 23894" width="14.614" height="18.741" fill="#4b4e54"/>
              </g>
              <g id="Group_84004" data-name="Group 84004" transform="translate(2.615 18.788)">
                <path id="Path_91771" data-name="Path 91771" d="M161.194,158.054c0,.892-2.367,1.613-5.295,1.613s-5.29-.721-5.29-1.613c.926,0,2.317-.75,2.317-1.676v-2.886h5.95v2.886C158.876,157.3,160.266,158.054,161.194,158.054Z" transform="translate(-150.609 -153.493)" fill="#f0bc7a"/>
              </g>
              <g id="Group_84005" data-name="Group 84005" transform="translate(1.483 2.368)">
                <path id="Path_91772" data-name="Path 91772" d="M162.48,144.021v5.028c0,.079,0,.161-.008.241a11.621,11.621,0,0,1-3.724,7.008,4.776,4.776,0,0,1-2.345,1.241c-.056.008-.111.012-.168.015s-.113,0-.173,0h0a2.474,2.474,0,0,1-.332-.023,4.675,4.675,0,0,1-2.353-1.233,11.634,11.634,0,0,1-3.73-7.012c0-.08-.007-.162-.007-.241V144a4,4,0,0,1,.127-.5c.724-2.359,3.365-4.087,6.3-4.087a7.075,7.075,0,0,1,3.309.8,7.156,7.156,0,0,1,1.547,1.1A5.26,5.26,0,0,1,162.48,144.021Z" transform="translate(-149.638 -139.411)" fill="#fcca89"/>
              </g>
              <g id="Group_84006" data-name="Group 84006" transform="translate(0.895 8.124)">
                <path id="Path_91773" data-name="Path 91773" d="M149.722,144.347v4.05c-.2,0-.372-.393-.483-1a8.1,8.1,0,0,1-.1-1.351,4.79,4.79,0,0,1,.1-1.134C149.35,144.5,149.526,144.347,149.722,144.347Z" transform="translate(-149.134 -144.347)" fill="#fcca89"/>
              </g>
              <g id="Group_84007" data-name="Group 84007" transform="translate(14.325 8.124)">
                <path id="Path_91774" data-name="Path 91774" d="M161.242,146.042a8.227,8.227,0,0,1-.1,1.335c-.106.614-.287,1.019-.487,1.019v-4.05c.2,0,.381.15.487.574A4.873,4.873,0,0,1,161.242,146.042Z" transform="translate(-160.652 -144.347)" fill="#fcca89"/>
              </g>
              <g id="Group_84008" data-name="Group 84008">
                <path id="Path_91775" data-name="Path 91775" d="M164.107,163.739c0-.076-2.847-3.237-2.847-3.313l1.911-14.918s-4.3.084-6.9.084c-2.533,0-6.9-.084-6.9-.084l2.14,14.918c0,.076-3.074,3.237-3.074,3.313-.2,0,.108-17.773.018-18.978a5.9,5.9,0,0,1,.23-2.147,7.826,7.826,0,0,1,7.588-5.234,8.126,8.126,0,0,1,3.99,1.03,8.306,8.306,0,0,1,1.86,1.414,6.394,6.394,0,0,1,1.973,4.937C164,145.965,164.313,163.739,164.107,163.739Z" transform="translate(-148.366 -137.38)" fill="#4b4e54"/>
              </g>
            </g>
            <g id="Group_84010" data-name="Group 84010" transform="translate(9.838 23.458)">
              <path id="Path_91776" data-name="Path 91776" d="M160.616,157.527l-.219.557-.006.007-.866,2.134-7.237-.044-.854-2.093v0l-.23-.587C153.2,157.634,158.95,157.584,160.616,157.527Z" transform="translate(-151.204 -157.498)" fill="#f0bc7a"/>
            </g>
            <g id="Group_84011" data-name="Group 84011" transform="translate(5.579 23.343)">
              <path id="Path_91777" data-name="Path 91777" d="M165.089,168.708l-.887,11.517.732,5.378L164.71,205l-.9,22.71h-5.9l-.1-22.71-.328-10.213a1.088,1.088,0,0,0-2.172,0L154.991,205l-.1,22.71H149L148.1,205l-.226-19.365.737-5.41-.933-11.462-.129-11.061c.407-.126.142-.217.1-.266-.01-.015,0-.028.106-.028.017,0,.038,0,.064,0a.755.755,0,0,1,.092,0h3.209c0,.049.255.085.691.114l.23.587v0l.853,2.093,7.237.044.866-2.134L161,158.1l.219-.557a3.117,3.117,0,0,0,.458-.029.3.3,0,0,0,.019-.111v0h3.207c.69,0-.271.106.356.3Z" transform="translate(-147.552 -157.4)" fill="#fcca89"/>
            </g>
            <g id="Group_84014" data-name="Group 84014" transform="translate(5.497 88.938)">
              <g id="Group_84012" data-name="Group 84012">
                <path id="Path_91778" data-name="Path 91778" d="M152.193,213.656h-1.581a3.129,3.129,0,0,0-3.131,3.132h7.841A3.132,3.132,0,0,0,152.193,213.656Z" transform="translate(-147.481 -213.656)" fill="#616161"/>
              </g>
              <g id="Group_84013" data-name="Group 84013" transform="translate(0 3.132)">
                <path id="Path_91779" data-name="Path 91779" d="M151.4,216.342h-3.921v1.588h7.841v-1.588Z" transform="translate(-147.481 -216.342)" fill="#585a5c"/>
              </g>
            </g>
            <g id="Group_84017" data-name="Group 84017" transform="translate(15.749 88.938)">
              <g id="Group_84015" data-name="Group 84015" transform="translate(0)">
                <path id="Path_91780" data-name="Path 91780" d="M160.981,213.656H159.4a3.125,3.125,0,0,0-3.126,3.132h7.839A3.133,3.133,0,0,0,160.981,213.656Z" transform="translate(-156.274 -213.656)" fill="#616161"/>
              </g>
              <g id="Group_84016" data-name="Group 84016" transform="translate(0 3.132)">
                <path id="Path_91781" data-name="Path 91781" d="M160.192,216.342h-3.918v1.588h7.839v-1.588Z" transform="translate(-156.274 -216.342)" fill="#585a5c"/>
              </g>
            </g>
            <g id="Group_84020" data-name="Group 84020" transform="translate(3.89 23.343)">
              <g id="Group_84018" data-name="Group 84018" transform="translate(0 22.825)">
                <path id="Path_91782" data-name="Path 91782" d="M167.194,201.75H146.1l1.011-16.38a32.035,32.035,0,0,1,.694-4.944c.065-.315.14-.63.217-.944l.83-2.507h15.587l.823,2.461c.082.328.156.659.229.99a32.947,32.947,0,0,1,.683,4.923Z" transform="translate(-146.103 -176.975)" fill="#4677af"/>
              </g>
              <g id="Group_84019" data-name="Group 84019" transform="translate(1.393)">
                <path id="Path_91783" data-name="Path 91783" d="M164.243,180.224l.887-11.517.7-11.009c-.627-.2-.072-.3-.766-.3h-3.205v0l-.133.111-5.163,12.532-5.29-12.646h-3.205c-.089,0-.153,0-.2,0-.026,0-.047,0-.064,0a.282.282,0,0,0-.106.028c-.072.049.013.135-.392.262l.426,11.064.933,11.462-.83,2.507c-.077.315-.152.63-.217.944a17.792,17.792,0,0,0,8.839-3.313,17.816,17.816,0,0,0,8.846,3.313c-.072-.331-.147-.662-.229-.99Z" transform="translate(-147.298 -157.4)" fill="#416691"/>
              </g>
            </g>
            <g id="Group_84023" data-name="Group 84023" transform="translate(14 37.831)">
              <g id="Group_84021" data-name="Group 84021">
                <path id="Path_91784" data-name="Path 91784" d="M155.863,170.372a.545.545,0,1,1-.545-.547A.545.545,0,0,1,155.863,170.372Z" transform="translate(-154.774 -169.825)" fill="#4677af"/>
              </g>
              <g id="Group_84022" data-name="Group 84022" transform="translate(0.17 0.388)">
                <path id="Path_91785" data-name="Path 91785" d="M155.511,170.474h-.434a.158.158,0,0,1,0-.316h.434a.158.158,0,0,1,0,.316Z" transform="translate(-154.92 -170.158)" fill="#1656c1"/>
              </g>
            </g>
            <g id="Group_84026" data-name="Group 84026" transform="translate(14 42.348)">
              <g id="Group_84024" data-name="Group 84024">
                <path id="Path_91786" data-name="Path 91786" d="M155.863,174.245a.545.545,0,1,1-.545-.546A.545.545,0,0,1,155.863,174.245Z" transform="translate(-154.774 -173.699)" fill="#4677af"/>
              </g>
              <g id="Group_84025" data-name="Group 84025" transform="translate(0.17 0.386)">
                <path id="Path_91787" data-name="Path 91787" d="M155.511,174.346h-.434a.158.158,0,0,1,0-.316h.434a.158.158,0,0,1,0,.316Z" transform="translate(-154.92 -174.03)" fill="#1656c1"/>
              </g>
            </g>
            <g id="Group_84028" data-name="Group 84028" transform="translate(9.255 26.128)">
              <g id="Group_84027" data-name="Group 84027">
                <path id="Path_91788" data-name="Path 91788" d="M161.715,159.858l-3.647,6.175-2.073,3.136-.106-.209-4.026-7.705-1.158-1.467,1.666.013,7.237.044Z" transform="translate(-150.704 -159.788)" fill="#ebeef2"/>
              </g>
            </g>
            <g id="Group_84031" data-name="Group 84031" transform="translate(7.241 23.045)">
              <g id="Group_84029" data-name="Group 84029" transform="translate(6.527)">
                <path id="Path_91789" data-name="Path 91789" d="M162.661,157.442l0,.028A17.786,17.786,0,0,1,158,167.258l-2.651,2.83-.777.955.519-1.271.152-.373.106-.266,2.249-5.512,1.364-3.337.866-2.134.006-.007.219-.557.173-.442Z" transform="translate(-154.575 -157.144)" fill="#4677af"/>
              </g>
              <g id="Group_84030" data-name="Group 84030">
                <path id="Path_91790" data-name="Path 91790" d="M156.281,169.126v.962l-.258-.316-2.358-2.506a17.811,17.811,0,0,1-4.689-9.824l2.431-.3.166.413.23.586v0l.853,2.093,1.379,3.381Z" transform="translate(-148.977 -157.144)" fill="#4677af"/>
              </g>
            </g>
          </g>
          <g id="Group_84072" data-name="Group 84072">
            <g id="Group_84043" data-name="Group 84043" transform="translate(8.069 0)">
              <g id="Group_84036" data-name="Group 84036">
                <g id="Group_84033" data-name="Group 84033" transform="translate(2.769 19.895)">
                  <path id="Path_91791" data-name="Path 91791" d="M111.21,158.118c0,.888-2.355,1.606-5.267,1.606s-5.267-.717-5.267-1.606c.923,0,2.306-.745,2.306-1.667v-2.872H108.9v2.872C108.9,157.373,110.286,158.118,111.21,158.118Z" transform="translate(-100.676 -153.579)" fill="#f0bc7a"/>
                </g>
                <g id="Group_84034" data-name="Group 84034">
                  <path id="Path_91792" data-name="Path 91792" d="M114.356,144.083c-.092,1.236-.742,5.413-.951,5.413H99.27c-.209,0-.856-4.178-.951-5.413-.31-4.165,3.58-7.567,8.019-7.567a8.356,8.356,0,0,1,4.091,1.055A7.124,7.124,0,0,1,114.356,144.083Z" transform="translate(-98.301 -136.516)" fill="#4b4e54"/>
                </g>
                <g id="Group_84035" data-name="Group 84035" transform="translate(0.962 0.714)">
                  <path id="Path_91793" data-name="Path 91793" d="M113.275,144.21v4.943c0,2.218-1.89,5.457-4.114,7.213a5.459,5.459,0,0,1-2.585,1.235,1.593,1.593,0,0,1-.183.015c-.059,0-.126.006-.191.006h0a2.82,2.82,0,0,1-.368-.024,5.367,5.367,0,0,1-2.592-1.227c-2.224-1.757-4.114-5-4.114-7.218V144.21a7.075,7.075,0,1,1,14.149,0Z" transform="translate(-99.126 -137.128)" fill="#fcca89"/>
                </g>
              </g>
              <g id="Group_84037" data-name="Group 84037" transform="translate(0.373 8.336)">
                <path id="Path_91794" data-name="Path 91794" d="M99.8,145.35c0,1.293-.264,2.345-.588,2.345-.2,0-.372-.4-.483-1a8.283,8.283,0,0,1-.106-1.347,4.865,4.865,0,0,1,.106-1.13c.111-.408.287-.555.483-.555C99.534,143.665,99.8,144.052,99.8,145.35Z" transform="translate(-98.621 -143.665)" fill="#fcca89"/>
              </g>
              <g id="Group_84038" data-name="Group 84038" transform="translate(14.522 8.336)">
                <path id="Path_91795" data-name="Path 91795" d="M111.93,145.35a8.166,8.166,0,0,1-.1,1.328c-.106.614-.289,1.017-.485,1.017-.323,0-.589-1.052-.589-2.345s.266-1.685.589-1.685c.2,0,.379.148.485.569A4.834,4.834,0,0,1,111.93,145.35Z" transform="translate(-110.756 -143.665)" fill="#fcca89"/>
              </g>
              <g id="Group_84039" data-name="Group 84039" transform="translate(0.69 0.446)">
                <path id="Path_91796" data-name="Path 91796" d="M108.749,136.929s3.1,1.337,4.8.532-.8,2.36-1.379,2.925c-2.172,2.112-3.39,3.3-13.11,2.943-.9-.52,1.992-5.626,5.88-6.4C105.292,136.861,108.749,136.929,108.749,136.929Z" transform="translate(-98.893 -136.899)" fill="#4b4e54"/>
              </g>
              <g id="Group_84040" data-name="Group 84040" transform="translate(8.31 0.877)">
                <path id="Path_91797" data-name="Path 91797" d="M112.655,143.05a8.005,8.005,0,0,1-5.264-2.727c-.581-.562-3.082-3.731-1.377-2.924a4.9,4.9,0,0,0,2.994.048A7.553,7.553,0,0,1,112.655,143.05Z" transform="translate(-105.428 -137.268)" fill="#4b4e54"/>
              </g>
              <g id="Group_84041" data-name="Group 84041" transform="translate(0.902 6.075)">
                <path id="Path_91798" data-name="Path 91798" d="M99.869,145.143a.8.8,0,0,1-.794.8v-4.213h.794Z" transform="translate(-99.075 -141.726)" fill="#4b4e54"/>
              </g>
              <g id="Group_84042" data-name="Group 84042" transform="translate(14.373 6.076)">
                <path id="Path_91799" data-name="Path 91799" d="M111.423,145.939a.8.8,0,0,1-.8-.794v-3.418h.8Z" transform="translate(-110.628 -141.727)" fill="#4b4e54"/>
              </g>
            </g>
            <g id="Group_84044" data-name="Group 84044" transform="translate(6.071 24.431)">
              <path id="Path_91800" data-name="Path 91800" d="M115.082,157.469h-3.191l0,0h0a.56.56,0,0,1-.108.323,1.08,1.08,0,0,1-.279.276l-.026.028c-.058.042-.147.079-.217.121a10.357,10.357,0,0,1-4.637.857c-.324,0-.64-.012-.949-.029-.036,0-.075,0-.113,0-.09,0-.17-.016-.26-.024a9.131,9.131,0,0,1-3.162-.716c-.485-.244-.78-.526-.78-.836h-3.19a4.272,4.272,0,0,0-1.579.3v69.669h7.9l1.055-32.763a1.083,1.083,0,0,1,2.162,0l1.049,32.763h7.908V157.769A4.254,4.254,0,0,0,115.082,157.469Z" transform="translate(-96.588 -157.469)" fill="#36404f"/>
            </g>
            <path id="Path_91801" data-name="Path 91801" d="M117.12,157.766v31.167H96.237V157.766a6.657,6.657,0,0,1,1.983-.3h3.19l.008.013v0c0,.049,0,.094,0,.143a2.963,2.963,0,0,0,.029.433c.013.1.028.2.049.3a3.111,3.111,0,0,0,.154.521c.021.057.044.119.07.175.049.115.106.225.163.331a.161.161,0,0,0,.015.024c.049.084.1.171.155.253l.026.035a2.925,2.925,0,0,0,.224.3.217.217,0,0,0,.028.032,1.832,1.832,0,0,0,.135.155c.026.034.056.063.084.094.086.09.176.175.268.257.011,0,.014.012.021.015.091.079.181.153.274.222a3.373,3.373,0,0,0,.309.216c.106.069.217.131.328.191a2.966,2.966,0,0,0,.338.171c.113.054.23.106.351.152s.24.084.361.126.241.07.366.1.244.056.371.077c.054.013.106.019.164.028.073.008.146.021.219.028.121.017.248.024.38.034s.251.012.379.012.261,0,.387-.012.226-.016.343-.029c.01,0,.028,0,.038,0,.132-.016.258-.037.379-.056a.368.368,0,0,0,.044-.008c.111-.026.222-.049.332-.073s.243-.066.366-.1.24-.083.359-.127.234-.1.347-.15.23-.111.34-.171a3.658,3.658,0,0,0,.325-.192c.106-.069.212-.142.31-.216s.2-.159.294-.241.183-.166.268-.255.173-.183.251-.281c.035-.049.077-.1.113-.147a4.347,4.347,0,0,0,.3-.465c.058-.11.113-.219.162-.329a3.3,3.3,0,0,0,.129-.356.948.948,0,0,0,.049-.167.8.8,0,0,0,.026-.1,2.468,2.468,0,0,0,.072-.431,1.072,1.072,0,0,0,.013-.147c.007-.073.007-.147.007-.22,0-.049,0-.1,0-.147a.019.019,0,0,0,.011-.009v0h3.19A6.632,6.632,0,0,1,117.12,157.766Z" transform="translate(-90.575 -133.038)" fill="#5f7590"/>
            <g id="Group_84045" data-name="Group 84045" transform="translate(10.844 24.444)">
              <path id="Path_91802" data-name="Path 91802" d="M111.2,157.627a1.985,1.985,0,0,1-.008.22,1.071,1.071,0,0,1-.013.147,2.734,2.734,0,0,1-.072.431.807.807,0,0,1-.023.1,1.064,1.064,0,0,1-.051.167,3.2,3.2,0,0,1-.129.354c-.049.111-.1.22-.162.33a4.336,4.336,0,0,1-.3.465c-.036.049-.077.1-.113.146-.078.1-.166.192-.251.282a3.69,3.69,0,0,1-.268.255c-.1.083-.191.164-.294.241s-.2.147-.309.216-.217.135-.325.192-.223.118-.34.171-.23.106-.349.15-.238.085-.359.127-.245.073-.366.1l-.33.072a.41.41,0,0,1-.045.009c-.125.019-.248.04-.38.056-.013,0-.028,0-.041,0l-.34.029c-.127.008-.258.012-.387.012s-.255,0-.379-.012-.258-.019-.379-.034c-.076-.007-.147-.02-.223-.028-.056-.009-.107-.015-.162-.028-.126-.021-.247-.05-.372-.077s-.246-.066-.365-.1-.245-.083-.361-.128a3.771,3.771,0,0,1-.351-.149,3.168,3.168,0,0,1-.338-.171c-.111-.061-.222-.122-.328-.191a3.387,3.387,0,0,1-.309-.216c-.093-.069-.183-.143-.274-.222-.007,0-.009-.01-.02-.015-.093-.082-.183-.167-.268-.256-.029-.032-.059-.061-.085-.094a1.609,1.609,0,0,1-.134-.155c-.013-.013-.021-.02-.031-.031a3.544,3.544,0,0,1-.222-.3.44.44,0,0,1-.026-.037c-.057-.079-.106-.167-.155-.251a.16.16,0,0,1-.015-.024c-.057-.106-.114-.217-.163-.331-.026-.057-.049-.118-.069-.175a3.04,3.04,0,0,1-.155-.521c-.021-.1-.036-.2-.049-.3a2.962,2.962,0,0,1-.028-.433c0-.049,0-.094,0-.143a.023.023,0,0,0,.017.008l.008,0a26.632,26.632,0,0,0,3.928.139l1.3,1.442,1.328-1.464c2.025-.03,3.774-.086,3.928-.132v0C111.2,157.532,111.2,157.578,111.2,157.627Z" transform="translate(-100.681 -157.48)" fill="#b3b3b3"/>
            </g>
            <g id="Group_84055" data-name="Group 84055" transform="translate(5.664 55.081)">
              <g id="Group_84047" data-name="Group 84047">
                <g id="Group_84046" data-name="Group 84046">
                  <rect id="Rectangle_23895" data-name="Rectangle 23895" width="20.884" height="1.63" fill="#516675"/>
                </g>
              </g>
              <g id="Group_84054" data-name="Group 84054">
                <g id="Group_84049" data-name="Group 84049">
                  <g id="Group_84048" data-name="Group 84048">
                    <rect id="Rectangle_23896" data-name="Rectangle 23896" width="0.204" height="1.63" fill="#778aa1"/>
                  </g>
                </g>
                <g id="Group_84051" data-name="Group 84051" transform="translate(0.607 0)">
                  <g id="Group_84050" data-name="Group 84050">
                    <path id="Path_91803" data-name="Path 91803" d="M116.431,185.385h-.4v-1.63h.4Zm-.8,0h-.4v-1.63h.4Zm-.8,0h-.4v-1.63h.4Zm-.8,0h-.4v-1.63h.4Zm-.8,0h-.4v-1.63h.4Zm-.8,0h-.4v-1.63h.4Zm-.8,0h-.4v-1.63h.4Zm-.8,0h-.4v-1.63h.4Zm-.8,0h-.4v-1.63h.4Zm-.8,0h-.4v-1.63h.4Zm-.8,0H108v-1.63h.4Zm-.8,0h-.4v-1.63h.4Zm-.8,0h-.4v-1.63h.4Zm-.8,0h-.4v-1.63h.4Zm-.8,0h-.4v-1.63h.4Zm-.8,0h-.4v-1.63h.4Zm-.8,0h-.4v-1.63h.4Zm-.806,0h-.4v-1.63h.4Zm-.8,0h-.4v-1.63h.4Zm-.8,0h-.4v-1.63h.4Zm-.806,0h-.4v-1.63h.4Zm-.8,0h-.4v-1.63h.4Zm-.8,0h-.4v-1.63h.4Zm-.8,0h-.4v-1.63h.4Zm-.8,0h-.4v-1.63h.4Z" transform="translate(-96.759 -183.755)" fill="#778aa1"/>
                  </g>
                </g>
                <g id="Group_84053" data-name="Group 84053" transform="translate(20.681)">
                  <g id="Group_84052" data-name="Group 84052">
                    <rect id="Rectangle_23897" data-name="Rectangle 23897" width="0.204" height="1.63" fill="#778aa1"/>
                  </g>
                </g>
              </g>
            </g>
            <g id="Group_84060" data-name="Group 84060" transform="translate(10.028 24.431)">
              <g id="Group_84057" data-name="Group 84057">
                <g id="Group_84056" data-name="Group 84056">
                  <path id="Path_91804" data-name="Path 91804" d="M112.13,157.469h-.8v0a.019.019,0,0,1-.01.009c0,.049,0,.1,0,.147a1.99,1.99,0,0,1-.008.22,1.069,1.069,0,0,1-.013.147,2.737,2.737,0,0,1-.072.431.8.8,0,0,1-.023.1,1.066,1.066,0,0,1-.051.167,3.2,3.2,0,0,1-.129.354c-.049.111-.1.22-.162.33a4.344,4.344,0,0,1-.3.465c-.036.049-.077.1-.113.146-.078.1-.166.192-.251.282a3.693,3.693,0,0,1-.268.255c-.1.083-.191.164-.294.241s-.2.147-.309.216-.217.135-.325.192-.223.118-.34.171-.23.106-.349.15-.238.085-.359.127-.245.073-.366.1l-.33.072a.39.39,0,0,1-.045.009c-.125.019-.248.04-.38.056-.013,0-.028,0-.041,0l-.34.029c-.127.008-.258.012-.387.012s-.255,0-.379-.012-.258-.019-.379-.034c-.076-.007-.147-.02-.223-.028-.056-.009-.107-.015-.162-.028-.126-.021-.247-.05-.372-.077s-.246-.066-.365-.1-.245-.083-.361-.128a3.772,3.772,0,0,1-.351-.149,3.166,3.166,0,0,1-.338-.171c-.111-.061-.222-.122-.328-.191a3.373,3.373,0,0,1-.309-.216c-.093-.069-.183-.143-.274-.222-.007,0-.009-.01-.02-.015-.093-.082-.183-.167-.268-.257-.029-.031-.059-.061-.085-.094a1.624,1.624,0,0,1-.134-.155c-.013-.013-.021-.02-.032-.032a3.523,3.523,0,0,1-.222-.3.418.418,0,0,1-.026-.037c-.057-.079-.106-.167-.155-.251a.157.157,0,0,1-.015-.024c-.057-.106-.114-.217-.163-.331-.026-.057-.049-.118-.069-.175a3.043,3.043,0,0,1-.155-.521c-.021-.1-.036-.2-.049-.3a2.965,2.965,0,0,1-.028-.433c0-.049,0-.094,0-.143v0l-.008-.013h-.807c0,.054,0,.106,0,.16v.012a3.2,3.2,0,0,0,.029.449.271.271,0,0,0,0,.061c.008.082.019.163.034.245a.027.027,0,0,0,0,.019.6.6,0,0,0,.014.063.069.069,0,0,0,0,.029.048.048,0,0,0,.007.027,4.21,4.21,0,0,0,.274.851c.059.135.127.269.2.4.007.016.02.037.028.052a2.481,2.481,0,0,0,.139.225.717.717,0,0,0,.07.1,4.173,4.173,0,0,0,.262.351c.031.036.057.072.091.11a.974.974,0,0,0,.083.094c.041.044.079.086.121.126.1.106.209.209.317.3s.206.174.311.257c.008,0,.016.013.029.021.113.085.234.17.356.247.023.016.044.03.062.041.078.049.16.1.243.143.023.012.047.027.072.041.127.069.253.135.387.195a.335.335,0,0,0,.041.022c.078.035.155.068.236.1l.124.048c.134.052.273.1.41.143s.277.08.417.118.281.064.423.091.283.043.424.061.29.031.434.041.281.012.426.012h0c.147,0,.289,0,.431-.016a.272.272,0,0,0,.062,0l.371-.036c.142-.017.289-.036.429-.065s.281-.054.42-.09.281-.073.417-.119a.863.863,0,0,0,.1-.033c.1-.032.206-.069.307-.11.14-.052.271-.111.4-.168v0c.07-.03.134-.062.2-.094s.128-.069.19-.1v0c.127-.07.253-.143.372-.22s.245-.164.358-.252.227-.181.338-.279a.784.784,0,0,0,.093-.082c.041-.035.077-.069.115-.108a.5.5,0,0,0,.057-.054.446.446,0,0,1,.051-.057c.1-.106.2-.216.294-.33s.183-.232.266-.353a3.945,3.945,0,0,0,.232-.377c.031-.052.059-.111.087-.163a2.018,2.018,0,0,0,.111-.24,2.733,2.733,0,0,0,.155-.415h.006c.02-.073.043-.142.058-.217a1.28,1.28,0,0,0,.049-.208.012.012,0,0,0,.006-.012c.031-.147.051-.294.07-.444a.517.517,0,0,0,0-.061,1.059,1.059,0,0,0,.013-.164,2.027,2.027,0,0,0,.008-.223v-.021C112.133,157.562,112.133,157.516,112.13,157.469Z" transform="translate(-99.981 -157.469)" fill="#516675"/>
                </g>
              </g>
              <g id="Group_84059" data-name="Group 84059">
                <g id="Group_84058" data-name="Group 84058">
                  <path id="Path_91805" data-name="Path 91805" d="M106.058,161.911c-.129,0-.255,0-.379-.012l-.047.815c.14.008.281.012.426.012h0Zm.768-.045c-.013,0-.028,0-.041,0l-.34.029.047.81v0c.02,0,.041,0,.062,0l.371-.036Zm-1.749-.028c-.056-.009-.107-.015-.162-.028l-.141.8c.141.024.283.043.424.061l.1-.808C105.224,161.859,105.153,161.846,105.078,161.838Zm2.5-.11-.33.072a.39.39,0,0,1-.045.009l.147.8c.141-.026.281-.054.42-.09Zm-3.4-.1-.245.774c.139.044.277.08.417.118l.192-.789C104.421,161.7,104.3,161.667,104.179,161.63Zm4.129-.131c-.119.044-.238.085-.359.127l.243.773v0c.034-.013.068-.021.1-.037.1-.032.206-.069.307-.11Zm-4.841-.147-.343.737v0a.2.2,0,0,0,.041.018c.078.035.155.068.236.1l.124.048.294-.759A3.772,3.772,0,0,1,103.466,161.353Zm5.53-.175c-.111.061-.225.118-.34.171l.343.738v0a1.771,1.771,0,0,0,.2-.1c.064-.033.128-.069.19-.1v0Zm-6.2-.188-.441.68v0c.023.012.044.026.062.036.078.049.16.1.243.143a.573.573,0,0,0,.072.045v0l.392-.714C103.017,161.121,102.906,161.059,102.8,160.99Zm7.32.424-.49-.645c-.1.073-.2.147-.309.216l.441.681,0,0c.124-.082.243-.162.358-.253Zm-7.9-.862c-.007,0-.009-.01-.02-.015l-.534.607,0,0c.1.089.2.169.314.252l.029.025v0l.487-.648C102.4,160.706,102.308,160.631,102.217,160.553Zm8.558.282-.583-.562a3.693,3.693,0,0,1-.268.255l.534.608,0,0a1.045,1.045,0,0,0,.091-.086c.041-.035.077-.069.115-.108a.5.5,0,0,0,.057-.054l.054-.052Zm-8.932-.648a1.624,1.624,0,0,1-.134-.155c-.013-.013-.021-.02-.032-.032l-.627.513,0,0c.029.036.057.069.093.106a.974.974,0,0,0,.083.094c.036.044.077.086.118.131l0,0,.583-.562C101.9,160.25,101.87,160.221,101.844,160.187Zm9.491-.035-.668-.457c-.034.052-.075.1-.111.15s-.077.1-.113.146l.626.514.006,0c.092-.119.183-.237.262-.355Zm-9.9-.487c-.051-.079-.106-.167-.155-.251a.157.157,0,0,1-.015-.024l-.709.394h-.006a.5.5,0,0,0,.034.052,2.481,2.481,0,0,0,.139.225.686.686,0,0,0,.064.1h.006l.668-.461A.418.418,0,0,1,101.432,159.665Zm10.334-.293-.745-.322c-.049.111-.1.22-.162.33l.709.4h0c.029-.052.057-.105.085-.163.042-.077.08-.157.117-.24Zm-10.737-.489a1.323,1.323,0,0,1-.062-.168l-.774.25a3.481,3.481,0,0,0,.16.419l.745-.325C101.072,159,101.049,158.941,101.029,158.883Zm10.216-.531c-.006.024-.013.05-.021.075a.8.8,0,0,1-.023.1,1.066,1.066,0,0,1-.051.167v.008l.771.253h.006c.02-.073.043-.142.058-.217a1.28,1.28,0,0,0,.049-.208.012.012,0,0,0,.006-.012Zm-10.421-.291a.233.233,0,0,1-.008-.058l-.807.086H100c.006.02.006.04.01.061.008.082.019.163.034.245a.027.027,0,0,0,0,.019.6.6,0,0,0,.014.063.069.069,0,0,0,0,.029.109.109,0,0,0,0,.027h0l.8-.17C100.853,158.264,100.838,158.163,100.825,158.061Zm10.493-.433a1.99,1.99,0,0,1-.008.22,1.069,1.069,0,0,1-.013.147l.813.08a.517.517,0,0,0,0-.061,1.059,1.059,0,0,0,.013-.164,2.027,2.027,0,0,0,.008-.223v-.021Zm-10.527-.16h-.807c0,.054,0,.106,0,.16v.012l.816-.012c0-.049,0-.094,0-.143v0Z" transform="translate(-99.981 -157.469)" fill="#778aa1"/>
                </g>
              </g>
            </g>
            <g id="Group_84061" data-name="Group 84061" transform="translate(4.715 88.413)">
              <path id="Path_91806" data-name="Path 91806" d="M101.4,212.342H99.4a3.97,3.97,0,0,0-3.973,3.976h9.951A3.973,3.973,0,0,0,101.4,212.342Z" transform="translate(-95.425 -212.342)" fill="#4b4e54"/>
              <path id="Path_91807" data-name="Path 91807" d="M100.4,215.752H95.425v2.016h9.951v-2.016Z" transform="translate(-95.425 -211.776)" fill="#4b4e54"/>
            </g>
            <g id="Group_84062" data-name="Group 84062" transform="translate(17.358 88.413)">
              <path id="Path_91808" data-name="Path 91808" d="M112.245,212.342h-2.007a3.973,3.973,0,0,0-3.97,3.976h9.946A3.97,3.97,0,0,0,112.245,212.342Z" transform="translate(-106.268 -212.342)" fill="#4b4e54"/>
              <path id="Path_91809" data-name="Path 91809" d="M111.241,215.752h-4.973v2.016h9.946v-2.016Z" transform="translate(-106.268 -211.776)" fill="#4b4e54"/>
            </g>
            <g id="Group_84065" data-name="Group 84065" transform="translate(24.97 24.444)">
              <g id="Group_84063" data-name="Group 84063" transform="translate(1.122 9.956)">
                <path id="Path_91810" data-name="Path 91810" d="M113.758,166.019v22.994a2.648,2.648,0,1,0,5.3,0V166.019Z" transform="translate(-113.758 -166.019)" fill="#fcca89"/>
              </g>
              <g id="Group_84064" data-name="Group 84064">
                <path id="Path_91811" data-name="Path 91811" d="M112.8,157.48l.817,30.229h6.428l-.816-23.4a6.831,6.831,0,0,0-4.851-6.538A4.26,4.26,0,0,0,112.8,157.48Z" transform="translate(-112.796 -157.48)" fill="#778aa1"/>
              </g>
            </g>
            <g id="Group_84068" data-name="Group 84068" transform="translate(0 24.444)">
              <g id="Group_84066" data-name="Group 84066" transform="translate(0.815 9.956)">
                <path id="Path_91812" data-name="Path 91812" d="M92.08,166.019v22.994a2.646,2.646,0,1,0,5.292,0V166.019Z" transform="translate(-92.08 -166.019)" fill="#fcca89"/>
              </g>
              <g id="Group_84067" data-name="Group 84067">
                <path id="Path_91813" data-name="Path 91813" d="M98.624,157.48l-.815,30.229H91.381l.815-23.4a6.828,6.828,0,0,1,4.849-6.538A4.26,4.26,0,0,1,98.624,157.48Z" transform="translate(-91.381 -157.48)" fill="#778aa1"/>
              </g>
            </g>
            <g id="Group_84071" data-name="Group 84071" transform="translate(10.838 22.769)">
              <g id="Group_84069" data-name="Group 84069">
                <path id="Path_91814" data-name="Path 91814" d="M105.943,159.315l-1.037,1.492a.377.377,0,0,1-.263.16.387.387,0,0,1-.3-.089l-3.637-3.145-.008,0-.026-.025,2.306-1.663,1.656,1.829Z" transform="translate(-100.676 -156.043)" fill="#f2f2f2"/>
              </g>
              <g id="Group_84070" data-name="Group 84070" transform="translate(5.267)">
                <path id="Path_91815" data-name="Path 91815" d="M110.46,157.709l-.01.009v0l-3.662,3.156a.38.38,0,0,1-.56-.071l-1.034-1.492,1.328-1.467,1.634-1.8Z" transform="translate(-105.193 -156.043)" fill="#f2f2f2"/>
              </g>
            </g>
          </g>
          <g id="Group_84117" data-name="Group 84117" transform="translate(28.192 1.483)">
            <g id="Group_84076" data-name="Group 84076" transform="translate(8.91 0)">
              <g id="Group_84073" data-name="Group 84073" transform="translate(3.052 21.952)">
                <path id="Path_91816" data-name="Path 91816" d="M137.443,161.623c0,.982-2.6,1.771-5.816,1.771s-5.809-.789-5.809-1.771c1.017,0,2.547-.823,2.547-1.839v-3.169H134.9v3.169C134.9,160.8,136.422,161.623,137.443,161.623Z" transform="translate(-125.818 -156.615)" fill="#f0bc7a"/>
              </g>
              <g id="Group_84074" data-name="Group 84074">
                <path id="Path_91817" data-name="Path 91817" d="M140.911,146.138c-.1,1.362-.819,5.97-1.053,5.97H124.264c-.23,0-.944-4.608-1.045-5.97a6.7,6.7,0,0,1,.26-2.429c.989-3.416,4.586-5.921,8.582-5.921a9.2,9.2,0,0,1,4.516,1.165,9.458,9.458,0,0,1,2.1,1.6A7.229,7.229,0,0,1,140.911,146.138Z" transform="translate(-123.2 -137.788)" fill="#8c5919"/>
              </g>
              <g id="Group_84075" data-name="Group 84075" transform="translate(1.056 0.787)">
                <path id="Path_91818" data-name="Path 91818" d="M139.719,146.276v5.455c0,2.446-2.087,6.021-4.537,7.959a6.03,6.03,0,0,1-2.853,1.362c-.064.009-.134.013-.2.019s-.14,0-.211,0h-.006a3.465,3.465,0,0,1-.4-.027,5.886,5.886,0,0,1-2.858-1.355c-2.456-1.937-4.543-5.513-4.543-7.963v-5.455a7.806,7.806,0,1,1,15.613,0Z" transform="translate(-124.106 -138.463)" fill="#fcca89"/>
              </g>
            </g>
            <g id="Group_84077" data-name="Group 84077" transform="translate(6.703 26.954)">
              <path id="Path_91819" data-name="Path 91819" d="M143.454,161.233v76.875h-8.726l-1.158-36.15a1.195,1.195,0,0,0-2.386,0l-1.164,36.15h-8.712V161.233a7.037,7.037,0,0,1,1.091-.287,1.334,1.334,0,0,1,.157-.018.076.076,0,0,1,.038-.007v0a.121.121,0,0,1,.041,0,.054.054,0,0,1,.038,0c.114-.009.233-.016.374-.016h3.518c0,.339.329.656.866.921a4.085,4.085,0,0,0,.4.175l0,.007a11.694,11.694,0,0,0,3.079.61c.1.012.189.022.289.028a.862.862,0,0,1,.124.006c.34.016.689.028,1.047.028a13.345,13.345,0,0,0,4.547-.679h0a4.469,4.469,0,0,0,.566-.265c.075-.045.17-.091.237-.135.014-.013.019-.023.029-.029a1.293,1.293,0,0,0,.311-.3.678.678,0,0,0,.119-.356V160.9h3.521c.157,0,.294.007.417.016a.042.042,0,0,1,.034,0,.112.112,0,0,1,.047.007,1.455,1.455,0,0,1,.157.018A7.336,7.336,0,0,1,143.454,161.233Z" transform="translate(-121.308 -160.905)" fill="#585a5c"/>
            </g>
            <g id="Group_84078" data-name="Group 84078" transform="translate(6.25 26.954)">
              <path id="Path_91820" data-name="Path 91820" d="M143.965,161.233v37.086H120.919V161.233c.16-.05.317-.09.475-.124a1.6,1.6,0,0,1,.164-.04c.1-.022.2-.046.3-.057s.189-.027.279-.039a.269.269,0,0,1,.1-.012,1.546,1.546,0,0,1,.227-.016,1.335,1.335,0,0,1,.157-.018.076.076,0,0,1,.038-.007v0a.121.121,0,0,1,.041,0,.054.054,0,0,1,.038,0c.124-.009.248-.016.374-.016h3.518L127.9,162l0,.007,3.131,2.7,1.409-2.029,1.406,2.029L136.99,162h0l1.262-1.089V160.9h3.521c.141,0,.281.007.417.016a.042.042,0,0,1,.034,0,.112.112,0,0,1,.047.007,1.455,1.455,0,0,1,.157.018A6.465,6.465,0,0,1,143.965,161.233Z" transform="translate(-120.919 -160.905)" fill="#4b4e54"/>
            </g>
            <g id="Group_84079" data-name="Group 84079" transform="translate(6.25 26.954)">
              <path id="Path_91821" data-name="Path 91821" d="M132.159,174.446l-.57,1.395v22.478h-10.67V161.233c.16-.05.317-.09.475-.124a1.6,1.6,0,0,1,.164-.04c.1-.022.2-.046.3-.057s.189-.027.279-.039a.269.269,0,0,1,.1-.012,2.258,2.258,0,0,1,.385-.034.076.076,0,0,1,.038-.007.061.061,0,0,1,.041,0,.054.054,0,0,1,.038,0c.124-.009.248-.016.374-.016h2.123l2.723,6.488-1.794-.265Z" transform="translate(-120.919 -160.905)" fill="#4b4e54"/>
            </g>
            <g id="Group_84080" data-name="Group 84080" transform="translate(16.92 26.954)">
              <path id="Path_91822" data-name="Path 91822" d="M142.446,161.233v37.086H130.07V175.84l.853-1.051,6.278-7.662-1.181.174-.611.091.066-.164,2.651-6.323h2.131c.141,0,.281.007.417.016a.042.042,0,0,1,.034,0,.112.112,0,0,1,.047.007A6.916,6.916,0,0,1,142.446,161.233Z" transform="translate(-130.07 -160.905)" fill="#4b4e54"/>
            </g>
            <g id="Group_84081" data-name="Group 84081" transform="translate(15.875 26.956)">
              <path id="Path_91823" data-name="Path 91823" d="M141.552,161.234v37.086H129.174V175.839l.854-1.048,6.281-7.668-1.793.266,2.719-6.483h2.128A7.339,7.339,0,0,1,141.552,161.234Z" transform="translate(-129.174 -160.906)" fill="#b3b3b3"/>
            </g>
            <g id="Group_84082" data-name="Group 84082" transform="translate(16.92 26.954)">
              <path id="Path_91824" data-name="Path 91824" d="M142.446,161.233v37.086H130.07V175.84l.853-1.051,6.278-7.662-1.181.174-.611.091.066-.164,2.651-6.323h2.131c.141,0,.281.007.417.016a.042.042,0,0,1,.034,0,.112.112,0,0,1,.047.007A6.916,6.916,0,0,1,142.446,161.233Z" transform="translate(-130.07 -160.905)" fill="#4b4e54"/>
            </g>
            <g id="Group_84083" data-name="Group 84083" transform="translate(10.57 26.956)">
              <path id="Path_91825" data-name="Path 91825" d="M136.313,167.389l1.8-.266-6.283,7.667-.854,1.048.573-1.394-5.995-7.322,1.8.266-2.721-6.483h1.393l.893.769v0l.381.329,3.129,2.7,1.406-2.027,1.408,2.027L136.377,162l.369-.315,0-.009.892-.765v0h1.393Z" transform="translate(-124.624 -160.906)" fill="#4b4e54"/>
            </g>
            <g id="Group_84084" data-name="Group 84084" transform="translate(13.236 28.058)">
              <path id="Path_91826" data-name="Path 91826" d="M131.446,162.525l-1.406,2.028-3.128-2.7a11.437,11.437,0,0,0,3.079.611c.093.009.183.023.287.027a1.129,1.129,0,0,1,.126,0C130.741,162.512,131.09,162.525,131.446,162.525Z" transform="translate(-126.911 -161.851)" fill="#4b4e54"/>
            </g>
            <g id="Group_84085" data-name="Group 84085" transform="translate(17.771 28.048)">
              <path id="Path_91827" data-name="Path 91827" d="M135.352,161.843l-3.144,2.711-1.409-2.028A13.288,13.288,0,0,0,135.352,161.843Z" transform="translate(-130.8 -161.843)" fill="#4b4e54"/>
            </g>
            <g id="Group_84086" data-name="Group 84086" transform="translate(5.205 97.552)">
              <path id="Path_91828" data-name="Path 91828" d="M126.62,221.452h-2.213a4.38,4.38,0,0,0-4.384,4.385h10.983A4.386,4.386,0,0,0,126.62,221.452Z" transform="translate(-120.023 -221.452)" fill="#4b4e54"/>
              <path id="Path_91829" data-name="Path 91829" d="M125.514,225.213h-5.491v2.225h10.983v-2.225Z" transform="translate(-120.023 -220.828)" fill="#4b4e54"/>
            </g>
            <g id="Group_84087" data-name="Group 84087" transform="translate(19.156 97.552)">
              <path id="Path_91830" data-name="Path 91830" d="M138.583,221.452H136.37a4.383,4.383,0,0,0-4.382,4.385h10.974A4.378,4.378,0,0,0,138.583,221.452Z" transform="translate(-131.988 -221.452)" fill="#4b4e54"/>
              <path id="Path_91831" data-name="Path 91831" d="M137.474,225.213h-5.486v2.225h10.975v-2.225Z" transform="translate(-131.988 -220.828)" fill="#4b4e54"/>
            </g>
            <g id="Group_84090" data-name="Group 84090" transform="translate(27.56 26.971)">
              <g id="Group_84088" data-name="Group 84088" transform="translate(1.232 10.983)">
                <path id="Path_91832" data-name="Path 91832" d="M140.252,170.338v25.37a2.921,2.921,0,1,0,5.843,0v-25.37Z" transform="translate(-140.252 -170.338)" fill="#fcca89"/>
              </g>
              <g id="Group_84089" data-name="Group 84089">
                <path id="Path_91833" data-name="Path 91833" d="M147.186,194.271H140.1l-.206-7.556-.689-25.654,0-.142a.112.112,0,0,1,.047.007,6.914,6.914,0,0,1,1.689.3h0a7.542,7.542,0,0,1,5.344,7.218Z" transform="translate(-139.195 -160.919)" fill="#585a5c"/>
              </g>
            </g>
            <g id="Group_84093" data-name="Group 84093" transform="translate(0 26.971)">
              <g id="Group_84091" data-name="Group 84091" transform="translate(0.902 10.983)">
                <path id="Path_91834" data-name="Path 91834" d="M116.333,170.338v25.37a2.921,2.921,0,1,0,5.842,0v-25.37Z" transform="translate(-116.333 -170.338)" fill="#fcca89"/>
              </g>
              <g id="Group_84092" data-name="Group 84092">
                <path id="Path_91835" data-name="Path 91835" d="M123.55,160.919l-.9,33.352h-7.093l.9-25.823a7.546,7.546,0,0,1,5.35-7.218c.16-.05.317-.09.475-.124a1.6,1.6,0,0,1,.164-.04c.1-.022.2-.046.3-.057s.189-.027.279-.038a.269.269,0,0,1,.1-.012,2.257,2.257,0,0,1,.385-.034A.076.076,0,0,1,123.55,160.919Z" transform="translate(-115.559 -160.919)" fill="#585a5c"/>
              </g>
            </g>
            <g id="Group_84094" data-name="Group 84094" transform="translate(11.962 26.627)">
              <path id="Path_91836" data-name="Path 91836" d="M131.627,174.311l-4.535-8.693-1.274-4.572,2.435-.094,3.374,3.309,4.271-3.638,2.011.5-4.008,9.743Z" transform="translate(-125.818 -160.624)" fill="#e6e6e6"/>
            </g>
            <g id="Group_84097" data-name="Group 84097" transform="translate(16.236 28.73)">
              <g id="Group_84095" data-name="Group 84095" transform="translate(0 0)">
                <rect id="Rectangle_23898" data-name="Rectangle 23898" width="2.17" height="2.17" transform="translate(0 1.535) rotate(-45.02)" fill="#4b4e54"/>
              </g>
              <g id="Group_84096" data-name="Group 84096" transform="translate(0 0)">
                <path id="Path_91837" data-name="Path 91837" d="M131.019,174.012l-1.535-2.614,1.535-8.969,1.534,8.969Z" transform="translate(-129.484 -162.428)" fill="#4b4e54"/>
              </g>
            </g>
            <g id="Group_84100" data-name="Group 84100" transform="translate(17.173 42.863)">
              <g id="Group_84098" data-name="Group 84098">
                <path id="Path_91838" data-name="Path 91838" d="M131.483,175.148a.6.6,0,1,1-.6-.6A.6.6,0,0,1,131.483,175.148Z" transform="translate(-130.287 -174.549)" fill="#585a5c"/>
              </g>
              <g id="Group_84099" data-name="Group 84099" transform="translate(0.201 0.44)">
                <path id="Path_91839" data-name="Path 91839" d="M131.093,175.242h-.477a.157.157,0,0,1-.157-.156.16.16,0,0,1,.157-.16h.477a.158.158,0,0,1,.159.16A.156.156,0,0,1,131.093,175.242Z" transform="translate(-130.459 -174.926)" fill="#585a5c"/>
              </g>
            </g>
            <g id="Group_84103" data-name="Group 84103" transform="translate(17.173 49.494)">
              <g id="Group_84101" data-name="Group 84101">
                <path id="Path_91840" data-name="Path 91840" d="M131.483,180.834a.6.6,0,1,1-.6-.6A.6.6,0,0,1,131.483,180.834Z" transform="translate(-130.287 -180.236)" fill="#585a5c"/>
              </g>
              <g id="Group_84102" data-name="Group 84102" transform="translate(0.201 0.442)">
                <path id="Path_91841" data-name="Path 91841" d="M131.093,180.931h-.477a.158.158,0,0,1,0-.316h.477a.158.158,0,1,1,0,.316Z" transform="translate(-130.459 -180.615)" fill="#585a5c"/>
              </g>
            </g>
            <g id="Group_84104" data-name="Group 84104" transform="translate(9.319 9.196)">
              <path id="Path_91842" data-name="Path 91842" d="M124.846,147.535c0,1.426-.287,2.586-.648,2.586-.217,0-.41-.434-.531-1.1a9.235,9.235,0,0,1-.117-1.485,5.394,5.394,0,0,1,.117-1.245c.12-.454.314-.614.531-.614C124.56,145.675,124.846,146.1,124.846,147.535Z" transform="translate(-123.551 -145.675)" fill="#fcca89"/>
            </g>
            <g id="Group_84105" data-name="Group 84105" transform="translate(24.931 9.196)">
              <path id="Path_91843" data-name="Path 91843" d="M138.235,147.535a9.086,9.086,0,0,1-.111,1.464c-.119.677-.317,1.122-.536,1.122-.356,0-.647-1.16-.647-2.586s.292-1.86.647-1.86c.219,0,.417.167.536.628A5.376,5.376,0,0,1,138.235,147.535Z" transform="translate(-136.941 -145.675)" fill="#fcca89"/>
            </g>
            <g id="Group_84106" data-name="Group 84106" transform="translate(9.189 0)">
              <path id="Path_91844" data-name="Path 91844" d="M140.3,145.135c-.374.82-.81,1.155-1.277,1.186.007.932-2.958-.709-3.952-1.466a4.51,4.51,0,0,0,.33,1.061c.815,1.711-2.728-.219-3.83-1.061a4.408,4.408,0,0,0,.333,1.061c.809,1.711-2.73-.219-3.836-1.061a4.684,4.684,0,0,0,.332,1.061c.89,1.876-3.456-.628-4.077-1.267-.315-.323-.611-.63-.885-.94.989-3.416,4.586-5.921,8.582-5.921a9.194,9.194,0,0,1,4.516,1.165,9.459,9.459,0,0,1,2.1,1.6c0,.2,0,.32,0,.32s-.01.054-.023.148A8.3,8.3,0,0,1,140.3,145.135Z" transform="translate(-123.44 -137.788)" fill="#8c5919"/>
            </g>
            <g id="Group_84107" data-name="Group 84107" transform="translate(9.902 6.703)">
              <path id="Path_91845" data-name="Path 91845" d="M124.928,147.307a.877.877,0,0,1-.877.878v-4.648h.877Z" transform="translate(-124.051 -143.537)" fill="#8c5919"/>
            </g>
            <g id="Group_84108" data-name="Group 84108" transform="translate(24.766 6.701)">
              <path id="Path_91846" data-name="Path 91846" d="M137.679,148.185a.878.878,0,0,1-.88-.878v-3.772h.88Z" transform="translate(-136.799 -143.535)" fill="#8c5919"/>
            </g>
            <g id="Group_84109" data-name="Group 84109" transform="translate(11.962 25.121)">
              <path id="Path_91847" data-name="Path 91847" d="M131.627,162.943l-1.406,2.027-3.128-2.7-1.274-1.1,2.546-1.835Z" transform="translate(-125.818 -159.332)" fill="#f2f2f2"/>
            </g>
            <g id="Group_84110" data-name="Group 84110" transform="translate(17.771 25.121)">
              <path id="Path_91848" data-name="Path 91848" d="M136.616,161.171l-1.264,1.089-3.144,2.711-1.408-2.027,3.27-3.611Z" transform="translate(-130.8 -159.332)" fill="#f2f2f2"/>
            </g>
            <g id="Group_84113" data-name="Group 84113" transform="translate(16.917 26.627)">
              <g id="Group_84111" data-name="Group 84111" transform="translate(0 6.546)">
                <path id="Path_91849" data-name="Path 91849" d="M137.2,166.238l-6.283,7.667-.854,1.048.573-1.394.281-.7,2.468-6.052,2.019-.3Z" transform="translate(-130.068 -166.238)" fill="#585a5c"/>
              </g>
              <g id="Group_84112" data-name="Group 84112" transform="translate(3.322)">
                <path id="Path_91850" data-name="Path 91850" d="M138.475,160.953l-3.539,6.483-2.019.3,2.453-6.007,0-.009.433-1.1Z" transform="translate(-132.917 -160.624)" fill="#585a5c"/>
              </g>
            </g>
            <g id="Group_84116" data-name="Group 84116" transform="translate(9.749 26.627)">
              <g id="Group_84114" data-name="Group 84114" transform="translate(1.746 6.546)">
                <path id="Path_91851" data-name="Path 91851" d="M131.694,172.849v1.056l-.281-.346-5.995-7.322,1.8.266,2.017.3Z" transform="translate(-125.418 -166.238)" fill="#585a5c"/>
              </g>
              <g id="Group_84115" data-name="Group 84115">
                <path id="Path_91852" data-name="Path 91852" d="M129.479,167.738l-2.017-.3-3.541-6.483,2.672-.329.433,1.1v0Z" transform="translate(-123.92 -160.624)" fill="#585a5c"/>
              </g>
            </g>
          </g>
        </g>
      </g>
    </g>
    <path id="Union_25" data-name="Union 25" d="M624,90V78h18V90Zm-24,0V72h18V90Zm-24,0V66h18V90Zm-24,0V60h18V90Zm-24,0V54h18V90Zm-24,0V48h18V90Zm-24,0V42h18V90Zm-24,0V36h18V90Zm-24,0V30h18V90Zm-24,0V24h18V90Zm-24,0V18h18V90Zm-24,0V12h18V90Zm-24,0V6h18V90Zm-24,0V0h18V90Zm-24,0V6h18V90Zm-24,0V12h18V90Zm-24,0V18h18V90Zm-24,0V24h18V90Zm-24,0V30h18V90Zm-24,0V36h18V90Zm-24,0V42h18V90Zm-24,0V48h18V90ZM96,90V54h18V90ZM72,90V60H90V90ZM48,90V66H66V90ZM24,90V72H42V90ZM0,90V78H18V90Z" transform="translate(9006 -1071)" stroke="rgba(0,0,0,0)" stroke-width="1" fill="url(#linear-gradient)"/>
  </g>
</svg>
