<svg xmlns="http://www.w3.org/2000/svg" xmlns:xlink="http://www.w3.org/1999/xlink" width="48" height="48" viewBox="0 0 48 48">
  <defs>
    <clipPath id="clip-path">
      <circle id="Ellipse_254" data-name="Ellipse 254" cx="24" cy="24" r="24" transform="translate(10584 -192)" fill="#d9edfb"/>
    </clipPath>
    <clipPath id="clip-path-2">
      <rect id="Rectangle_23903" data-name="Rectangle 23903" width="45.999" height="46" transform="translate(0 0)" fill="none"/>
    </clipPath>
  </defs>
  <g id="goodness-1" transform="translate(-10704 147)">
    <circle id="Ellipse_245" data-name="Ellipse 245" cx="24" cy="24" r="24" transform="translate(10704 -147)" fill="#d9edfb"/>
    <g id="Mask_Group_24" data-name="Mask Group 24" transform="translate(120 45)" clip-path="url(#clip-path)">
      <g id="Group_84212" data-name="Group 84212" transform="translate(10181.459 -1168.542)">
        <g id="Group_84211" data-name="Group 84211" transform="translate(403.542 978.542)" clip-path="url(#clip-path-2)">
          <g id="Group_84210" data-name="Group 84210" transform="translate(3.631 5.172)">
            <g id="Group_84181" data-name="Group 84181" transform="translate(9.469)">
              <g id="Group_84168" data-name="Group 84168">
                <g id="Group_84163" data-name="Group 84163" transform="translate(3.41 24.507)">
                  <g id="Group_84162" data-name="Group 84162">
                    <path id="Path_91869" data-name="Path 91869" d="M444.972,1035.284c0,1.1-2.9,1.978-6.489,1.978s-6.485-.882-6.485-1.978c1.134,0,2.84-.919,2.84-2.053v-3.539h7.294v3.539C442.132,1034.365,443.834,1035.284,444.972,1035.284Z" transform="translate(-431.998 -1029.693)" fill="#f0bc7a"/>
                  </g>
                </g>
                <g id="Group_84165" data-name="Group 84165">
                  <g id="Group_84164" data-name="Group 84164">
                    <path id="Path_91870" data-name="Path 91870" d="M445.893,996.777c-.113,1.521-.913,6.668-1.173,6.668H427.31c-.257,0-1.055-5.146-1.169-6.668-.383-5.13,4.408-9.322,9.874-9.322a10.281,10.281,0,0,1,5.039,1.3C444.091,990.456,446.138,993.526,445.893,996.777Z" transform="translate(-426.12 -987.455)" fill="#8d6b52"/>
                  </g>
                </g>
                <g id="Group_84167" data-name="Group 84167" transform="translate(1.182 0.878)">
                  <g id="Group_84166" data-name="Group 84166">
                    <path id="Path_91871" data-name="Path 91871" d="M445.586,997.692v6.09c0,2.731-2.328,6.722-5.065,8.885a6.748,6.748,0,0,1-3.183,1.521c-.075.01-.149.016-.226.019s-.156.007-.236.007h-.005a3.6,3.6,0,0,1-.451-.03,6.6,6.6,0,0,1-3.194-1.512c-2.741-2.164-5.068-6.155-5.068-8.891v-6.09a8.714,8.714,0,1,1,17.428,0Z" transform="translate(-428.158 -988.969)" fill="#fcca89"/>
                  </g>
                </g>
              </g>
              <g id="Group_84170" data-name="Group 84170" transform="translate(0.459 10.268)">
                <g id="Group_84169" data-name="Group 84169">
                  <path id="Path_91872" data-name="Path 91872" d="M428.357,1007.228c0,1.593-.322,2.886-.722,2.886-.241,0-.458-.484-.592-1.228a9.994,9.994,0,0,1-.131-1.658,5.867,5.867,0,0,1,.131-1.391c.134-.506.352-.686.592-.686C428.035,1005.151,428.357,1005.63,428.357,1007.228Z" transform="translate(-426.911 -1005.151)" fill="#fcca89"/>
                </g>
              </g>
              <g id="Group_84172" data-name="Group 84172" transform="translate(17.885 10.268)">
                <g id="Group_84171" data-name="Group 84171">
                  <path id="Path_91873" data-name="Path 91873" d="M458.395,1007.228a9.917,9.917,0,0,1-.127,1.636c-.131.755-.352,1.25-.6,1.25-.4,0-.725-1.293-.725-2.886s.328-2.077.725-2.077c.245,0,.466.185.6.7A5.859,5.859,0,0,1,458.395,1007.228Z" transform="translate(-456.946 -1005.151)" fill="#fcca89"/>
                </g>
              </g>
              <g id="Group_84174" data-name="Group 84174" transform="translate(0.847 0.549)">
                <g id="Group_84173" data-name="Group 84173">
                  <path id="Path_91874" data-name="Path 91874" d="M439.72,988.44s3.818,1.648,5.916.655-.988,2.908-1.7,3.6c-2.676,2.6-4.177,4.067-16.151,3.626-1.112-.641,2.451-6.931,7.243-7.883C435.464,988.353,439.72,988.44,439.72,988.44Z" transform="translate(-427.579 -988.401)" fill="#8d6b52"/>
                </g>
              </g>
              <g id="Group_84176" data-name="Group 84176" transform="translate(10.234 1.08)">
                <g id="Group_84175" data-name="Group 84175">
                  <path id="Path_91875" data-name="Path 91875" d="M452.661,996.439a9.871,9.871,0,0,1-6.486-3.358c-.713-.694-3.795-4.6-1.695-3.6a6.024,6.024,0,0,0,3.689.059A9.3,9.3,0,0,1,452.661,996.439Z" transform="translate(-443.759 -989.316)" fill="#8d6b52"/>
                </g>
              </g>
              <g id="Group_84178" data-name="Group 84178" transform="translate(1.108 7.483)">
                <g id="Group_84177" data-name="Group 84177">
                  <path id="Path_91876" data-name="Path 91876" d="M429.009,1004.561a.981.981,0,0,1-.98.981v-5.19h.98Z" transform="translate(-428.029 -1000.352)" fill="#8d6b52"/>
                </g>
              </g>
              <g id="Group_84180" data-name="Group 84180" transform="translate(17.704 7.483)">
                <g id="Group_84179" data-name="Group 84179">
                  <path id="Path_91877" data-name="Path 91877" d="M457.612,1005.541a.98.98,0,0,1-.979-.98v-4.21h.979Z" transform="translate(-456.633 -1000.352)" fill="#8d6b52"/>
                </g>
              </g>
            </g>
            <g id="Group_84183" data-name="Group 84183" transform="translate(7.007 30.095)">
              <g id="Group_84182" data-name="Group 84182">
                <path id="Path_91878" data-name="Path 91878" d="M446.6,1062.994v-23.3a5.28,5.28,0,0,0-1.944-.368h-3.929l0,.005a.707.707,0,0,1-.133.4,1.444,1.444,0,0,1-.343.34c-.014.011-.019.022-.034.033a2.885,2.885,0,0,1-.266.15,12.731,12.731,0,0,1-5.712,1.057c-.4,0-.789-.013-1.167-.036-.045,0-.095,0-.141,0-.111-.006-.212-.02-.32-.031a11.229,11.229,0,0,1-3.9-.88c-.6-.3-.961-.65-.961-1.031h-3.929a5.284,5.284,0,0,0-1.944.368v23.3Z" transform="translate(-421.877 -1039.323)" fill="#1966d3"/>
              </g>
            </g>
            <g id="Group_84185" data-name="Group 84185" transform="translate(12.884 30.111)">
              <g id="Group_84184" data-name="Group 84184">
                <path id="Path_91879" data-name="Path 91879" d="M444.967,1039.529c0,.092,0,.182-.009.273a.961.961,0,0,1-.017.181,3.079,3.079,0,0,1-.091.531.97.97,0,0,1-.028.126,1.685,1.685,0,0,1-.061.206,4.083,4.083,0,0,1-.162.436c-.059.135-.125.271-.2.407a5.516,5.516,0,0,1-.371.572c-.046.061-.1.119-.142.18-.1.121-.2.236-.3.346s-.218.216-.332.316-.236.2-.36.3-.251.18-.384.265-.264.166-.4.237-.272.144-.418.21-.285.13-.43.187-.291.1-.442.155-.3.09-.45.126-.271.059-.407.089a.532.532,0,0,0-.056.01c-.151.025-.305.05-.468.07-.013,0-.035.006-.049.006-.142.013-.277.024-.422.034s-.316.016-.477.016-.312,0-.465-.016-.317-.021-.466-.04c-.093-.009-.182-.025-.273-.035-.07-.01-.135-.02-.2-.035-.156-.025-.308-.06-.458-.1s-.306-.08-.45-.125-.3-.1-.448-.156-.292-.12-.431-.186a3.527,3.527,0,0,1-.417-.211c-.136-.075-.272-.151-.4-.236a4.067,4.067,0,0,1-.382-.266c-.115-.083-.226-.175-.335-.272-.01,0-.016-.014-.026-.019-.114-.1-.227-.207-.332-.318-.035-.039-.074-.074-.105-.114-.059-.066-.117-.127-.165-.192a.2.2,0,0,1-.036-.041c-.1-.121-.19-.241-.276-.366-.009-.015-.02-.029-.03-.045-.07-.1-.131-.2-.191-.311a.114.114,0,0,1-.02-.031c-.07-.13-.14-.265-.2-.406-.029-.071-.059-.146-.084-.215a4.336,4.336,0,0,1-.192-.643c-.025-.12-.045-.246-.06-.373a3.753,3.753,0,0,1-.035-.533c0-.059,0-.114,0-.175a.031.031,0,0,0,.021.012l.009,0a33.338,33.338,0,0,0,4.84.171l1.606,1.776,1.637-1.807c2.494-.036,4.649-.1,4.837-.161v0A1.612,1.612,0,0,1,444.967,1039.529Z" transform="translate(-432.006 -1039.35)" fill="#e6e6e6"/>
              </g>
            </g>
            <g id="Group_84187" data-name="Group 84187" transform="translate(6.503 30.095)">
              <g id="Group_84186" data-name="Group 84186">
                <path id="Path_91880" data-name="Path 91880" d="M446.736,1062.994v-23.305a8.232,8.232,0,0,0-2.446-.366h-3.931v.005a.037.037,0,0,1-.014.01,1.709,1.709,0,0,1,.006.179c0,.092,0,.182-.009.273a.96.96,0,0,1-.017.18,3.062,3.062,0,0,1-.091.531.972.972,0,0,1-.028.126,1.675,1.675,0,0,1-.061.206,4.091,4.091,0,0,1-.162.436c-.059.135-.125.27-.2.407a5.493,5.493,0,0,1-.371.572c-.046.061-.1.12-.142.18-.1.121-.2.236-.3.346s-.218.216-.332.316-.236.2-.36.3-.251.181-.384.265-.264.166-.4.237-.271.144-.418.209-.285.131-.43.187-.291.1-.442.155-.3.09-.45.126-.271.059-.407.089a.536.536,0,0,0-.056.01c-.151.025-.305.051-.468.07-.013,0-.035.006-.049.006-.142.013-.277.024-.422.034s-.316.016-.477.016-.312,0-.465-.016-.317-.02-.466-.039c-.093-.009-.182-.025-.273-.035-.07-.01-.135-.02-.2-.036-.156-.025-.307-.06-.458-.1s-.306-.08-.45-.125-.3-.1-.448-.156-.292-.12-.43-.186a3.491,3.491,0,0,1-.417-.211c-.136-.075-.272-.151-.4-.235a4.147,4.147,0,0,1-.382-.266c-.115-.083-.226-.175-.335-.271-.01,0-.016-.014-.026-.019-.114-.1-.227-.207-.332-.318-.035-.039-.074-.074-.105-.114-.059-.066-.117-.126-.165-.191a.209.209,0,0,1-.036-.041c-.1-.121-.19-.241-.276-.366-.009-.015-.02-.03-.03-.045-.07-.1-.131-.2-.191-.311a.11.11,0,0,1-.02-.031c-.07-.13-.14-.265-.2-.406-.029-.071-.059-.146-.084-.215a4.33,4.33,0,0,1-.192-.643c-.025-.12-.045-.246-.06-.372a3.745,3.745,0,0,1-.035-.533c0-.059,0-.114,0-.175v0a.031.031,0,0,1-.009-.016h-3.932a8.272,8.272,0,0,0-2.445.366v23.305Z" transform="translate(-421.008 -1039.323)" fill="#416691"/>
              </g>
            </g>
            <g id="Group_84194" data-name="Group 84194" transform="translate(11.88 30.095)">
              <g id="Group_84190" data-name="Group 84190">
                <g id="Group_84189" data-name="Group 84189">
                  <g id="Group_84188" data-name="Group 84188">
                    <path id="Path_91881" data-name="Path 91881" d="M445.238,1039.323h-.99v.005a.037.037,0,0,1-.015.01,1.693,1.693,0,0,1,.006.179c0,.092,0,.182-.009.273a.965.965,0,0,1-.017.18,3.068,3.068,0,0,1-.091.531.962.962,0,0,1-.028.126,1.674,1.674,0,0,1-.061.206,4.078,4.078,0,0,1-.162.436c-.059.135-.125.27-.2.407a5.522,5.522,0,0,1-.371.572c-.046.061-.1.12-.142.18-.1.121-.2.236-.3.346s-.218.216-.332.316-.236.2-.36.3-.251.181-.383.265-.264.166-.4.237-.272.144-.418.209-.285.131-.43.187-.291.1-.442.155-.3.09-.45.126-.271.059-.407.089a.532.532,0,0,0-.056.01c-.151.025-.305.051-.468.07-.013,0-.035.006-.049.006-.142.013-.277.024-.422.034s-.316.016-.477.016-.312,0-.465-.016-.317-.02-.466-.039c-.093-.009-.182-.025-.273-.035-.07-.01-.135-.02-.2-.036-.156-.025-.307-.06-.458-.1s-.306-.08-.45-.125-.3-.1-.448-.156-.292-.12-.43-.186a3.491,3.491,0,0,1-.417-.211c-.136-.075-.271-.151-.4-.235a4.139,4.139,0,0,1-.382-.266c-.115-.083-.226-.175-.335-.271-.01,0-.016-.014-.026-.019-.114-.1-.227-.207-.332-.318-.035-.039-.074-.074-.1-.114-.059-.066-.117-.126-.165-.191a.2.2,0,0,1-.036-.041c-.1-.121-.19-.241-.276-.366-.009-.015-.02-.03-.03-.045-.07-.1-.131-.2-.191-.311a.112.112,0,0,1-.02-.031c-.07-.13-.14-.265-.2-.406-.029-.071-.059-.146-.084-.215a4.33,4.33,0,0,1-.192-.643c-.025-.12-.045-.246-.06-.372a3.745,3.745,0,0,1-.035-.533c0-.059,0-.114,0-.175v0c0-.005-.009-.01-.009-.016h-1c0,.067,0,.131,0,.195v.017a4.06,4.06,0,0,0,.036.553.416.416,0,0,0,0,.075c.012.1.024.2.043.3a.032.032,0,0,0,.009.026.26.26,0,0,0,.015.074.107.107,0,0,0,0,.035.114.114,0,0,0,.009.035,4.447,4.447,0,0,0,.143.531,4.074,4.074,0,0,0,.195.519c.074.165.155.331.245.49.008.021.026.046.035.066a2.886,2.886,0,0,0,.171.277c.026.04.055.085.086.125a4.2,4.2,0,0,0,.326.431c.034.045.07.089.111.136a.876.876,0,0,0,.1.115c.049.055.1.106.149.156.126.13.256.256.39.371s.252.216.382.316c.011.006.02.017.037.025.139.106.29.21.44.305a.905.905,0,0,0,.076.052c.095.06.2.12.3.175.028.015.059.034.09.049.156.086.311.167.476.241.016.01.03.016.05.026.1.044.192.084.29.125l.152.06c.166.065.337.121.507.177s.343.1.512.144.347.081.522.111.352.055.527.075.351.041.531.051.346.015.523.015h.005c.181,0,.357-.005.531-.02a.37.37,0,0,0,.075,0l.458-.046c.175-.02.356-.045.526-.08s.348-.066.517-.11.347-.091.518-.146c.039-.011.08-.024.121-.039.131-.041.254-.086.38-.137.172-.064.332-.136.492-.206v0c.085-.036.166-.075.247-.115s.161-.085.236-.127v0c.154-.085.31-.176.457-.271s.3-.2.441-.31a5.238,5.238,0,0,0,.416-.343.993.993,0,0,0,.116-.1,1.742,1.742,0,0,0,.141-.134c.024-.022.048-.042.071-.066a.609.609,0,0,1,.061-.07c.127-.131.252-.266.363-.406a5.006,5.006,0,0,0,.327-.438,4.177,4.177,0,0,0,.287-.461c.04-.065.075-.136.11-.2.05-.1.1-.195.135-.3a3.5,3.5,0,0,0,.191-.511h.007c.024-.09.054-.176.074-.266a2.578,2.578,0,0,0,.061-.257.016.016,0,0,0,.006-.015,5.33,5.33,0,0,0,.086-.549.622.622,0,0,0,0-.074,1.506,1.506,0,0,0,.015-.2,2.232,2.232,0,0,0,.012-.279v-.023A1.547,1.547,0,0,0,445.238,1039.323Z" transform="translate(-430.275 -1039.323)" fill="#1966d3"/>
                  </g>
                </g>
              </g>
              <g id="Group_84193" data-name="Group 84193">
                <g id="Group_84192" data-name="Group 84192">
                  <g id="Group_84191" data-name="Group 84191">
                    <path id="Path_91882" data-name="Path 91882" d="M437.76,1044.8c-.155,0-.312,0-.465-.016l-.057,1.005c.173.009.346.015.523.015h.005Zm.948-.055c-.013,0-.035.006-.049.006-.142.013-.277.024-.422.034l.059,1v.005c.026,0,.052-.005.075-.005l.458-.046Zm-2.153-.035c-.07-.01-.135-.02-.2-.036l-.176.989c.176.029.352.055.527.075l.122-.994C436.734,1044.731,436.646,1044.715,436.555,1044.705Zm3.084-.135c-.137.029-.271.059-.407.089a.532.532,0,0,0-.056.01l.18.984c.178-.029.348-.066.517-.11Zm-4.191-.121-.3.954c.171.054.343.1.512.144l.24-.974C435.743,1044.534,435.591,1044.494,435.447,1044.449Zm5.083-.16c-.145.055-.291.1-.442.155l.3.953v.006c.039-.017.08-.026.121-.045.131-.041.254-.086.38-.137Zm-5.962-.182-.424.908v.006a.226.226,0,0,0,.05.02c.1.044.192.084.29.125l.152.06.361-.934C434.853,1044.238,434.707,1044.173,434.569,1044.107Zm6.81-.215c-.135.074-.276.144-.418.209l.423.909v0a2.223,2.223,0,0,0,.247-.119c.08-.041.161-.085.236-.127v0Zm-7.63-.232-.543.837v.005c.026.016.052.031.076.047.095.06.2.12.3.175a.555.555,0,0,0,.09.055v-.005l.483-.878C434.016,1043.821,433.88,1043.745,433.749,1043.661Zm9.015.523-.6-.794c-.123.09-.251.181-.383.265l.544.839,0,0c.15-.1.3-.2.44-.31Zm-9.733-1.061c-.01,0-.016-.014-.026-.019l-.659.747,0,0c.125.111.252.211.386.312.011.01.025.02.037.031v-.006l.6-.8C433.251,1043.311,433.141,1043.219,433.032,1043.123Zm10.539.348-.715-.693c-.107.111-.218.216-.332.316l.657.748.006.006c.034-.035.074-.066.11-.107a1.742,1.742,0,0,0,.141-.134c.024-.022.048-.042.071-.066s.046-.046.067-.066Zm-11-.8c-.059-.066-.117-.126-.165-.191a.2.2,0,0,1-.036-.041l-.772.633,0,.005a1.512,1.512,0,0,0,.116.131.876.876,0,0,0,.1.115,2.085,2.085,0,0,0,.146.16l0,0,.717-.694C432.638,1042.747,432.6,1042.712,432.569,1042.672Zm11.691-.046-.822-.562c-.041.066-.09.126-.135.186s-.1.12-.142.18l.773.634.006,0c.114-.145.227-.291.327-.436Zm-12.2-.6c-.065-.1-.131-.2-.191-.311a.112.112,0,0,1-.02-.031l-.873.488h-.005a.482.482,0,0,0,.04.066,2.886,2.886,0,0,0,.171.277,1.209,1.209,0,0,0,.081.125h.005l.822-.568C432.083,1042.059,432.072,1042.045,432.062,1042.029Zm12.729-.362-.919-.4c-.059.135-.125.27-.2.407l.874.486h0c.036-.065.071-.131.106-.2.05-.1.1-.195.141-.3Zm-13.225-.6a1.5,1.5,0,0,1-.077-.207l-.952.306a4.074,4.074,0,0,0,.195.519l.917-.4C431.62,1041.21,431.591,1041.135,431.566,1041.066Zm12.583-.654a.39.39,0,0,1-.026.091.962.962,0,0,1-.028.126,1.674,1.674,0,0,1-.061.206v.01l.948.311h.007c.024-.09.054-.176.074-.266a2.578,2.578,0,0,0,.061-.257.016.016,0,0,0,.006-.015Zm-12.835-.361a.308.308,0,0,1-.009-.07l-.994.107h-.005c.005.024.005.049.01.075.012.1.024.2.043.3a.032.032,0,0,0,.009.026.26.26,0,0,0,.015.074.107.107,0,0,0,0,.035.073.073,0,0,0,.006.035h0l.979-.211C431.349,1040.3,431.329,1040.177,431.314,1040.051Zm12.926-.533c0,.092,0,.182-.009.273a.965.965,0,0,1-.017.18l1,.1a.622.622,0,0,0,0-.074,1.506,1.506,0,0,0,.015-.2,2.232,2.232,0,0,0,.012-.279v-.023Zm-12.966-.195h-1c0,.067,0,.131,0,.195v.017l1-.017c0-.059,0-.114,0-.175v0C431.279,1039.333,431.275,1039.328,431.275,1039.323Z" transform="translate(-430.275 -1039.323)" fill="#4677af"/>
                  </g>
                </g>
              </g>
            </g>
            <g id="Group_84199" data-name="Group 84199" transform="translate(30.288 30.095)">
              <g id="Group_84196" data-name="Group 84196" transform="translate(1.379 12.279)">
                <g id="Group_84195" data-name="Group 84195">
                  <rect id="Rectangle_23901" data-name="Rectangle 23901" width="6.524" height="11.392" fill="#fcca89"/>
                </g>
              </g>
              <g id="Group_84198" data-name="Group 84198">
                <g id="Group_84197" data-name="Group 84197">
                  <path id="Path_91883" data-name="Path 91883" d="M470.45,1062.994l-.531-15.249a8.415,8.415,0,0,0-5.974-8.054,5.288,5.288,0,0,0-1.944-.368l.638,23.671Z" transform="translate(-462.002 -1039.323)" fill="#4677af"/>
                </g>
              </g>
            </g>
            <g id="Group_84204" data-name="Group 84204" transform="translate(0 30.095)">
              <g id="Group_84201" data-name="Group 84201" transform="translate(0.531 12.279)">
                <g id="Group_84200" data-name="Group 84200">
                  <rect id="Rectangle_23902" data-name="Rectangle 23902" width="6.522" height="11.392" fill="#fcca89"/>
                </g>
              </g>
              <g id="Group_84203" data-name="Group 84203">
                <g id="Group_84202" data-name="Group 84202">
                  <path id="Path_91884" data-name="Path 91884" d="M417.611,1062.994l.638-23.671a5.286,5.286,0,0,0-1.944.368,8.415,8.415,0,0,0-5.975,8.054l-.53,15.249Z" transform="translate(-409.8 -1039.323)" fill="#4677af"/>
                </g>
              </g>
            </g>
            <g id="Group_84209" data-name="Group 84209" transform="translate(12.879 28.048)">
              <g id="Group_84206" data-name="Group 84206">
                <g id="Group_84205" data-name="Group 84205">
                  <path id="Path_91885" data-name="Path 91885" d="M438.483,1039.825l-1.572,2.264-4.874-4.212-.01,0-.03-.032,2.84-2.047,2.039,2.254Z" transform="translate(-431.998 -1035.795)" fill="#f2f2f2"/>
                </g>
              </g>
              <g id="Group_84208" data-name="Group 84208" transform="translate(6.485)">
                <g id="Group_84207" data-name="Group 84207">
                  <path id="Path_91886" data-name="Path 91886" d="M449.664,1037.847l-.015.01v.005l-4.9,4.227-1.569-2.264,1.637-1.807,2.013-2.224Z" transform="translate(-443.175 -1035.795)" fill="#f2f2f2"/>
                </g>
              </g>
            </g>
          </g>
        </g>
      </g>
    </g>
  </g>
</svg>
