<svg xmlns="http://www.w3.org/2000/svg" width="40" height="40" viewBox="0 0 40 40">
  <g id="icon-title-staff" transform="translate(-17 -887)">
    <g id="Group_82222" data-name="Group 82222" transform="translate(17 887)">
      <g id="Rectangle_22929" data-name="Rectangle 22929" fill="#fff" stroke="#707070" stroke-width="1" opacity="0">
        <rect width="40" height="40" stroke="none"/>
        <rect x="0.5" y="0.5" width="39" height="39" fill="none"/>
      </g>
    </g>
    <g id="staff" transform="translate(6 891)">
      <circle id="Ellipse_243" data-name="Ellipse 243" cx="9.5" cy="9.5" r="9.5" transform="translate(16.5 12.5)" fill="#d3ebfc"/>
      <circle id="Ellipse_244" data-name="Ellipse 244" cx="4" cy="4" r="4" transform="translate(33.5 4)" fill="#fee9ee"/>
      <g id="Group_83538" data-name="Group 83538" transform="translate(16)">
        <path id="Path_90305" data-name="Path 90305" d="M19,412.5H18V409H17v3.5H16V408h3Z" transform="translate(-16 -382.5)" fill="#808fa5"/>
        <path id="Path_90306" data-name="Path 90306" d="M91,330H90v-9H89v9H88V320h3Z" transform="translate(-83.5 -300)" fill="#808fa5"/>
        <path id="Path_90307" data-name="Path 90307" d="M163,352.5h-1V345h-1v7.5h-1V344h3Z" transform="translate(-151 -322.5)" fill="#808fa5"/>
        <path id="Path_90308" data-name="Path 90308" d="M235,307.5h-1V297h-1v10.5h-1V296h3Z" transform="translate(-218.5 -277.5)" fill="#808fa5"/>
        <path id="Path_90309" data-name="Path 90309" d="M307,382.5h-1V377h-1v5.5h-1V376h3Z" transform="translate(-286 -352.5)" fill="#808fa5"/>
        <path id="Path_90310" data-name="Path 90310" d="M379,285h-1V273h-1v12h-1V272h3Z" transform="translate(-353.5 -255)" fill="#808fa5"/>
        <path id="Path_90311" data-name="Path 90311" d="M451,337.5h-1V329h-1v8.5h-1V328h3Z" transform="translate(-421 -307.5)" fill="#808fa5"/>
        <rect id="Rectangle_23855" data-name="Rectangle 23855" width="30" height="1" transform="translate(0 31)" fill="#808fa5"/>
        <path id="Path_90312" data-name="Path 90312" d="M211,6a3,3,0,1,1,3-3A3,3,0,0,1,211,6Zm0-5a2,2,0,1,0,2,2A2,2,0,0,0,211,1Z" transform="translate(-196)" fill="#808fa5"/>
        <rect id="Rectangle_23856" data-name="Rectangle 23856" width="1" height="1" transform="translate(14.5 9)" fill="#808fa5"/>
        <rect id="Rectangle_23857" data-name="Rectangle 23857" width="1" height="1" transform="translate(14.5 11)" fill="#808fa5"/>
        <path id="Path_90313" data-name="Path 90313" d="M172,121h-2.5v-1H171v-4.5a2.5,2.5,0,0,0-2.5-2.5h-5a2.5,2.5,0,0,0-2.5,2.5V120h1.5v1H160v-5.5a3.5,3.5,0,0,1,3.5-3.5h5a3.5,3.5,0,0,1,3.5,3.5Z" transform="translate(-151 -105)" fill="#808fa5"/>
        <rect id="Rectangle_23858" data-name="Rectangle 23858" width="1" height="6.5" transform="translate(18 12)" fill="#808fa5"/>
        <rect id="Rectangle_23859" data-name="Rectangle 23859" width="1" height="6.5" transform="translate(11 12)" fill="#808fa5"/>
        <path id="Path_90314" data-name="Path 90314" d="M67,6a3,3,0,1,1,3-3A3,3,0,0,1,67,6Zm0-5a2,2,0,1,0,2,2A2,2,0,0,0,67,1Z" transform="translate(-61)" fill="#808fa5"/>
        <rect id="Rectangle_23860" data-name="Rectangle 23860" width="1" height="1" transform="translate(5.5 9)" fill="#808fa5"/>
        <rect id="Rectangle_23861" data-name="Rectangle 23861" width="1" height="1" transform="translate(5.5 11)" fill="#808fa5"/>
        <path id="Path_90315" data-name="Path 90315" d="M18.5,121H16v-5.5a3.5,3.5,0,0,1,3.5-3.5h5v1h-5a2.5,2.5,0,0,0-2.5,2.5V120h1.5Z" transform="translate(-16 -105)" fill="#808fa5"/>
        <rect id="Rectangle_23862" data-name="Rectangle 23862" width="1" height="6.5" transform="translate(2 12)" fill="#808fa5"/>
        <path id="Path_90316" data-name="Path 90316" d="M355,6a3,3,0,1,1,3-3A3,3,0,0,1,355,6Zm0-5a2,2,0,1,0,2,2A2,2,0,0,0,355,1Z" transform="translate(-331)" fill="#808fa5"/>
        <rect id="Rectangle_23863" data-name="Rectangle 23863" width="1" height="1" transform="translate(23.5 9)" fill="#808fa5"/>
        <rect id="Rectangle_23864" data-name="Rectangle 23864" width="1" height="1" transform="translate(23.5 11)" fill="#808fa5"/>
        <path id="Path_90317" data-name="Path 90317" d="M368.5,121H366v-1h1.5v-4.5A2.5,2.5,0,0,0,365,113h-5v-1h5a3.5,3.5,0,0,1,3.5,3.5Z" transform="translate(-338.5 -105)" fill="#808fa5"/>
        <rect id="Rectangle_23865" data-name="Rectangle 23865" width="1" height="6.5" transform="translate(27 12)" fill="#808fa5"/>
      </g>
    </g>
  </g>
</svg>
