<svg id="icon-title-position" xmlns="http://www.w3.org/2000/svg" width="40" height="40" viewBox="0 0 40 40">
  <g id="Group_82222" data-name="Group 82222" transform="translate(0 0)">
    <g id="Rectangle_22929" data-name="Rectangle 22929" fill="#fff" stroke="#707070" stroke-width="1" opacity="0">
      <rect width="40" height="40" stroke="none"/>
      <rect x="0.5" y="0.5" width="39" height="39" fill="none"/>
    </g>
  </g>
  <g id="briefcase_1_" data-name="briefcase (1)" transform="translate(2.857 5.714)">
    <circle id="Ellipse_11" data-name="Ellipse 11" cx="10.179" cy="10.179" r="10.179" transform="translate(13.393 1.071)" fill="#fee9ee"/>
    <circle id="Ellipse_12" data-name="Ellipse 12" cx="4.286" cy="4.286" r="4.286" transform="translate(4.286 17.679)" fill="#d3ebfc"/>
    <g id="Group_82240" data-name="Group 82240" transform="translate(0 0)">
      <path id="Union_4" data-name="Union 4" d="M-112.571-1056.321a1.458,1.458,0,0,1-1.125-.482,1.784,1.784,0,0,1-.482-1.125v-2.678h1.071v2.678a.486.486,0,0,0,.161.374.484.484,0,0,0,.375.161h25.714a.484.484,0,0,0,.375-.161.485.485,0,0,0,.16-.374v-2.678h1.072v2.678a1.46,1.46,0,0,1-.482,1.125,1.789,1.789,0,0,1-1.125.482Zm13.393-3.215v-1.071H-89a.487.487,0,0,0,.375-.161.486.486,0,0,0,.16-.375v-.536h-24.643c-.107,0-.16,0-.214-.053l-3.214-1.607a.615.615,0,0,1-.321-.482.514.514,0,0,1,.321-.481l3.214-1.607a.321.321,0,0,1,.214-.054H-85.25v.536h2.678v3.214H-85.25v.536h-2.143v.536a1.458,1.458,0,0,1-.482,1.125,1.784,1.784,0,0,1-1.125.482Zm11.785-3.214h1.071v-2.143h-1.071Zm-18.214,0h17.142v-2.143h-17.142Zm-2.143,0h1.071v-2.143h-1.071Zm-7.394-1.072,2.143,1.072h4.179v-2.143H-113Zm31.5.536v-1.072H-85.25v1.072Zm-2.678-3.75v-4.39l-.053.05A3.484,3.484,0,0,1-89-1070.25h-.535v-1.071H-89a2.512,2.512,0,0,0,1.875-.8,2.729,2.729,0,0,0,.8-1.875v-4.821h-26.786V-1074a2.515,2.515,0,0,0,.8,1.875,2.729,2.729,0,0,0,1.876.8h.535v1.071h-.535a3.484,3.484,0,0,1-2.625-1.125c-.019-.018-.036-.037-.054-.055v4.395h-1.071v-12.857h7.5v-3.214a1.459,1.459,0,0,1,.482-1.125,1.543,1.543,0,0,1,1.125-.482h10.715a1.46,1.46,0,0,1,1.125.482,1.788,1.788,0,0,1,.481,1.125v3.214h7.5v12.857Zm-19.285-12.857h11.785v-1.607h-11.785Zm.16-3.589a.486.486,0,0,0-.16.375v.536h11.785v-.536a.487.487,0,0,0-.161-.375.486.486,0,0,0-.374-.161h-10.715A.487.487,0,0,0-105.447-1083.482Zm7.34,15.911v-1.072h1.072v1.072Zm-2.143,0v-1.072h1.072v1.072Zm-2.143,0v-1.072h1.072v1.072Zm10.715-1.607v-3.215H-92.75v3.215h-1.071v-3.215a1.058,1.058,0,0,1,.321-.75,1.058,1.058,0,0,1,.75-.321h1.072a1.058,1.058,0,0,1,.75.321,1.058,1.058,0,0,1,.321.75v3.215Zm-15,0v-3.215h-1.071v3.215h-1.072v-3.215a1.058,1.058,0,0,1,.321-.75,1.06,1.06,0,0,1,.751-.321h1.071a1.06,1.06,0,0,1,.751.321,1.058,1.058,0,0,1,.321.75v3.215Zm2.143-1.072v-1.071h9.643v1.071Z" transform="translate(116.857 1084.714)" fill="#808fa5"/>
    </g>
  </g>
</svg>
