<svg id="icon-title-identity" xmlns="http://www.w3.org/2000/svg" width="40" height="40" viewBox="0 0 40 40">
  <g id="Rectangle_22929" data-name="Rectangle 22929" fill="#fff" stroke="#707070" stroke-width="1" opacity="0">
    <rect width="40" height="40" stroke="none"/>
    <rect x="0.5" y="0.5" width="39" height="39" fill="none"/>
  </g>
  <g id="leadership" transform="translate(2.857 5.714)">
    <circle id="Ellipse_5" data-name="Ellipse 5" cx="10.179" cy="10.179" r="10.179" transform="translate(9.107 4.286)" fill="#fee9ee"/>
    <circle id="Ellipse_6" data-name="Ellipse 6" cx="4.286" cy="4.286" r="4.286" transform="translate(1.071 20.893)" fill="#d3ebfc"/>
    <g id="Group_82237" data-name="Group 82237" transform="translate(0 0)">
      <path id="Path_87416" data-name="Path 87416" d="M89.071,280.316H88v-5.357c0-3.2,2.187-4.344,4.622-5.319l2.679-1.071.4.995-2.679,1.071c-2.619,1.048-3.949,2-3.949,4.324Z" transform="translate(-82.107 -252.994)" fill="#808fa5"/>
      <path id="Path_87417" data-name="Path 87417" d="M316.731,280.323h-1.071v-5.357c0-2.32-1.33-3.276-3.949-4.324l-2.679-1.071.4-.995,2.679,1.071c2.436.974,4.623,2.114,4.623,5.319Z" transform="translate(-288.338 -253.002)" fill="#808fa5"/>
      <rect id="Rectangle_22954" data-name="Rectangle 22954" width="1.071" height="2.679" transform="translate(13.929 12.321)" fill="#808fa5"/>
      <rect id="Rectangle_22955" data-name="Rectangle 22955" width="1.071" height="2.679" transform="translate(19.286 12.321)" fill="#808fa5"/>
      <rect id="Rectangle_22956" data-name="Rectangle 22956" width="1.071" height="3.75" transform="translate(9.643 23.571)" fill="#808fa5"/>
      <rect id="Rectangle_22957" data-name="Rectangle 22957" width="1.071" height="3.75" transform="translate(23.571 23.571)" fill="#808fa5"/>
      <rect id="Rectangle_22958" data-name="Rectangle 22958" width="1.071" height="1.071" transform="translate(16.607 21.429)" fill="#808fa5"/>
      <rect id="Rectangle_22959" data-name="Rectangle 22959" width="1.071" height="1.071" transform="translate(16.607 23.571)" fill="#808fa5"/>
      <path id="Path_87418" data-name="Path 87418" d="M200.571,254.953l-2.808-.7.259-1.039,1.478.369v-2.842l-.536-.536-2.679,2.679-2.679-2.679-.536.536v2.842l1.477-.369.26,1.039-2.809.7V250.3l1.607-1.607,2.679,2.679,2.679-2.679,1.607,1.607Z" transform="translate(-179.143 -234.446)" fill="#808fa5"/>
      <rect id="Rectangle_22960" data-name="Rectangle 22960" width="1.071" height="2.679" transform="translate(16.607 17.679)" fill="#808fa5"/>
      <path id="Path_87419" data-name="Path 87419" d="M186.714,95.216h-1.071a1.072,1.072,0,0,0-1.071-1.071h-.536a1.605,1.605,0,0,1-1.283-.639l-.481.482a.536.536,0,0,1-.379.157h-3.75a1.072,1.072,0,0,0-1.071,1.071H176a2.144,2.144,0,0,1,2.143-2.143h3.528l.914-.914a.536.536,0,0,1,.914.379.536.536,0,0,0,.536.536h.536a2.144,2.144,0,0,1,2.143,2.143Z" transform="translate(-164.214 -88.252)" fill="#808fa5"/>
      <path id="Path_87420" data-name="Path 87420" d="M181.357,49.929c-2.971,0-4.644-2.485-4.808-4.957a1.077,1.077,0,0,1-.235-.178,1.064,1.064,0,0,1-.314-.757V41.357a5.357,5.357,0,0,1,10.714,0v2.679a1.075,1.075,0,0,1-.549.936C186,47.444,184.328,49.929,181.357,49.929Zm0-12.857a4.286,4.286,0,0,0-4.286,4.286v2.679a.536.536,0,0,1,.536.536c0,1.657,1.018,4.286,3.75,4.286s3.75-2.629,3.75-4.286a.536.536,0,0,1,.536-.536V41.357a4.286,4.286,0,0,0-4.286-4.286Z" transform="translate(-164.214 -36)" fill="#808fa5"/>
      <path id="Path_87421" data-name="Path 87421" d="M362.714,244.036h-1.071v-4.821a2.144,2.144,0,0,0-1.931-2.133l-2.354,2.354L355,237.082a2.145,2.145,0,0,0-1.931,2.133v1.071H352v-1.071A3.215,3.215,0,0,1,355.214,236h.222l1.921,1.921L359.278,236h.222a3.215,3.215,0,0,1,3.214,3.214Z" transform="translate(-328.429 -222.607)" fill="#808fa5"/>
      <rect id="Rectangle_22961" data-name="Rectangle 22961" width="1.071" height="1.071" transform="translate(28.393 17.679)" fill="#808fa5"/>
      <path id="Path_87422" data-name="Path 87422" d="M387.214,138.429a3.214,3.214,0,1,1,3.214-3.214A3.218,3.218,0,0,1,387.214,138.429Zm0-5.357a2.143,2.143,0,1,0,2.143,2.143A2.145,2.145,0,0,0,387.214,133.071Z" transform="translate(-358.286 -125.571)" fill="#808fa5"/>
      <path id="Path_87423" data-name="Path 87423" d="M1.071,244.036H0v-4.821A3.215,3.215,0,0,1,3.214,236h.222l1.921,1.921L7.278,236H7.5a3.215,3.215,0,0,1,3.214,3.214v1.071H9.643v-1.071a2.144,2.144,0,0,0-1.931-2.133l-2.354,2.354L3,237.082a2.144,2.144,0,0,0-1.931,2.133Z" transform="translate(0 -222.607)" fill="#808fa5"/>
      <rect id="Rectangle_22962" data-name="Rectangle 22962" width="1.071" height="1.071" transform="translate(4.821 17.679)" fill="#808fa5"/>
      <path id="Path_87424" data-name="Path 87424" d="M35.214,138.429a3.214,3.214,0,1,1,3.214-3.214A3.218,3.218,0,0,1,35.214,138.429Zm0-5.357a2.143,2.143,0,1,0,2.143,2.143A2.145,2.145,0,0,0,35.214,133.071Z" transform="translate(-29.857 -125.571)" fill="#808fa5"/>
    </g>
  </g>
</svg>
