<svg xmlns="http://www.w3.org/2000/svg" width="80" height="80" viewBox="0 0 80 80">
  <g id="recommend-1" transform="translate(-108 -2965)">
    <g id="Rectangle_23802" data-name="Rectangle 23802" transform="translate(108 2965)" fill="#fff" stroke="#707070" stroke-width="1" opacity="0">
      <rect width="80" height="80" stroke="none"/>
      <rect x="0.5" y="0.5" width="79" height="79" fill="none"/>
    </g>
    <g id="class" transform="translate(115 2971.886)">
      <circle id="Ellipse_240" data-name="Ellipse 240" cx="19.594" cy="19.594" r="19.594" transform="translate(18.563 23.803)" fill="#fee9ee"/>
      <circle id="Ellipse_241" data-name="Ellipse 241" cx="8.25" cy="8.25" r="8.25" transform="translate(10.313 7.303)" fill="#d3ebfc"/>
      <g id="Group_83476" data-name="Group 83476" transform="translate(0 0.114)">
        <path id="Path_89886" data-name="Path 89886" d="M34.063,232.585H32V219.178a3.071,3.071,0,0,1,.906-2.187,3.166,3.166,0,0,1,4.375,0,3.069,3.069,0,0,1,.906,2.187v8.25H36.125v-8.25a1.024,1.024,0,0,0-.3-.729,1.055,1.055,0,0,0-1.458,0,1.024,1.024,0,0,0-.3.729Z" transform="translate(-27.875 -188.27)" fill="#808fa5"/>
        <path id="Path_89887" data-name="Path 89887" d="M70.188,213.491H68.125V203.178a1.024,1.024,0,0,0-.3-.729,1.055,1.055,0,0,0-1.458,0,1.024,1.024,0,0,0-.3.729v10.313H64V203.178a3.071,3.071,0,0,1,.906-2.187,3.166,3.166,0,0,1,4.375,0,3.069,3.069,0,0,1,.906,2.187Z" transform="translate(-55.75 -174.333)" fill="#808fa5"/>
        <path id="Path_89888" data-name="Path 89888" d="M102.188,227.428h-2.062v-8.25a1.024,1.024,0,0,0-.3-.729,1.055,1.055,0,0,0-1.458,0,1.024,1.024,0,0,0-.3.729v8.25H96v-8.25a3.071,3.071,0,0,1,.906-2.187,3.166,3.166,0,0,1,4.375,0,3.069,3.069,0,0,1,.906,2.187Z" transform="translate(-83.625 -188.27)" fill="#808fa5"/>
        <path id="Path_89889" data-name="Path 89889" d="M131.094,259.928h-2.062v-3.281l3.094-8.25V235.178a1.024,1.024,0,0,0-.3-.729,1.055,1.055,0,0,0-1.458,0,1.024,1.024,0,0,0-.3.729v6.188H128v-6.187a3.071,3.071,0,0,1,.906-2.187,3.166,3.166,0,0,1,4.375,0,3.069,3.069,0,0,1,.906,2.187v13.594l-3.094,8.25Z" transform="translate(-111.5 -202.208)" fill="#808fa5"/>
        <path id="Path_89890" data-name="Path 89890" d="M7.219,308.708H5.156V306.03C4,304.8,0,300.269,0,296.356v-5.179a3.076,3.076,0,0,1,.906-2.188,3.167,3.167,0,0,1,4.374,0,3.068,3.068,0,0,1,.908,2.188H4.125a1.022,1.022,0,0,0-.3-.728,1.055,1.055,0,0,0-1.459,0,1.018,1.018,0,0,0-.3.728v5.179c0,3.014,3.5,7.178,4.854,8.529l.3.3Z" transform="translate(0 -250.987)" fill="#808fa5"/>
        <path id="Path_89891" data-name="Path 89891" d="M48.5,449.167H46.437v-7.219H34.063v7.219H32v-7.219a2.063,2.063,0,0,1,2.063-2.062H46.437a2.063,2.063,0,0,1,2.063,2.063Z" transform="translate(-27.875 -383.197)" fill="#808fa5"/>
        <rect id="Rectangle_23810" data-name="Rectangle 23810" width="2.063" height="2.063" transform="translate(8.25 60.814)" fill="#808fa5"/>
        <path id="Path_89892" data-name="Path 89892" d="M370.063,168.585H368V155.178a3.078,3.078,0,0,1,.905-2.187,3.168,3.168,0,0,1,4.377,0,3.076,3.076,0,0,1,.905,2.187v8.25h-2.062v-8.25a1.025,1.025,0,0,0-.3-.73,1.055,1.055,0,0,0-1.456,0,1.025,1.025,0,0,0-.3.73Z" transform="translate(-320.563 -132.52)" fill="#808fa5"/>
        <path id="Path_89893" data-name="Path 89893" d="M406.188,149.491h-2.062V139.178a1.025,1.025,0,0,0-.3-.73,1.055,1.055,0,0,0-1.456,0,1.025,1.025,0,0,0-.3.73v10.313H400V139.178a3.078,3.078,0,0,1,.905-2.187,3.168,3.168,0,0,1,4.377,0,3.076,3.076,0,0,1,.905,2.187Z" transform="translate(-348.438 -118.583)" fill="#808fa5"/>
        <path id="Path_89894" data-name="Path 89894" d="M438.188,163.428h-2.062v-8.25a1.025,1.025,0,0,0-.3-.73,1.055,1.055,0,0,0-1.456,0,1.025,1.025,0,0,0-.3.73v8.25H432v-8.25a3.078,3.078,0,0,1,.905-2.187,3.168,3.168,0,0,1,4.377,0,3.076,3.076,0,0,1,.905,2.187Z" transform="translate(-376.313 -132.52)" fill="#808fa5"/>
        <path id="Path_89895" data-name="Path 89895" d="M467.094,195.928h-2.062v-3.281l3.094-8.25V171.178a1.025,1.025,0,0,0-.3-.73,1.055,1.055,0,0,0-1.456,0,1.025,1.025,0,0,0-.3.73v6.188H464v-6.187a3.078,3.078,0,0,1,.905-2.187,3.168,3.168,0,0,1,4.377,0,3.076,3.076,0,0,1,.905,2.187v13.594l-3.094,8.25Z" transform="translate(-404.188 -146.458)" fill="#808fa5"/>
        <path id="Path_89896" data-name="Path 89896" d="M343.219,244.71h-2.062v-2.678C340,240.8,336,236.271,336,232.357v-5.179a3.078,3.078,0,0,1,.905-2.187,3.168,3.168,0,0,1,4.377,0,3.076,3.076,0,0,1,.905,2.187h-2.062a1.025,1.025,0,0,0-.3-.73,1.055,1.055,0,0,0-1.456,0,1.025,1.025,0,0,0-.3.73v5.179c0,3.014,3.5,7.179,4.854,8.529l.3.3Z" transform="translate(-292.687 -195.239)" fill="#808fa5"/>
        <path id="Path_89897" data-name="Path 89897" d="M384.5,393.417h-2.062V377.948H370.063v15.469H368V377.948a2.063,2.063,0,0,1,2.063-2.062h12.375a2.063,2.063,0,0,1,2.063,2.063Z" transform="translate(-320.563 -327.447)" fill="#808fa5"/>
        <rect id="Rectangle_23811" data-name="Rectangle 23811" width="2.063" height="2.063" transform="translate(51.563 52.564)" fill="#808fa5"/>
        <path id="Path_89898" data-name="Path 89898" d="M194.063,32.585H192V19.178a3.071,3.071,0,0,1,.906-2.187,3.166,3.166,0,0,1,4.375,0,3.069,3.069,0,0,1,.906,2.187v8.25h-2.062v-8.25a1.024,1.024,0,0,0-.3-.729,1.055,1.055,0,0,0-1.458,0,1.024,1.024,0,0,0-.3.729Z" transform="translate(-167.25 -14.052)" fill="#808fa5"/>
        <path id="Path_89899" data-name="Path 89899" d="M230.188,13.491h-2.062V3.178a1.024,1.024,0,0,0-.3-.729,1.055,1.055,0,0,0-1.458,0,1.024,1.024,0,0,0-.3.729V13.491H224V3.178a3.071,3.071,0,0,1,.906-2.187,3.166,3.166,0,0,1,4.375,0,3.069,3.069,0,0,1,.906,2.187Z" transform="translate(-195.125 -0.114)" fill="#808fa5"/>
        <path id="Path_89900" data-name="Path 89900" d="M262.188,27.428h-2.062v-8.25a1.025,1.025,0,0,0-.3-.73,1.055,1.055,0,0,0-1.456,0,1.025,1.025,0,0,0-.3.73v8.25H256v-8.25a3.078,3.078,0,0,1,.905-2.187,3.168,3.168,0,0,1,4.377,0,3.076,3.076,0,0,1,.905,2.187Z" transform="translate(-223 -14.052)" fill="#808fa5"/>
        <path id="Path_89901" data-name="Path 89901" d="M291.094,59.928h-2.062v-3.28l3.094-8.25V35.178a1.025,1.025,0,0,0-.3-.73,1.055,1.055,0,0,0-1.456,0,1.025,1.025,0,0,0-.3.73v6.188H288V35.178a3.078,3.078,0,0,1,.905-2.187,3.168,3.168,0,0,1,4.377,0,3.076,3.076,0,0,1,.905,2.187V48.771l-3.094,8.25Z" transform="translate(-250.875 -27.989)" fill="#808fa5"/>
        <path id="Path_89902" data-name="Path 89902" d="M167.219,108.71h-2.062v-2.678C164,104.8,160,100.271,160,96.357V91.178a3.071,3.071,0,0,1,.906-2.187,3.166,3.166,0,0,1,4.375,0,3.069,3.069,0,0,1,.906,2.187h-2.062a1.024,1.024,0,0,0-.3-.729,1.055,1.055,0,0,0-1.458,0,1.024,1.024,0,0,0-.3.729v5.179c0,3.014,3.5,7.179,4.854,8.529l.3.3Z" transform="translate(-139.375 -76.77)" fill="#808fa5"/>
        <path id="Path_89903" data-name="Path 89903" d="M208.5,274.948h-2.062v-33H194.063v33H192v-33a2.063,2.063,0,0,1,2.063-2.062h12.375a2.063,2.063,0,0,1,2.063,2.063Z" transform="translate(-167.25 -208.978)" fill="#808fa5"/>
        <rect id="Rectangle_23812" data-name="Rectangle 23812" width="2.063" height="2.063" transform="translate(28.875 35.033)" fill="#808fa5"/>
      </g>
    </g>
  </g>
</svg>
